<?xml version="1.0" encoding="UTF-8" standalone="no"?>
<!DOCTYPE svg PUBLIC "-//W3C//DTD SVG 1.1//EN"
 "http://www.w3.org/Graphics/SVG/1.1/DTD/svg11.dtd">
<!-- Generated by graphviz version 2.36.0 (20140111.2315)
 -->
<!-- Title: IControl.h Pages: 1 -->
<svg width="1143pt" height="420pt"
 viewBox="0.00 0.00 1142.78 420.00" xmlns="http://www.w3.org/2000/svg" xmlns:xlink="http://www.w3.org/1999/xlink">
<g id="graph0" class="graph" transform="scale(1 1) rotate(0) translate(4 416)">
<title>IControl.h</title>
<polygon fill="white" stroke="none" points="-4,4 -4,-416 1138.78,-416 1138.78,4 -4,4"/>
<!-- Node1 -->
<g id="node1" class="node"><title>Node1</title>
<polygon fill="#bfbfbf" stroke="black" points="739.276,-392.5 739.276,-411.5 798.276,-411.5 798.276,-392.5 739.276,-392.5"/>
<text text-anchor="middle" x="768.776" y="-399.5" font-family="Helvetica,sans-Serif" font-size="10.00">IControl.h</text>
</g>
<!-- Node2 -->
<g id="node2" class="node"><title>Node2</title>
<g id="a_node2"><a xlink:href="_i_plug_base_graphics_8h.html" target="_top" xlink:title="An IPlugBase class for an IPlug plug&#45;in that uses IGraphics for it&#39;s UI. ">
<polygon fill="white" stroke="black" points="428.276,-336.5 428.276,-355.5 537.276,-355.5 537.276,-336.5 428.276,-336.5"/>
<text text-anchor="middle" x="482.776" y="-343.5" font-family="Helvetica,sans-Serif" font-size="10.00">IPlugBaseGraphics.h</text>
</a>
</g>
</g>
<!-- Node1&#45;&gt;Node2 -->
<g id="edge1" class="edge"><title>Node1&#45;&gt;Node2</title>
<path fill="none" stroke="midnightblue" d="M739.246,-395.424C691.891,-386.483 598.202,-368.794 538.121,-357.45"/>
<polygon fill="midnightblue" stroke="midnightblue" points="538.522,-353.964 528.046,-355.548 537.223,-360.842 538.522,-353.964"/>
</g>
<!-- Node25 -->
<g id="node25" class="node"><title>Node25</title>
<g id="a_node25"><a xlink:href="_i_graphics_8h.html" target="_top" xlink:title="The lowest level base class of an IGraphics context. ">
<polygon fill="white" stroke="black" points="735.276,-280.5 735.276,-299.5 802.276,-299.5 802.276,-280.5 735.276,-280.5"/>
<text text-anchor="middle" x="768.776" y="-287.5" font-family="Helvetica,sans-Serif" font-size="10.00">IGraphics.h</text>
</a>
</g>
</g>
<!-- Node1&#45;&gt;Node25 -->
<g id="edge36" class="edge"><title>Node1&#45;&gt;Node25</title>
<path fill="none" stroke="midnightblue" d="M764.933,-392.368C761.584,-374.617 761.129,-333.666 763.565,-309.597"/>
<polygon fill="midnightblue" stroke="midnightblue" points="767.046,-309.975 764.94,-299.591 760.111,-309.022 767.046,-309.975"/>
</g>
<!-- Node3 -->
<g id="node3" class="node"><title>Node3</title>
<g id="a_node3"><a xlink:href="_i_plug_base_8h.html" target="_top" xlink:title="The lowest level base class of an IPlug plug&#45;in. ">
<polygon fill="white" stroke="black" points="252.776,-280.5 252.776,-299.5 322.776,-299.5 322.776,-280.5 252.776,-280.5"/>
<text text-anchor="middle" x="287.776" y="-287.5" font-family="Helvetica,sans-Serif" font-size="10.00">IPlugBase.h</text>
</a>
</g>
</g>
<!-- Node2&#45;&gt;Node3 -->
<g id="edge2" class="edge"><title>Node2&#45;&gt;Node3</title>
<path fill="none" stroke="midnightblue" d="M451.877,-336.444C418.502,-327.201 365.182,-312.436 328.427,-302.257"/>
<polygon fill="midnightblue" stroke="midnightblue" points="329.101,-298.812 318.529,-299.516 327.233,-305.558 329.101,-298.812"/>
</g>
<!-- Node4 -->
<g id="node4" class="node"><title>Node4</title>
<polygon fill="white" stroke="#bfbfbf" points="208.776,-112.5 208.776,-131.5 254.776,-131.5 254.776,-112.5 208.776,-112.5"/>
<text text-anchor="middle" x="231.776" y="-119.5" font-family="Helvetica,sans-Serif" font-size="10.00">cstring</text>
</g>
<!-- Node3&#45;&gt;Node4 -->
<g id="edge3" class="edge"><title>Node3&#45;&gt;Node4</title>
<path fill="none" stroke="midnightblue" d="M257.327,-280.493C218.148,-267.705 151.802,-239.37 123.776,-188 105.813,-155.075 160.307,-137.102 198.293,-128.818"/>
<polygon fill="midnightblue" stroke="midnightblue" points="199.398,-132.165 208.495,-126.734 197.997,-125.306 199.398,-132.165"/>
</g>
<!-- Node5 -->
<g id="node5" class="node"><title>Node5</title>
<polygon fill="white" stroke="#bfbfbf" points="843.276,-112.5 843.276,-131.5 892.276,-131.5 892.276,-112.5 843.276,-112.5"/>
<text text-anchor="middle" x="867.776" y="-119.5" font-family="Helvetica,sans-Serif" font-size="10.00">ptrlist.h</text>
</g>
<!-- Node3&#45;&gt;Node5 -->
<g id="edge4" class="edge"><title>Node3&#45;&gt;Node5</title>
<path fill="none" stroke="midnightblue" d="M322.872,-288.256C436.012,-285.56 786.118,-274.784 825.776,-244 857.438,-219.423 865.335,-169.469 867.236,-142.058"/>
<polygon fill="midnightblue" stroke="midnightblue" points="870.744,-141.989 867.736,-131.83 863.752,-141.647 870.744,-141.989"/>
</g>
<!-- Node6 -->
<g id="node6" class="node"><title>Node6</title>
<polygon fill="white" stroke="#bfbfbf" points="481.776,-224.5 481.776,-243.5 533.776,-243.5 533.776,-224.5 481.776,-224.5"/>
<text text-anchor="middle" x="507.776" y="-231.5" font-family="Helvetica,sans-Serif" font-size="10.00">mutex.h</text>
</g>
<!-- Node3&#45;&gt;Node6 -->
<g id="edge5" class="edge"><title>Node3&#45;&gt;Node6</title>
<path fill="none" stroke="midnightblue" d="M322.635,-280.444C363.404,-270.437 430.55,-253.955 471.795,-243.832"/>
<polygon fill="midnightblue" stroke="midnightblue" points="472.814,-247.186 481.691,-241.403 471.145,-240.387 472.814,-247.186"/>
</g>
<!-- Node7 -->
<g id="node7" class="node"><title>Node7</title>
<g id="a_node7"><a xlink:href="_i_plug_constants_8h.html" target="_top" xlink:title="Constant definitions, magic numbers. ">
<polygon fill="white" stroke="black" points="134.776,-56.5 134.776,-75.5 226.776,-75.5 226.776,-56.5 134.776,-56.5"/>
<text text-anchor="middle" x="180.776" y="-63.5" font-family="Helvetica,sans-Serif" font-size="10.00">IPlugConstants.h</text>
</a>
</g>
</g>
<!-- Node3&#45;&gt;Node7 -->
<g id="edge6" class="edge"><title>Node3&#45;&gt;Node7</title>
<path fill="none" stroke="midnightblue" d="M252.58,-289.817C188.255,-289.073 54.7345,-276.522 15.7756,-188 2.15048,-157.041 -8.83642,-138.819 11.7756,-112 25.5937,-94.0211 80.8188,-81.703 124.428,-74.5605"/>
<polygon fill="midnightblue" stroke="midnightblue" points="125.053,-78.0053 134.383,-72.9854 123.959,-71.0913 125.053,-78.0053"/>
</g>
<!-- Node9 -->
<g id="node9" class="node"><title>Node9</title>
<g id="a_node9"><a xlink:href="_i_plug_structs_8h_source.html" target="_top" xlink:title="IPlugStructs.h">
<polygon fill="white" stroke="black" points="346.276,-224.5 346.276,-243.5 425.276,-243.5 425.276,-224.5 346.276,-224.5"/>
<text text-anchor="middle" x="385.776" y="-231.5" font-family="Helvetica,sans-Serif" font-size="10.00">IPlugStructs.h</text>
</a>
</g>
</g>
<!-- Node3&#45;&gt;Node9 -->
<g id="edge8" class="edge"><title>Node3&#45;&gt;Node9</title>
<path fill="none" stroke="midnightblue" d="M303.521,-280.324C319.094,-271.743 343.153,-258.486 361.235,-248.522"/>
<polygon fill="midnightblue" stroke="midnightblue" points="363,-251.546 370.069,-243.655 359.622,-245.415 363,-251.546"/>
</g>
<!-- Node12 -->
<g id="node12" class="node"><title>Node12</title>
<g id="a_node12"><a xlink:href="_i_plug_byte_chunk_8h_source.html" target="_top" xlink:title="IPlugByteChunk.h">
<polygon fill="white" stroke="black" points="132.776,-168.5 132.776,-187.5 228.776,-187.5 228.776,-168.5 132.776,-168.5"/>
<text text-anchor="middle" x="180.776" y="-175.5" font-family="Helvetica,sans-Serif" font-size="10.00">IPlugByteChunk.h</text>
</a>
</g>
</g>
<!-- Node3&#45;&gt;Node12 -->
<g id="edge20" class="edge"><title>Node3&#45;&gt;Node12</title>
<path fill="none" stroke="midnightblue" d="M275.265,-280.497C263.205,-271.994 244.773,-258.174 230.776,-244 215.983,-229.02 201.597,-209.658 192.083,-195.974"/>
<polygon fill="midnightblue" stroke="midnightblue" points="194.854,-193.825 186.33,-187.532 189.069,-197.767 194.854,-193.825"/>
</g>
<!-- Node18 -->
<g id="node18" class="node"><title>Node18</title>
<g id="a_node18"><a xlink:href="_i_param_8h_source.html" target="_top" xlink:title="IParam.h">
<polygon fill="white" stroke="black" points="284.776,-168.5 284.776,-187.5 340.776,-187.5 340.776,-168.5 284.776,-168.5"/>
<text text-anchor="middle" x="312.776" y="-175.5" font-family="Helvetica,sans-Serif" font-size="10.00">IParam.h</text>
</a>
</g>
</g>
<!-- Node3&#45;&gt;Node18 -->
<g id="edge21" class="edge"><title>Node3&#45;&gt;Node18</title>
<path fill="none" stroke="midnightblue" d="M272.562,-280.312C253.692,-268.351 225.43,-245.805 237.776,-224 246.122,-209.258 261.438,-198.819 276.063,-191.732"/>
<polygon fill="midnightblue" stroke="midnightblue" points="277.773,-194.803 285.494,-187.547 274.934,-188.404 277.773,-194.803"/>
</g>
<!-- Node19 -->
<g id="node19" class="node"><title>Node19</title>
<g id="a_node19"><a xlink:href="_hosts_8h.html" target="_top" xlink:title="API and host definitions. ">
<polygon fill="white" stroke="black" points="25.2756,-168.5 25.2756,-187.5 76.2756,-187.5 76.2756,-168.5 25.2756,-168.5"/>
<text text-anchor="middle" x="50.7756" y="-175.5" font-family="Helvetica,sans-Serif" font-size="10.00">Hosts.h</text>
</a>
</g>
</g>
<!-- Node3&#45;&gt;Node19 -->
<g id="edge25" class="edge"><title>Node3&#45;&gt;Node19</title>
<path fill="none" stroke="midnightblue" d="M252.428,-288.939C210.218,-287.187 139.251,-278.743 90.7756,-244 74.6563,-232.447 63.7126,-212.185 57.4025,-197.346"/>
<polygon fill="midnightblue" stroke="midnightblue" points="60.5294,-195.733 53.619,-187.702 54.0129,-198.289 60.5294,-195.733"/>
</g>
<!-- Node21 -->
<g id="node21" class="node"><title>Node21</title>
<g id="a_node21"><a xlink:href="_log_8h_source.html" target="_top" xlink:title="Log.h">
<polygon fill="white" stroke="black" points="516.276,-168.5 516.276,-187.5 557.276,-187.5 557.276,-168.5 516.276,-168.5"/>
<text text-anchor="middle" x="536.776" y="-175.5" font-family="Helvetica,sans-Serif" font-size="10.00">Log.h</text>
</a>
</g>
</g>
<!-- Node3&#45;&gt;Node21 -->
<g id="edge28" class="edge"><title>Node3&#45;&gt;Node21</title>
<path fill="none" stroke="midnightblue" d="M322.947,-280.943C353.13,-273.381 397.387,-260.731 433.776,-244 464.43,-229.905 496.886,-208.129 516.988,-193.722"/>
<polygon fill="midnightblue" stroke="midnightblue" points="519.275,-196.387 525.305,-187.676 515.158,-190.726 519.275,-196.387"/>
</g>
<!-- Node24 -->
<g id="node24" class="node"><title>Node24</title>
<g id="a_node24"><a xlink:href="_n_chan_delay_8h_source.html" target="_top" xlink:title="NChanDelay.h">
<polygon fill="white" stroke="black" points="247.276,-224.5 247.276,-243.5 328.276,-243.5 328.276,-224.5 247.276,-224.5"/>
<text text-anchor="middle" x="287.776" y="-231.5" font-family="Helvetica,sans-Serif" font-size="10.00">NChanDelay.h</text>
</a>
</g>
</g>
<!-- Node3&#45;&gt;Node24 -->
<g id="edge35" class="edge"><title>Node3&#45;&gt;Node24</title>
<path fill="none" stroke="midnightblue" d="M287.776,-280.083C287.776,-273.006 287.776,-262.861 287.776,-253.986"/>
<polygon fill="midnightblue" stroke="midnightblue" points="291.276,-253.751 287.776,-243.751 284.276,-253.751 291.276,-253.751"/>
</g>
<!-- Node8 -->
<g id="node8" class="node"><title>Node8</title>
<polygon fill="white" stroke="#bfbfbf" points="156.276,-0.5 156.276,-19.5 205.276,-19.5 205.276,-0.5 156.276,-0.5"/>
<text text-anchor="middle" x="180.776" y="-7.5" font-family="Helvetica,sans-Serif" font-size="10.00">stdint.h</text>
</g>
<!-- Node7&#45;&gt;Node8 -->
<g id="edge7" class="edge"><title>Node7&#45;&gt;Node8</title>
<path fill="none" stroke="midnightblue" d="M180.776,-56.083C180.776,-49.0059 180.776,-38.8611 180.776,-29.9865"/>
<polygon fill="midnightblue" stroke="midnightblue" points="184.276,-29.751 180.776,-19.7511 177.276,-29.7511 184.276,-29.751"/>
</g>
<!-- Node9&#45;&gt;Node7 -->
<g id="edge11" class="edge"><title>Node9&#45;&gt;Node7</title>
<path fill="none" stroke="midnightblue" d="M359.603,-224.357C336.774,-216.341 303.122,-203.356 275.776,-188 239.192,-167.456 223.814,-166.388 199.776,-132 190.198,-118.299 185.398,-99.7655 183.024,-85.9945"/>
<polygon fill="midnightblue" stroke="midnightblue" points="186.439,-85.1557 181.548,-75.7575 179.511,-86.1547 186.439,-85.1557"/>
</g>
<!-- Node10 -->
<g id="node10" class="node"><title>Node10</title>
<polygon fill="white" stroke="#bfbfbf" points="403.776,-168.5 403.776,-187.5 459.776,-187.5 459.776,-168.5 403.776,-168.5"/>
<text text-anchor="middle" x="431.776" y="-175.5" font-family="Helvetica,sans-Serif" font-size="10.00">algorithm</text>
</g>
<!-- Node9&#45;&gt;Node10 -->
<g id="edge9" class="edge"><title>Node9&#45;&gt;Node10</title>
<path fill="none" stroke="midnightblue" d="M393.372,-224.083C400.003,-216.298 409.797,-204.801 417.834,-195.367"/>
<polygon fill="midnightblue" stroke="midnightblue" points="420.501,-197.633 424.321,-187.751 415.172,-193.094 420.501,-197.633"/>
</g>
<!-- Node11 -->
<g id="node11" class="node"><title>Node11</title>
<polygon fill="white" stroke="#bfbfbf" points="370.776,-112.5 370.776,-131.5 434.776,-131.5 434.776,-112.5 370.776,-112.5"/>
<text text-anchor="middle" x="402.776" y="-119.5" font-family="Helvetica,sans-Serif" font-size="10.00">wdlstring.h</text>
</g>
<!-- Node9&#45;&gt;Node11 -->
<g id="edge10" class="edge"><title>Node9&#45;&gt;Node11</title>
<path fill="none" stroke="midnightblue" d="M386.891,-224.153C388.495,-211.631 391.61,-188.03 394.776,-168 396.155,-159.271 397.849,-149.62 399.322,-141.501"/>
<polygon fill="midnightblue" stroke="midnightblue" points="402.774,-142.079 401.144,-131.61 395.89,-140.811 402.774,-142.079"/>
</g>
<!-- Node9&#45;&gt;Node12 -->
<g id="edge12" class="edge"><title>Node9&#45;&gt;Node12</title>
<path fill="none" stroke="midnightblue" d="M353.293,-224.444C318.056,-215.162 261.672,-200.309 223.017,-190.127"/>
<polygon fill="midnightblue" stroke="midnightblue" points="223.668,-186.679 213.107,-187.516 221.885,-193.448 223.668,-186.679"/>
</g>
<!-- Node16 -->
<g id="node16" class="node"><title>Node16</title>
<g id="a_node16"><a xlink:href="_i_plug_o_s_detect_8h.html" target="_top" xlink:title="Include to get consistently named preprocessor macros for different platforms. ">
<polygon fill="white" stroke="black" points="769.276,-56.5 769.276,-75.5 860.276,-75.5 860.276,-56.5 769.276,-56.5"/>
<text text-anchor="middle" x="814.776" y="-63.5" font-family="Helvetica,sans-Serif" font-size="10.00">IPlugOSDetect.h</text>
</a>
</g>
</g>
<!-- Node9&#45;&gt;Node16 -->
<g id="edge19" class="edge"><title>Node9&#45;&gt;Node16</title>
<path fill="none" stroke="midnightblue" d="M425.551,-228.45C511.346,-218.526 707.11,-195.244 719.776,-188 762.329,-163.66 792.699,-112.02 806.481,-84.7398"/>
<polygon fill="midnightblue" stroke="midnightblue" points="809.707,-86.1079 810.941,-75.5851 803.415,-83.0418 809.707,-86.1079"/>
</g>
<!-- Node13 -->
<g id="node13" class="node"><title>Node13</title>
<g id="a_node13"><a xlink:href="_i_plug_utilities_8h.html" target="_top" xlink:title="Utility functions and macros. ">
<polygon fill="white" stroke="black" points="272.776,-112.5 272.776,-131.5 352.776,-131.5 352.776,-112.5 272.776,-112.5"/>
<text text-anchor="middle" x="312.776" y="-119.5" font-family="Helvetica,sans-Serif" font-size="10.00">IPlugUtilities.h</text>
</a>
</g>
</g>
<!-- Node12&#45;&gt;Node13 -->
<g id="edge13" class="edge"><title>Node12&#45;&gt;Node13</title>
<path fill="none" stroke="midnightblue" d="M201.691,-168.444C223.512,-159.517 257.925,-145.439 282.668,-135.317"/>
<polygon fill="midnightblue" stroke="midnightblue" points="284.027,-138.542 291.958,-131.516 281.377,-132.063 284.027,-138.542"/>
</g>
<!-- Node17 -->
<g id="node17" class="node"><title>Node17</title>
<polygon fill="white" stroke="#bfbfbf" points="84.7756,-112.5 84.7756,-131.5 152.776,-131.5 152.776,-112.5 84.7756,-112.5"/>
<text text-anchor="middle" x="118.776" y="-119.5" font-family="Helvetica,sans-Serif" font-size="10.00">wdlendian.h</text>
</g>
<!-- Node12&#45;&gt;Node17 -->
<g id="edge18" class="edge"><title>Node12&#45;&gt;Node17</title>
<path fill="none" stroke="midnightblue" d="M170.814,-168.324C161.649,-160.341 147.838,-148.313 136.747,-138.653"/>
<polygon fill="midnightblue" stroke="midnightblue" points="138.758,-135.762 128.918,-131.834 134.16,-141.041 138.758,-135.762"/>
</g>
<!-- Node13&#45;&gt;Node7 -->
<g id="edge16" class="edge"><title>Node13&#45;&gt;Node7</title>
<path fill="none" stroke="midnightblue" d="M291.86,-112.444C270.04,-103.517 235.626,-89.4387 210.883,-79.3168"/>
<polygon fill="midnightblue" stroke="midnightblue" points="212.174,-76.0634 201.594,-75.5164 209.524,-82.5422 212.174,-76.0634"/>
</g>
<!-- Node14 -->
<g id="node14" class="node"><title>Node14</title>
<polygon fill="white" stroke="#bfbfbf" points="648.776,-56.5 648.776,-75.5 692.776,-75.5 692.776,-56.5 648.776,-56.5"/>
<text text-anchor="middle" x="670.776" y="-63.5" font-family="Helvetica,sans-Serif" font-size="10.00">cmath</text>
</g>
<!-- Node13&#45;&gt;Node14 -->
<g id="edge14" class="edge"><title>Node13&#45;&gt;Node14</title>
<path fill="none" stroke="midnightblue" d="M352.866,-113.512C355.879,-112.987 358.874,-112.478 361.776,-112 462.533,-95.4159 582.305,-78.8744 638.562,-71.2911"/>
<polygon fill="midnightblue" stroke="midnightblue" points="639.181,-74.7395 648.626,-69.9389 638.249,-67.8019 639.181,-74.7395"/>
</g>
<!-- Node15 -->
<g id="node15" class="node"><title>Node15</title>
<polygon fill="white" stroke="#bfbfbf" points="432.276,-56.5 432.276,-75.5 475.276,-75.5 475.276,-56.5 432.276,-56.5"/>
<text text-anchor="middle" x="453.776" y="-63.5" font-family="Helvetica,sans-Serif" font-size="10.00">cstdio</text>
</g>
<!-- Node13&#45;&gt;Node15 -->
<g id="edge15" class="edge"><title>Node13&#45;&gt;Node15</title>
<path fill="none" stroke="midnightblue" d="M335.118,-112.444C358.666,-103.425 395.947,-89.1472 422.431,-79.0043"/>
<polygon fill="midnightblue" stroke="midnightblue" points="423.915,-82.184 432.002,-75.339 421.411,-75.647 423.915,-82.184"/>
</g>
<!-- Node13&#45;&gt;Node16 -->
<g id="edge17" class="edge"><title>Node13&#45;&gt;Node16</title>
<path fill="none" stroke="midnightblue" d="M352.843,-113.362C355.861,-112.872 358.864,-112.411 361.776,-112 437.055,-101.366 655.04,-81.2995 758.717,-71.9843"/>
<polygon fill="midnightblue" stroke="midnightblue" points="759.336,-75.4429 768.983,-71.0634 758.711,-68.4709 759.336,-75.4429"/>
</g>
<!-- Node18&#45;&gt;Node4 -->
<g id="edge22" class="edge"><title>Node18&#45;&gt;Node4</title>
<path fill="none" stroke="midnightblue" d="M299.762,-168.324C287.244,-159.979 268.094,-147.212 253.304,-137.352"/>
<polygon fill="midnightblue" stroke="midnightblue" points="255.019,-134.289 244.757,-131.655 251.136,-140.114 255.019,-134.289"/>
</g>
<!-- Node18&#45;&gt;Node11 -->
<g id="edge23" class="edge"><title>Node18&#45;&gt;Node11</title>
<path fill="none" stroke="midnightblue" d="M327.236,-168.324C341.275,-159.9 362.824,-146.971 379.319,-137.074"/>
<polygon fill="midnightblue" stroke="midnightblue" points="381.577,-139.801 388.351,-131.655 377.976,-133.798 381.577,-139.801"/>
</g>
<!-- Node18&#45;&gt;Node13 -->
<g id="edge24" class="edge"><title>Node18&#45;&gt;Node13</title>
<path fill="none" stroke="midnightblue" d="M312.776,-168.083C312.776,-161.006 312.776,-150.861 312.776,-141.986"/>
<polygon fill="midnightblue" stroke="midnightblue" points="316.276,-141.751 312.776,-131.751 309.276,-141.751 316.276,-141.751"/>
</g>
<!-- Node19&#45;&gt;Node4 -->
<g id="edge27" class="edge"><title>Node19&#45;&gt;Node4</title>
<path fill="none" stroke="midnightblue" d="M76.3246,-169.378C108.431,-159.799 163.589,-143.343 198.835,-132.828"/>
<polygon fill="midnightblue" stroke="midnightblue" points="200.067,-136.112 208.649,-129.9 198.066,-129.405 200.067,-136.112"/>
</g>
<!-- Node20 -->
<g id="node20" class="node"><title>Node20</title>
<polygon fill="white" stroke="#bfbfbf" points="21.2756,-112.5 21.2756,-131.5 66.2756,-131.5 66.2756,-112.5 21.2756,-112.5"/>
<text text-anchor="middle" x="43.7756" y="-119.5" font-family="Helvetica,sans-Serif" font-size="10.00">cstdlib</text>
</g>
<!-- Node19&#45;&gt;Node20 -->
<g id="edge26" class="edge"><title>Node19&#45;&gt;Node20</title>
<path fill="none" stroke="midnightblue" d="M49.6197,-168.083C48.6921,-160.927 47.358,-150.635 46.1986,-141.691"/>
<polygon fill="midnightblue" stroke="midnightblue" points="49.6666,-141.218 44.91,-131.751 42.7247,-142.118 49.6666,-141.218"/>
</g>
<!-- Node21&#45;&gt;Node4 -->
<g id="edge31" class="edge"><title>Node21&#45;&gt;Node4</title>
<path fill="none" stroke="midnightblue" d="M516.078,-174.386C471.768,-168.622 364.314,-153.746 265.009,-132.075"/>
<polygon fill="midnightblue" stroke="midnightblue" points="265.638,-128.63 255.119,-129.888 264.127,-135.465 265.638,-128.63"/>
</g>
<!-- Node21&#45;&gt;Node11 -->
<g id="edge32" class="edge"><title>Node21&#45;&gt;Node11</title>
<path fill="none" stroke="midnightblue" d="M516.132,-168.681C494.096,-159.801 458.939,-145.633 433.618,-135.429"/>
<polygon fill="midnightblue" stroke="midnightblue" points="434.691,-132.088 424.108,-131.597 432.075,-138.581 434.691,-132.088"/>
</g>
<!-- Node21&#45;&gt;Node13 -->
<g id="edge33" class="edge"><title>Node21&#45;&gt;Node13</title>
<path fill="none" stroke="midnightblue" d="M516.104,-172.017C480.41,-163.412 406.426,-145.576 358.231,-133.958"/>
<polygon fill="midnightblue" stroke="midnightblue" points="358.904,-130.52 348.362,-131.579 357.263,-137.325 358.904,-130.52"/>
</g>
<!-- Node21&#45;&gt;Node16 -->
<g id="edge34" class="edge"><title>Node21&#45;&gt;Node16</title>
<path fill="none" stroke="midnightblue" d="M555.955,-168.442C584.796,-155.665 641.143,-131.067 689.776,-112 720.107,-100.108 755.022,-87.6396 780.228,-78.851"/>
<polygon fill="midnightblue" stroke="midnightblue" points="781.421,-82.1419 789.719,-75.5555 779.125,-75.5292 781.421,-82.1419"/>
</g>
<!-- Node22 -->
<g id="node22" class="node"><title>Node22</title>
<polygon fill="white" stroke="#bfbfbf" points="453.276,-112.5 453.276,-131.5 502.276,-131.5 502.276,-112.5 453.276,-112.5"/>
<text text-anchor="middle" x="477.776" y="-119.5" font-family="Helvetica,sans-Serif" font-size="10.00">cstdarg</text>
</g>
<!-- Node21&#45;&gt;Node22 -->
<g id="edge29" class="edge"><title>Node21&#45;&gt;Node22</title>
<path fill="none" stroke="midnightblue" d="M527.296,-168.324C518.575,-160.341 505.432,-148.313 494.878,-138.653"/>
<polygon fill="midnightblue" stroke="midnightblue" points="497.167,-136.004 487.427,-131.834 492.441,-141.167 497.167,-136.004"/>
</g>
<!-- Node23 -->
<g id="node23" class="node"><title>Node23</title>
<polygon fill="white" stroke="#bfbfbf" points="520.776,-112.5 520.776,-131.5 566.776,-131.5 566.776,-112.5 520.776,-112.5"/>
<text text-anchor="middle" x="543.776" y="-119.5" font-family="Helvetica,sans-Serif" font-size="10.00">cstdint</text>
</g>
<!-- Node21&#45;&gt;Node23 -->
<g id="edge30" class="edge"><title>Node21&#45;&gt;Node23</title>
<path fill="none" stroke="midnightblue" d="M537.932,-168.083C538.859,-160.927 540.193,-150.635 541.353,-141.691"/>
<polygon fill="midnightblue" stroke="midnightblue" points="544.827,-142.118 542.641,-131.751 537.885,-141.218 544.827,-142.118"/>
</g>
<!-- Node25&#45;&gt;Node1 -->
<g id="edge54" class="edge"><title>Node25&#45;&gt;Node1</title>
<path fill="none" stroke="midnightblue" d="M772.611,-299.591C775.964,-317.308 776.424,-358.254 773.992,-382.348"/>
<polygon fill="midnightblue" stroke="midnightblue" points="770.509,-381.986 772.619,-392.368 777.444,-382.936 770.509,-381.986"/>
</g>
<!-- Node26 -->
<g id="node26" class="node"><title>Node26</title>
<g id="a_node26"><a xlink:href="_i_graphics_constants_8h_source.html" target="_top" xlink:title="IGraphicsConstants.h">
<polygon fill="white" stroke="black" points="1022.78,-224.5 1022.78,-243.5 1134.78,-243.5 1134.78,-224.5 1022.78,-224.5"/>
<text text-anchor="middle" x="1078.78" y="-231.5" font-family="Helvetica,sans-Serif" font-size="10.00">IGraphicsConstants.h</text>
</a>
</g>
</g>
<!-- Node25&#45;&gt;Node26 -->
<g id="edge37" class="edge"><title>Node25&#45;&gt;Node26</title>
<path fill="none" stroke="midnightblue" d="M802.541,-283.118C854.676,-274.037 955.459,-256.481 1019.81,-245.272"/>
<polygon fill="midnightblue" stroke="midnightblue" points="1020.56,-248.694 1029.81,-243.53 1019.36,-241.798 1020.56,-248.694"/>
</g>
<!-- Node27 -->
<g id="node27" class="node"><title>Node27</title>
<g id="a_node27"><a xlink:href="_i_graphics_structs_8h_source.html" target="_top" xlink:title="IGraphicsStructs.h">
<polygon fill="white" stroke="black" points="719.776,-224.5 719.776,-243.5 817.776,-243.5 817.776,-224.5 719.776,-224.5"/>
<text text-anchor="middle" x="768.776" y="-231.5" font-family="Helvetica,sans-Serif" font-size="10.00">IGraphicsStructs.h</text>
</a>
</g>
</g>
<!-- Node25&#45;&gt;Node27 -->
<g id="edge39" class="edge"><title>Node25&#45;&gt;Node27</title>
<path fill="none" stroke="midnightblue" d="M768.776,-280.083C768.776,-273.006 768.776,-262.861 768.776,-253.986"/>
<polygon fill="midnightblue" stroke="midnightblue" points="772.276,-253.751 768.776,-243.751 765.276,-253.751 772.276,-253.751"/>
</g>
<!-- Node28 -->
<g id="node28" class="node"><title>Node28</title>
<g id="a_node28"><a xlink:href="_i_graphics_utilites_8h_source.html" target="_top" xlink:title="IGraphicsUtilites.h">
<polygon fill="white" stroke="black" points="906.776,-224.5 906.776,-243.5 1004.78,-243.5 1004.78,-224.5 906.776,-224.5"/>
<text text-anchor="middle" x="955.776" y="-231.5" font-family="Helvetica,sans-Serif" font-size="10.00">IGraphicsUtilites.h</text>
</a>
</g>
</g>
<!-- Node25&#45;&gt;Node28 -->
<g id="edge46" class="edge"><title>Node25&#45;&gt;Node28</title>
<path fill="none" stroke="midnightblue" d="M798.406,-280.444C830.276,-271.241 881.108,-256.562 916.34,-246.388"/>
<polygon fill="midnightblue" stroke="midnightblue" points="917.647,-249.653 926.284,-243.516 915.705,-242.928 917.647,-249.653"/>
</g>
<!-- Node29 -->
<g id="node29" class="node"><title>Node29</title>
<g id="a_node29"><a xlink:href="_i_popup_menu_8h.html" target="_top" xlink:title="A class for setting the contents of a pop up menu. ">
<polygon fill="white" stroke="black" points="630.776,-168.5 630.776,-187.5 710.776,-187.5 710.776,-168.5 630.776,-168.5"/>
<text text-anchor="middle" x="670.776" y="-175.5" font-family="Helvetica,sans-Serif" font-size="10.00">IPopupMenu.h</text>
</a>
</g>
</g>
<!-- Node25&#45;&gt;Node29 -->
<g id="edge47" class="edge"><title>Node25&#45;&gt;Node29</title>
<path fill="none" stroke="midnightblue" d="M754.733,-280.219C742.21,-271.926 723.883,-258.608 710.776,-244 697.816,-229.556 686.593,-210.366 679.361,-196.586"/>
<polygon fill="midnightblue" stroke="midnightblue" points="682.477,-194.991 674.833,-187.654 676.233,-198.156 682.477,-194.991"/>
</g>
<!-- Node26&#45;&gt;Node16 -->
<g id="edge38" class="edge"><title>Node26&#45;&gt;Node16</title>
<path fill="none" stroke="midnightblue" d="M1068.65,-224.23C1043.85,-203.031 977.546,-148.098 915.776,-112 893.841,-99.1818 867.593,-87.5903 847.353,-79.3829"/>
<polygon fill="midnightblue" stroke="midnightblue" points="848.53,-76.0844 837.945,-75.6351 845.939,-82.5874 848.53,-76.0844"/>
</g>
<!-- Node27&#45;&gt;Node5 -->
<g id="edge43" class="edge"><title>Node27&#45;&gt;Node5</title>
<path fill="none" stroke="midnightblue" d="M776.544,-224.368C793.099,-205.974 832.072,-162.671 853.329,-139.052"/>
<polygon fill="midnightblue" stroke="midnightblue" points="855.955,-141.366 860.043,-131.591 850.752,-136.683 855.955,-141.366"/>
</g>
<!-- Node27&#45;&gt;Node10 -->
<g id="edge40" class="edge"><title>Node27&#45;&gt;Node10</title>
<path fill="none" stroke="midnightblue" d="M719.56,-226.409C660.874,-218.338 559.897,-203.781 473.776,-188 472.538,-187.773 471.281,-187.537 470.012,-187.294"/>
<polygon fill="midnightblue" stroke="midnightblue" points="470.689,-183.86 460.196,-185.33 469.315,-190.724 470.689,-183.86"/>
</g>
<!-- Node27&#45;&gt;Node11 -->
<g id="edge42" class="edge"><title>Node27&#45;&gt;Node11</title>
<path fill="none" stroke="midnightblue" d="M719.477,-230.231C665.666,-225.92 577.712,-215.053 506.776,-188 489.677,-181.479 448.653,-154.41 423.541,-137.327"/>
<polygon fill="midnightblue" stroke="midnightblue" points="425.313,-134.299 415.083,-131.542 421.361,-140.077 425.313,-134.299"/>
</g>
<!-- Node27&#45;&gt;Node14 -->
<g id="edge41" class="edge"><title>Node27&#45;&gt;Node14</title>
<path fill="none" stroke="midnightblue" d="M770.474,-224.469C774.184,-203.336 780.87,-147.693 756.776,-112 744.308,-93.5313 721.775,-82.1357 702.901,-75.4337"/>
<polygon fill="midnightblue" stroke="midnightblue" points="703.751,-72.0297 693.159,-72.2612 701.583,-78.6857 703.751,-72.0297"/>
</g>
<!-- Node27&#45;&gt;Node16 -->
<g id="edge44" class="edge"><title>Node27&#45;&gt;Node16</title>
<path fill="none" stroke="midnightblue" d="M789.869,-224.467C821.101,-210.506 878.362,-179.494 900.776,-132 912.422,-107.321 882.903,-89.6687 855.333,-79.0443"/>
<polygon fill="midnightblue" stroke="midnightblue" points="856.328,-75.6823 845.733,-75.5794 853.951,-82.2665 856.328,-75.6823"/>
</g>
<!-- Node27&#45;&gt;Node21 -->
<g id="edge45" class="edge"><title>Node27&#45;&gt;Node21</title>
<path fill="none" stroke="midnightblue" d="M732.015,-224.444C686.452,-213.839 609.649,-195.962 567.224,-186.087"/>
<polygon fill="midnightblue" stroke="midnightblue" points="568.001,-182.674 557.468,-183.816 566.414,-189.492 568.001,-182.674"/>
</g>
<!-- Node29&#45;&gt;Node4 -->
<g id="edge49" class="edge"><title>Node29&#45;&gt;Node4</title>
<path fill="none" stroke="midnightblue" d="M630.556,-173.401C545.734,-165.678 349.992,-147.125 265.114,-131.918"/>
<polygon fill="midnightblue" stroke="midnightblue" points="265.563,-128.441 255.088,-130.034 264.27,-135.321 265.563,-128.441"/>
</g>
<!-- Node29&#45;&gt;Node5 -->
<g id="edge53" class="edge"><title>Node29&#45;&gt;Node5</title>
<path fill="none" stroke="midnightblue" d="M701.991,-168.444C737.791,-158.63 796.307,-142.591 833.388,-132.426"/>
<polygon fill="midnightblue" stroke="midnightblue" points="834.523,-135.744 843.242,-129.725 832.672,-128.993 834.523,-135.744"/>
</g>
<!-- Node29&#45;&gt;Node11 -->
<g id="edge52" class="edge"><title>Node29&#45;&gt;Node11</title>
<path fill="none" stroke="midnightblue" d="M630.541,-169.281C587.166,-160.902 515.832,-146.959 444.982,-132.221"/>
<polygon fill="midnightblue" stroke="midnightblue" points="445.495,-128.753 434.991,-130.137 444.066,-135.605 445.495,-128.753"/>
</g>
<!-- Node29&#45;&gt;Node14 -->
<g id="edge48" class="edge"><title>Node29&#45;&gt;Node14</title>
<path fill="none" stroke="midnightblue" d="M670.776,-168.368C670.776,-150.617 670.776,-109.666 670.776,-85.5974"/>
<polygon fill="midnightblue" stroke="midnightblue" points="674.276,-85.5914 670.776,-75.5914 667.276,-85.5915 674.276,-85.5914"/>
</g>
<!-- Node29&#45;&gt;Node15 -->
<g id="edge50" class="edge"><title>Node29&#45;&gt;Node15</title>
<path fill="none" stroke="midnightblue" d="M660.212,-168.471C643.23,-155.07 608.447,-128.873 575.776,-112 546.334,-96.7954 510.548,-84.2331 485.371,-76.2813"/>
<polygon fill="midnightblue" stroke="midnightblue" points="486.201,-72.8744 475.613,-73.2623 484.132,-79.5617 486.201,-72.8744"/>
</g>
<!-- Node30 -->
<g id="node30" class="node"><title>Node30</title>
<polygon fill="white" stroke="#bfbfbf" points="699.276,-112.5 699.276,-131.5 748.276,-131.5 748.276,-112.5 699.276,-112.5"/>
<text text-anchor="middle" x="723.776" y="-119.5" font-family="Helvetica,sans-Serif" font-size="10.00">cassert</text>
</g>
<!-- Node29&#45;&gt;Node30 -->
<g id="edge51" class="edge"><title>Node29&#45;&gt;Node30</title>
<path fill="none" stroke="midnightblue" d="M679.528,-168.083C687.245,-160.22 698.68,-148.569 707.992,-139.081"/>
<polygon fill="midnightblue" stroke="midnightblue" points="710.68,-141.34 715.187,-131.751 705.684,-136.436 710.68,-141.34"/>
</g>
</g>
</svg>
