<?xml version="1.0" encoding="UTF-8" standalone="no"?>
<!DOCTYPE svg PUBLIC "-//W3C//DTD SVG 1.1//EN"
 "http://www.w3.org/Graphics/SVG/1.1/DTD/svg11.dtd">
<!-- Generated by graphviz version 2.36.0 (20140111.2315)
 -->
<!-- Title: IControl.h Pages: 1 -->
<svg width="922pt" height="308pt"
 viewBox="0.00 0.00 922.00 308.00" xmlns="http://www.w3.org/2000/svg" xmlns:xlink="http://www.w3.org/1999/xlink">
<g id="graph0" class="graph" transform="scale(1 1) rotate(0) translate(4 304)">
<title>IControl.h</title>
<polygon fill="white" stroke="none" points="-4,4 -4,-304 918,-304 918,4 -4,4"/>
<!-- Node1 -->
<g id="node1" class="node"><title>Node1</title>
<polygon fill="#bfbfbf" stroke="black" points="467.5,-280.5 467.5,-299.5 526.5,-299.5 526.5,-280.5 467.5,-280.5"/>
<text text-anchor="middle" x="497" y="-287.5" font-family="Helvetica,sans-Serif" font-size="10.00">IControl.h</text>
</g>
<!-- Node2 -->
<g id="node2" class="node"><title>Node2</title>
<g id="a_node2"><a xlink:href="_i_control_8cpp_source.html" target="_top" xlink:title="IControl.cpp">
<polygon fill="white" stroke="black" points="0,-224.5 0,-243.5 70,-243.5 70,-224.5 0,-224.5"/>
<text text-anchor="middle" x="35" y="-231.5" font-family="Helvetica,sans-Serif" font-size="10.00">IControl.cpp</text>
</a>
</g>
</g>
<!-- Node1&#45;&gt;Node2 -->
<g id="edge1" class="edge"><title>Node1&#45;&gt;Node2</title>
<path fill="none" stroke="midnightblue" d="M457.126,-285.632C383.293,-279.18 220.385,-263.928 84,-244 79.4641,-243.337 74.7061,-242.563 70.0123,-241.752"/>
<polygon fill="midnightblue" stroke="midnightblue" points="457.094,-289.143 467.359,-286.52 457.699,-282.169 457.094,-289.143"/>
</g>
<!-- Node3 -->
<g id="node3" class="node"><title>Node3</title>
<g id="a_node3"><a xlink:href="_i_graphics_8h.html" target="_top" xlink:title="The lowest level base class of an IGraphics context. ">
<polygon fill="white" stroke="black" points="463.5,-224.5 463.5,-243.5 530.5,-243.5 530.5,-224.5 463.5,-224.5"/>
<text text-anchor="middle" x="497" y="-231.5" font-family="Helvetica,sans-Serif" font-size="10.00">IGraphics.h</text>
</a>
</g>
</g>
<!-- Node1&#45;&gt;Node3 -->
<g id="edge2" class="edge"><title>Node1&#45;&gt;Node3</title>
<path fill="none" stroke="midnightblue" d="M490.528,-270.101C489.896,-261.136 490.343,-250.858 491.869,-243.751"/>
<polygon fill="midnightblue" stroke="midnightblue" points="487.066,-270.622 491.834,-280.083 494.007,-269.713 487.066,-270.622"/>
</g>
<!-- Node8 -->
<g id="node8" class="node"><title>Node8</title>
<g id="a_node8"><a xlink:href="_i_graphics_cairo_8cpp_source.html" target="_top" xlink:title="IGraphicsCairo.cpp">
<polygon fill="white" stroke="black" points="76.5,-112.5 76.5,-131.5 177.5,-131.5 177.5,-112.5 76.5,-112.5"/>
<text text-anchor="middle" x="127" y="-119.5" font-family="Helvetica,sans-Serif" font-size="10.00">IGraphicsCairo.cpp</text>
</a>
</g>
</g>
<!-- Node1&#45;&gt;Node8 -->
<g id="edge23" class="edge"><title>Node1&#45;&gt;Node8</title>
<path fill="none" stroke="midnightblue" d="M457.442,-284.516C368.808,-273.57 158.777,-242.331 117,-188 104.194,-171.346 114.963,-145.053 122.033,-131.581"/>
<polygon fill="midnightblue" stroke="midnightblue" points="457.033,-287.991 467.382,-285.72 457.876,-281.042 457.033,-287.991"/>
</g>
<!-- Node12 -->
<g id="node12" class="node"><title>Node12</title>
<g id="a_node12"><a xlink:href="_i_graphics_mac_8mm_source.html" target="_top" xlink:title="IGraphicsMac.mm">
<polygon fill="white" stroke="black" points="631.5,-0.5 631.5,-19.5 728.5,-19.5 728.5,-0.5 631.5,-0.5"/>
<text text-anchor="middle" x="680" y="-7.5" font-family="Helvetica,sans-Serif" font-size="10.00">IGraphicsMac.mm</text>
</a>
</g>
</g>
<!-- Node1&#45;&gt;Node12 -->
<g id="edge24" class="edge"><title>Node1&#45;&gt;Node12</title>
<path fill="none" stroke="midnightblue" d="M536.703,-283.583C620.957,-270.973 810,-236.297 810,-179 810,-179 810,-179 810,-121 810,-90.7745 810.392,-78.3106 790,-56 772.808,-37.1905 746.604,-26.0564 724.083,-19.5696"/>
<polygon fill="midnightblue" stroke="midnightblue" points="536.115,-280.132 526.728,-285.046 537.131,-287.058 536.115,-280.132"/>
</g>
<!-- Node19 -->
<g id="node19" class="node"><title>Node19</title>
<g id="a_node19"><a xlink:href="_i_plug_base_graphics_8cpp_source.html" target="_top" xlink:title="IPlugBaseGraphics.cpp">
<polygon fill="white" stroke="black" points="662.5,-168.5 662.5,-187.5 781.5,-187.5 781.5,-168.5 662.5,-168.5"/>
<text text-anchor="middle" x="722" y="-175.5" font-family="Helvetica,sans-Serif" font-size="10.00">IPlugBaseGraphics.cpp</text>
</a>
</g>
</g>
<!-- Node1&#45;&gt;Node19 -->
<g id="edge25" class="edge"><title>Node1&#45;&gt;Node19</title>
<path fill="none" stroke="midnightblue" d="M523.84,-275.878C570.477,-253.078 665.237,-206.751 704.427,-187.591"/>
<polygon fill="midnightblue" stroke="midnightblue" points="522.102,-272.832 514.655,-280.368 525.176,-279.121 522.102,-272.832"/>
</g>
<!-- Node20 -->
<g id="node20" class="node"><title>Node20</title>
<g id="a_node20"><a xlink:href="_i_controls_8h.html" target="_top" xlink:title="A collection of IControls for common UI widgets, such as knobs, sliders, switches. ">
<polygon fill="white" stroke="black" points="840.5,-224.5 840.5,-243.5 905.5,-243.5 905.5,-224.5 840.5,-224.5"/>
<text text-anchor="middle" x="873" y="-231.5" font-family="Helvetica,sans-Serif" font-size="10.00">IControls.h</text>
</a>
</g>
</g>
<!-- Node1&#45;&gt;Node20 -->
<g id="edge21" class="edge"><title>Node1&#45;&gt;Node20</title>
<path fill="none" stroke="midnightblue" d="M536.907,-284.095C598.593,-276.38 720.77,-260.575 824,-244 829.295,-243.15 834.899,-242.184 840.352,-241.207"/>
<polygon fill="midnightblue" stroke="midnightblue" points="536.314,-280.642 526.824,-285.351 537.18,-287.588 536.314,-280.642"/>
</g>
<!-- Node3&#45;&gt;Node1 -->
<g id="edge3" class="edge"><title>Node3&#45;&gt;Node1</title>
<path fill="none" stroke="midnightblue" d="M503.458,-253.691C504.106,-262.635 503.676,-272.927 502.166,-280.083"/>
<polygon fill="midnightblue" stroke="midnightblue" points="506.923,-253.2 502.131,-243.751 499.985,-254.126 506.923,-253.2"/>
</g>
<!-- Node4 -->
<g id="node4" class="node"><title>Node4</title>
<g id="a_node4"><a xlink:href="_i_graphics_8cpp_source.html" target="_top" xlink:title="IGraphics.cpp">
<polygon fill="white" stroke="black" points="126.5,-168.5 126.5,-187.5 203.5,-187.5 203.5,-168.5 126.5,-168.5"/>
<text text-anchor="middle" x="165" y="-175.5" font-family="Helvetica,sans-Serif" font-size="10.00">IGraphics.cpp</text>
</a>
</g>
</g>
<!-- Node3&#45;&gt;Node4 -->
<g id="edge4" class="edge"><title>Node3&#45;&gt;Node4</title>
<path fill="none" stroke="midnightblue" d="M453.39,-226.481C397.588,-218.049 297.976,-202.696 213,-188 209.992,-187.48 206.881,-186.928 203.756,-186.364"/>
<polygon fill="midnightblue" stroke="midnightblue" points="452.876,-229.943 463.286,-227.973 453.92,-223.021 452.876,-229.943"/>
</g>
<!-- Node5 -->
<g id="node5" class="node"><title>Node5</title>
<g id="a_node5"><a xlink:href="_i_graphics_a_g_g_8h_source.html" target="_top" xlink:title="IGraphicsAGG.h">
<polygon fill="white" stroke="black" points="452.5,-168.5 452.5,-187.5 541.5,-187.5 541.5,-168.5 452.5,-168.5"/>
<text text-anchor="middle" x="497" y="-175.5" font-family="Helvetica,sans-Serif" font-size="10.00">IGraphicsAGG.h</text>
</a>
</g>
</g>
<!-- Node3&#45;&gt;Node5 -->
<g id="edge5" class="edge"><title>Node3&#45;&gt;Node5</title>
<path fill="none" stroke="midnightblue" d="M497,-213.805C497,-204.91 497,-194.78 497,-187.751"/>
<polygon fill="midnightblue" stroke="midnightblue" points="493.5,-214.083 497,-224.083 500.5,-214.083 493.5,-214.083"/>
</g>
<!-- Node7 -->
<g id="node7" class="node"><title>Node7</title>
<g id="a_node7"><a xlink:href="_i_graphics_cairo_8h_source.html" target="_top" xlink:title="IGraphicsCairo.h">
<polygon fill="white" stroke="black" points="222,-168.5 222,-187.5 312,-187.5 312,-168.5 222,-168.5"/>
<text text-anchor="middle" x="267" y="-175.5" font-family="Helvetica,sans-Serif" font-size="10.00">IGraphicsCairo.h</text>
</a>
</g>
</g>
<!-- Node3&#45;&gt;Node7 -->
<g id="edge7" class="edge"><title>Node3&#45;&gt;Node7</title>
<path fill="none" stroke="midnightblue" d="M453.07,-222.686C409.634,-212.488 343.95,-197.066 303.357,-187.536"/>
<polygon fill="midnightblue" stroke="midnightblue" points="452.527,-226.154 463.063,-225.032 454.127,-219.339 452.527,-226.154"/>
</g>
<!-- Node9 -->
<g id="node9" class="node"><title>Node9</title>
<g id="a_node9"><a xlink:href="_i_graphics_lice_8h_source.html" target="_top" xlink:title="IGraphicsLice.h">
<polygon fill="white" stroke="black" points="559.5,-168.5 559.5,-187.5 644.5,-187.5 644.5,-168.5 559.5,-168.5"/>
<text text-anchor="middle" x="602" y="-175.5" font-family="Helvetica,sans-Serif" font-size="10.00">IGraphicsLice.h</text>
</a>
</g>
</g>
<!-- Node3&#45;&gt;Node9 -->
<g id="edge9" class="edge"><title>Node3&#45;&gt;Node9</title>
<path fill="none" stroke="midnightblue" d="M522.81,-219.726C542.253,-209.727 568.348,-196.307 585.172,-187.655"/>
<polygon fill="midnightblue" stroke="midnightblue" points="521.162,-216.638 513.87,-224.324 524.364,-222.863 521.162,-216.638"/>
</g>
<!-- Node17 -->
<g id="node17" class="node"><title>Node17</title>
<g id="a_node17"><a xlink:href="_i_graphics_nano_v_g_8h_source.html" target="_top" xlink:title="IGraphicsNanoVG.h">
<polygon fill="white" stroke="black" points="330,-168.5 330,-187.5 434,-187.5 434,-168.5 330,-168.5"/>
<text text-anchor="middle" x="382" y="-175.5" font-family="Helvetica,sans-Serif" font-size="10.00">IGraphicsNanoVG.h</text>
</a>
</g>
</g>
<!-- Node3&#45;&gt;Node17 -->
<g id="edge18" class="edge"><title>Node3&#45;&gt;Node17</title>
<path fill="none" stroke="midnightblue" d="M469.519,-220.096C448.034,-210.007 418.778,-196.27 400.137,-187.516"/>
<polygon fill="midnightblue" stroke="midnightblue" points="468.238,-223.361 478.778,-224.444 471.214,-217.025 468.238,-223.361"/>
</g>
<!-- Node3&#45;&gt;Node19 -->
<g id="edge20" class="edge"><title>Node3&#45;&gt;Node19</title>
<path fill="none" stroke="midnightblue" d="M540.451,-222.572C582.87,-212.391 646.645,-197.085 686.223,-187.587"/>
<polygon fill="midnightblue" stroke="midnightblue" points="539.592,-219.178 530.685,-224.916 541.225,-225.985 539.592,-219.178"/>
</g>
<!-- Node6 -->
<g id="node6" class="node"><title>Node6</title>
<g id="a_node6"><a xlink:href="_i_graphics_a_g_g_8cpp_source.html" target="_top" xlink:title="IGraphicsAGG.cpp">
<polygon fill="white" stroke="black" points="360.5,-112.5 360.5,-131.5 459.5,-131.5 459.5,-112.5 360.5,-112.5"/>
<text text-anchor="middle" x="410" y="-119.5" font-family="Helvetica,sans-Serif" font-size="10.00">IGraphicsAGG.cpp</text>
</a>
</g>
</g>
<!-- Node5&#45;&gt;Node6 -->
<g id="edge6" class="edge"><title>Node5&#45;&gt;Node6</title>
<path fill="none" stroke="midnightblue" d="M474.284,-162.901C458.331,-152.999 437.503,-140.071 423.943,-131.655"/>
<polygon fill="midnightblue" stroke="midnightblue" points="472.68,-166.024 483.022,-168.324 476.371,-160.077 472.68,-166.024"/>
</g>
<!-- Node7&#45;&gt;Node8 -->
<g id="edge8" class="edge"><title>Node7&#45;&gt;Node8</title>
<path fill="none" stroke="midnightblue" d="M235.298,-164.772C209,-154.629 172.284,-140.467 149.08,-131.516"/>
<polygon fill="midnightblue" stroke="midnightblue" points="234.227,-168.11 244.817,-168.444 236.746,-161.579 234.227,-168.11"/>
</g>
<!-- Node10 -->
<g id="node10" class="node"><title>Node10</title>
<g id="a_node10"><a xlink:href="_i_graphics_lice_8cpp_source.html" target="_top" xlink:title="IGraphicsLice.cpp">
<polygon fill="white" stroke="black" points="477.5,-112.5 477.5,-131.5 572.5,-131.5 572.5,-112.5 477.5,-112.5"/>
<text text-anchor="middle" x="525" y="-119.5" font-family="Helvetica,sans-Serif" font-size="10.00">IGraphicsLice.cpp</text>
</a>
</g>
</g>
<!-- Node9&#45;&gt;Node10 -->
<g id="edge10" class="edge"><title>Node9&#45;&gt;Node10</title>
<path fill="none" stroke="midnightblue" d="M581.099,-162.342C567.089,-152.517 549.117,-139.913 537.341,-131.655"/>
<polygon fill="midnightblue" stroke="midnightblue" points="579.432,-165.448 589.629,-168.324 583.451,-159.717 579.432,-165.448"/>
</g>
<!-- Node11 -->
<g id="node11" class="node"><title>Node11</title>
<g id="a_node11"><a xlink:href="_i_graphics_mac_8h_source.html" target="_top" xlink:title="IGraphicsMac.h">
<polygon fill="white" stroke="black" points="591,-112.5 591,-131.5 677,-131.5 677,-112.5 591,-112.5"/>
<text text-anchor="middle" x="634" y="-119.5" font-family="Helvetica,sans-Serif" font-size="10.00">IGraphicsMac.h</text>
</a>
</g>
</g>
<!-- Node9&#45;&gt;Node11 -->
<g id="edge11" class="edge"><title>Node9&#45;&gt;Node11</title>
<path fill="none" stroke="midnightblue" d="M612.504,-159.275C617.973,-150.045 624.418,-139.17 628.814,-131.751"/>
<polygon fill="midnightblue" stroke="midnightblue" points="609.371,-157.696 607.284,-168.083 615.393,-161.264 609.371,-157.696"/>
</g>
<!-- Node15 -->
<g id="node15" class="node"><title>Node15</title>
<g id="a_node15"><a xlink:href="_i_graphics_win_8h_source.html" target="_top" xlink:title="IGraphicsWin.h">
<polygon fill="white" stroke="black" points="695,-112.5 695,-131.5 779,-131.5 779,-112.5 695,-112.5"/>
<text text-anchor="middle" x="737" y="-119.5" font-family="Helvetica,sans-Serif" font-size="10.00">IGraphicsWin.h</text>
</a>
</g>
</g>
<!-- Node9&#45;&gt;Node15 -->
<g id="edge16" class="edge"><title>Node9&#45;&gt;Node15</title>
<path fill="none" stroke="midnightblue" d="M632.906,-164.638C658.24,-154.504 693.431,-140.427 715.709,-131.516"/>
<polygon fill="midnightblue" stroke="midnightblue" points="631.376,-161.48 623.391,-168.444 633.976,-167.979 631.376,-161.48"/>
</g>
<!-- Node11&#45;&gt;Node12 -->
<g id="edge12" class="edge"><title>Node11&#45;&gt;Node12</title>
<path fill="none" stroke="midnightblue" d="M641.528,-102.998C651.565,-78.9968 668.931,-37.4683 676.407,-19.5914"/>
<polygon fill="midnightblue" stroke="midnightblue" points="638.239,-101.792 637.61,-112.368 644.697,-104.493 638.239,-101.792"/>
</g>
<!-- Node13 -->
<g id="node13" class="node"><title>Node13</title>
<g id="a_node13"><a xlink:href="_i_graphics_view_8h_source.html" target="_top" xlink:title="IGraphicsView.h">
<polygon fill="white" stroke="black" points="540.5,-56.5 540.5,-75.5 629.5,-75.5 629.5,-56.5 540.5,-56.5"/>
<text text-anchor="middle" x="585" y="-63.5" font-family="Helvetica,sans-Serif" font-size="10.00">IGraphicsView.h</text>
</a>
</g>
</g>
<!-- Node11&#45;&gt;Node13 -->
<g id="edge13" class="edge"><title>Node11&#45;&gt;Node13</title>
<path fill="none" stroke="midnightblue" d="M618.966,-104.431C610.378,-94.9673 599.957,-83.4827 592.941,-75.7511"/>
<polygon fill="midnightblue" stroke="midnightblue" points="616.597,-107.029 625.909,-112.083 621.781,-102.325 616.597,-107.029"/>
</g>
<!-- Node13&#45;&gt;Node12 -->
<g id="edge14" class="edge"><title>Node13&#45;&gt;Node12</title>
<path fill="none" stroke="midnightblue" d="M609.318,-51.1774C626.799,-41.2407 649.83,-28.1492 664.774,-19.6545"/>
<polygon fill="midnightblue" stroke="midnightblue" points="607.227,-48.3395 600.263,-56.324 610.687,-54.425 607.227,-48.3395"/>
</g>
<!-- Node14 -->
<g id="node14" class="node"><title>Node14</title>
<g id="a_node14"><a xlink:href="_i_graphics_view_8mm_source.html" target="_top" xlink:title="IGraphicsView.mm">
<polygon fill="white" stroke="black" points="513,-0.5 513,-19.5 613,-19.5 613,-0.5 513,-0.5"/>
<text text-anchor="middle" x="563" y="-7.5" font-family="Helvetica,sans-Serif" font-size="10.00">IGraphicsView.mm</text>
</a>
</g>
</g>
<!-- Node13&#45;&gt;Node14 -->
<g id="edge15" class="edge"><title>Node13&#45;&gt;Node14</title>
<path fill="none" stroke="midnightblue" d="M577.54,-46.6897C573.833,-37.589 569.524,-27.0141 566.565,-19.7511"/>
<polygon fill="midnightblue" stroke="midnightblue" points="574.353,-48.1426 581.367,-56.083 580.835,-45.5015 574.353,-48.1426"/>
</g>
<!-- Node16 -->
<g id="node16" class="node"><title>Node16</title>
<g id="a_node16"><a xlink:href="_i_graphics_win_8cpp_source.html" target="_top" xlink:title="IGraphicsWin.cpp">
<polygon fill="white" stroke="black" points="686.5,-56.5 686.5,-75.5 781.5,-75.5 781.5,-56.5 686.5,-56.5"/>
<text text-anchor="middle" x="734" y="-63.5" font-family="Helvetica,sans-Serif" font-size="10.00">IGraphicsWin.cpp</text>
</a>
</g>
</g>
<!-- Node15&#45;&gt;Node16 -->
<g id="edge17" class="edge"><title>Node15&#45;&gt;Node16</title>
<path fill="none" stroke="midnightblue" d="M735.934,-101.805C735.439,-92.9102 734.877,-82.7798 734.486,-75.7511"/>
<polygon fill="midnightblue" stroke="midnightblue" points="732.455,-102.293 736.505,-112.083 739.444,-101.904 732.455,-102.293"/>
</g>
<!-- Node18 -->
<g id="node18" class="node"><title>Node18</title>
<g id="a_node18"><a xlink:href="_i_graphics_nano_v_g_8cpp_source.html" target="_top" xlink:title="IGraphicsNanoVG.cpp">
<polygon fill="white" stroke="black" points="227.5,-112.5 227.5,-131.5 342.5,-131.5 342.5,-112.5 227.5,-112.5"/>
<text text-anchor="middle" x="285" y="-119.5" font-family="Helvetica,sans-Serif" font-size="10.00">IGraphicsNanoVG.cpp</text>
</a>
</g>
</g>
<!-- Node17&#45;&gt;Node18 -->
<g id="edge19" class="edge"><title>Node17&#45;&gt;Node18</title>
<path fill="none" stroke="midnightblue" d="M357.665,-163.453C339.757,-153.483 315.946,-140.228 300.546,-131.655"/>
<polygon fill="midnightblue" stroke="midnightblue" points="355.975,-166.518 366.415,-168.324 359.38,-160.402 355.975,-166.518"/>
</g>
<!-- Node21 -->
<g id="node21" class="node"><title>Node21</title>
<g id="a_node21"><a xlink:href="_i_controls_8cpp_source.html" target="_top" xlink:title="IControls.cpp">
<polygon fill="white" stroke="black" points="838.5,-168.5 838.5,-187.5 913.5,-187.5 913.5,-168.5 838.5,-168.5"/>
<text text-anchor="middle" x="876" y="-175.5" font-family="Helvetica,sans-Serif" font-size="10.00">IControls.cpp</text>
</a>
</g>
</g>
<!-- Node20&#45;&gt;Node21 -->
<g id="edge22" class="edge"><title>Node20&#45;&gt;Node21</title>
<path fill="none" stroke="midnightblue" d="M874.066,-213.805C874.561,-204.91 875.123,-194.78 875.514,-187.751"/>
<polygon fill="midnightblue" stroke="midnightblue" points="870.556,-213.904 873.495,-224.083 877.545,-214.293 870.556,-213.904"/>
</g>
</g>
</svg>
