<?xml version="1.0" encoding="UTF-8" standalone="no"?>
<!DOCTYPE svg PUBLIC "-//W3C//DTD SVG 1.1//EN"
 "http://www.w3.org/Graphics/SVG/1.1/DTD/svg11.dtd">
<!-- Generated by graphviz version 2.36.0 (20140111.2315)
 -->
<!-- Title: IGraphics.h Pages: 1 -->
<svg width="1051pt" height="476pt"
 viewBox="0.00 0.00 1050.66 476.00" xmlns="http://www.w3.org/2000/svg" xmlns:xlink="http://www.w3.org/1999/xlink">
<g id="graph0" class="graph" transform="scale(1 1) rotate(0) translate(4 472)">
<title>IGraphics.h</title>
<polygon fill="white" stroke="none" points="-4,4 -4,-472 1046.66,-472 1046.66,4 -4,4"/>
<!-- Node1 -->
<g id="node1" class="node"><title>Node1</title>
<polygon fill="#bfbfbf" stroke="black" points="327.5,-448.5 327.5,-467.5 394.5,-467.5 394.5,-448.5 327.5,-448.5"/>
<text text-anchor="middle" x="361" y="-455.5" font-family="Helvetica,sans-Serif" font-size="10.00">IGraphics.h</text>
</g>
<!-- Node2 -->
<g id="node2" class="node"><title>Node2</title>
<g id="a_node2"><a xlink:href="_i_graphics_constants_8h_source.html" target="_top" xlink:title="IGraphicsConstants.h">
<polygon fill="white" stroke="black" points="0,-336.5 0,-355.5 112,-355.5 112,-336.5 0,-336.5"/>
<text text-anchor="middle" x="56" y="-343.5" font-family="Helvetica,sans-Serif" font-size="10.00">IGraphicsConstants.h</text>
</a>
</g>
</g>
<!-- Node1&#45;&gt;Node2 -->
<g id="edge1" class="edge"><title>Node1&#45;&gt;Node2</title>
<path fill="none" stroke="midnightblue" d="M335.739,-448.34C309.698,-439.376 267.942,-424.905 232,-412 181.776,-393.967 123.755,-372.395 88.485,-359.198"/>
<polygon fill="midnightblue" stroke="midnightblue" points="89.3271,-355.776 78.7347,-355.546 86.8719,-362.331 89.3271,-355.776"/>
</g>
<!-- Node4 -->
<g id="node4" class="node"><title>Node4</title>
<g id="a_node4"><a xlink:href="_i_graphics_structs_8h_source.html" target="_top" xlink:title="IGraphicsStructs.h">
<polygon fill="white" stroke="black" points="197,-280.5 197,-299.5 295,-299.5 295,-280.5 197,-280.5"/>
<text text-anchor="middle" x="246" y="-287.5" font-family="Helvetica,sans-Serif" font-size="10.00">IGraphicsStructs.h</text>
</a>
</g>
</g>
<!-- Node1&#45;&gt;Node4 -->
<g id="edge3" class="edge"><title>Node1&#45;&gt;Node4</title>
<path fill="none" stroke="midnightblue" d="M327.403,-449.802C306.186,-443.467 280.032,-432.018 265,-412 242.411,-381.919 241.969,-335.631 243.852,-309.899"/>
<polygon fill="midnightblue" stroke="midnightblue" points="247.363,-309.938 244.809,-299.656 240.393,-309.286 247.363,-309.938"/>
</g>
<!-- Node17 -->
<g id="node17" class="node"><title>Node17</title>
<g id="a_node17"><a xlink:href="_i_graphics_utilites_8h_source.html" target="_top" xlink:title="IGraphicsUtilites.h">
<polygon fill="white" stroke="black" points="274,-392.5 274,-411.5 372,-411.5 372,-392.5 274,-392.5"/>
<text text-anchor="middle" x="323" y="-399.5" font-family="Helvetica,sans-Serif" font-size="10.00">IGraphicsUtilites.h</text>
</a>
</g>
</g>
<!-- Node1&#45;&gt;Node17 -->
<g id="edge21" class="edge"><title>Node1&#45;&gt;Node17</title>
<path fill="none" stroke="midnightblue" d="M354.725,-448.083C349.358,-440.455 341.482,-429.264 334.921,-419.941"/>
<polygon fill="midnightblue" stroke="midnightblue" points="337.775,-417.915 329.158,-411.751 332.051,-421.943 337.775,-417.915"/>
</g>
<!-- Node18 -->
<g id="node18" class="node"><title>Node18</title>
<g id="a_node18"><a xlink:href="_i_popup_menu_8h.html" target="_top" xlink:title="A class for setting the contents of a pop up menu. ">
<polygon fill="white" stroke="black" points="360,-224.5 360,-243.5 440,-243.5 440,-224.5 360,-224.5"/>
<text text-anchor="middle" x="400" y="-231.5" font-family="Helvetica,sans-Serif" font-size="10.00">IPopupMenu.h</text>
</a>
</g>
</g>
<!-- Node1&#45;&gt;Node18 -->
<g id="edge22" class="edge"><title>Node1&#45;&gt;Node18</title>
<path fill="none" stroke="midnightblue" d="M365.562,-448.299C370.001,-439.423 376.564,-425.126 380,-412 394.716,-355.78 398.604,-286.721 399.631,-253.967"/>
<polygon fill="midnightblue" stroke="midnightblue" points="403.139,-253.719 399.895,-243.633 396.141,-253.541 403.139,-253.719"/>
</g>
<!-- Node20 -->
<g id="node20" class="node"><title>Node20</title>
<g id="a_node20"><a xlink:href="_i_control_8h.html" target="_top" xlink:title="The lowest level base class of an IGraphics control. ">
<polygon fill="white" stroke="black" points="428.5,-392.5 428.5,-411.5 487.5,-411.5 487.5,-392.5 428.5,-392.5"/>
<text text-anchor="middle" x="458" y="-399.5" font-family="Helvetica,sans-Serif" font-size="10.00">IControl.h</text>
</a>
</g>
</g>
<!-- Node1&#45;&gt;Node20 -->
<g id="edge29" class="edge"><title>Node1&#45;&gt;Node20</title>
<path fill="none" stroke="midnightblue" d="M371.47,-448.324C385.151,-439.664 408.998,-426.242 428.298,-416.249"/>
<polygon fill="midnightblue" stroke="midnightblue" points="430.013,-419.304 437.344,-411.655 426.843,-413.063 430.013,-419.304"/>
</g>
<!-- Node3 -->
<g id="node3" class="node"><title>Node3</title>
<g id="a_node3"><a xlink:href="_i_plug_o_s_detect_8h.html" target="_top" xlink:title="Include to get consistently named preprocessor macros for different platforms. ">
<polygon fill="white" stroke="black" points="75.5,-56.5 75.5,-75.5 166.5,-75.5 166.5,-56.5 75.5,-56.5"/>
<text text-anchor="middle" x="121" y="-63.5" font-family="Helvetica,sans-Serif" font-size="10.00">IPlugOSDetect.h</text>
</a>
</g>
</g>
<!-- Node2&#45;&gt;Node3 -->
<g id="edge2" class="edge"><title>Node2&#45;&gt;Node3</title>
<path fill="none" stroke="midnightblue" d="M49.1868,-336.458C35.7229,-318.688 7,-275.976 7,-235 7,-235 7,-235 7,-177 7,-130.115 57.5515,-96.8944 91.3292,-79.9302"/>
<polygon fill="midnightblue" stroke="midnightblue" points="92.8676,-83.0742 100.355,-75.5787 89.8277,-76.7687 92.8676,-83.0742"/>
</g>
<!-- Node4&#45;&gt;Node3 -->
<g id="edge8" class="edge"><title>Node4&#45;&gt;Node3</title>
<path fill="none" stroke="midnightblue" d="M196.565,-283.209C149.818,-276.596 84.5703,-264.024 69,-244 30.5593,-194.563 81.1736,-117.39 107.231,-83.6881"/>
<polygon fill="midnightblue" stroke="midnightblue" points="110.062,-85.7509 113.547,-75.7455 104.584,-81.3939 110.062,-85.7509"/>
</g>
<!-- Node5 -->
<g id="node5" class="node"><title>Node5</title>
<polygon fill="white" stroke="#bfbfbf" points="779,-168.5 779,-187.5 835,-187.5 835,-168.5 779,-168.5"/>
<text text-anchor="middle" x="807" y="-175.5" font-family="Helvetica,sans-Serif" font-size="10.00">algorithm</text>
</g>
<!-- Node4&#45;&gt;Node5 -->
<g id="edge4" class="edge"><title>Node4&#45;&gt;Node5</title>
<path fill="none" stroke="midnightblue" d="M295.189,-287.294C417.512,-282.694 728.458,-268.691 768,-244 784.887,-233.455 795.435,-212.674 801.238,-197.438"/>
<polygon fill="midnightblue" stroke="midnightblue" points="804.697,-198.143 804.649,-187.548 798.08,-195.861 804.697,-198.143"/>
</g>
<!-- Node6 -->
<g id="node6" class="node"><title>Node6</title>
<polygon fill="white" stroke="#bfbfbf" points="375,-56.5 375,-75.5 419,-75.5 419,-56.5 375,-56.5"/>
<text text-anchor="middle" x="397" y="-63.5" font-family="Helvetica,sans-Serif" font-size="10.00">cmath</text>
</g>
<!-- Node4&#45;&gt;Node6 -->
<g id="edge5" class="edge"><title>Node4&#45;&gt;Node6</title>
<path fill="none" stroke="midnightblue" d="M227.635,-280.362C189.707,-261.328 108.782,-213.811 140,-168 191.231,-92.821 307.732,-73.6003 364.583,-68.6869"/>
<polygon fill="midnightblue" stroke="midnightblue" points="365.095,-72.158 374.798,-67.904 364.56,-65.1785 365.095,-72.158"/>
</g>
<!-- Node7 -->
<g id="node7" class="node"><title>Node7</title>
<polygon fill="white" stroke="#bfbfbf" points="531,-168.5 531,-187.5 595,-187.5 595,-168.5 531,-168.5"/>
<text text-anchor="middle" x="563" y="-175.5" font-family="Helvetica,sans-Serif" font-size="10.00">wdlstring.h</text>
</g>
<!-- Node4&#45;&gt;Node7 -->
<g id="edge6" class="edge"><title>Node4&#45;&gt;Node7</title>
<path fill="none" stroke="midnightblue" d="M295.187,-282.334C337.062,-275.669 398.312,-263.553 449,-244 483.594,-230.655 520.278,-208.007 542.412,-193.278"/>
<polygon fill="midnightblue" stroke="midnightblue" points="544.634,-196.001 550.959,-187.501 540.714,-190.201 544.634,-196.001"/>
</g>
<!-- Node8 -->
<g id="node8" class="node"><title>Node8</title>
<polygon fill="white" stroke="#bfbfbf" points="319.5,-168.5 319.5,-187.5 368.5,-187.5 368.5,-168.5 319.5,-168.5"/>
<text text-anchor="middle" x="344" y="-175.5" font-family="Helvetica,sans-Serif" font-size="10.00">ptrlist.h</text>
</g>
<!-- Node4&#45;&gt;Node8 -->
<g id="edge7" class="edge"><title>Node4&#45;&gt;Node8</title>
<path fill="none" stroke="midnightblue" d="M253.69,-280.368C270.006,-262.055 308.32,-219.049 329.423,-195.362"/>
<polygon fill="midnightblue" stroke="midnightblue" points="332.307,-197.386 336.346,-187.591 327.08,-192.73 332.307,-197.386"/>
</g>
<!-- Node9 -->
<g id="node9" class="node"><title>Node9</title>
<g id="a_node9"><a xlink:href="_log_8h_source.html" target="_top" xlink:title="Log.h">
<polygon fill="white" stroke="black" points="224.5,-224.5 224.5,-243.5 265.5,-243.5 265.5,-224.5 224.5,-224.5"/>
<text text-anchor="middle" x="245" y="-231.5" font-family="Helvetica,sans-Serif" font-size="10.00">Log.h</text>
</a>
</g>
</g>
<!-- Node4&#45;&gt;Node9 -->
<g id="edge9" class="edge"><title>Node4&#45;&gt;Node9</title>
<path fill="none" stroke="midnightblue" d="M245.835,-280.083C245.704,-273.006 245.516,-262.861 245.352,-253.986"/>
<polygon fill="midnightblue" stroke="midnightblue" points="248.847,-253.685 245.162,-243.751 241.848,-253.814 248.847,-253.685"/>
</g>
<!-- Node9&#45;&gt;Node3 -->
<g id="edge20" class="edge"><title>Node9&#45;&gt;Node3</title>
<path fill="none" stroke="midnightblue" d="M224.419,-230.189C200.206,-225.728 160.694,-214.618 140,-188 116.807,-158.167 116.658,-111.448 118.736,-85.6605"/>
<polygon fill="midnightblue" stroke="midnightblue" points="122.219,-86.0103 119.738,-75.71 115.254,-85.3092 122.219,-86.0103"/>
</g>
<!-- Node9&#45;&gt;Node7 -->
<g id="edge13" class="edge"><title>Node9&#45;&gt;Node7</title>
<path fill="none" stroke="midnightblue" d="M265.865,-229.457C317.385,-220.708 451.448,-197.943 520.509,-186.215"/>
<polygon fill="midnightblue" stroke="midnightblue" points="521.338,-189.625 530.611,-184.5 520.166,-182.724 521.338,-189.625"/>
</g>
<!-- Node10 -->
<g id="node10" class="node"><title>Node10</title>
<polygon fill="white" stroke="#bfbfbf" points="213.5,-168.5 213.5,-187.5 262.5,-187.5 262.5,-168.5 213.5,-168.5"/>
<text text-anchor="middle" x="238" y="-175.5" font-family="Helvetica,sans-Serif" font-size="10.00">cstdarg</text>
</g>
<!-- Node9&#45;&gt;Node10 -->
<g id="edge10" class="edge"><title>Node9&#45;&gt;Node10</title>
<path fill="none" stroke="midnightblue" d="M243.844,-224.083C242.916,-216.927 241.582,-206.635 240.423,-197.691"/>
<polygon fill="midnightblue" stroke="midnightblue" points="243.891,-197.218 239.134,-187.751 236.949,-198.118 243.891,-197.218"/>
</g>
<!-- Node11 -->
<g id="node11" class="node"><title>Node11</title>
<polygon fill="white" stroke="#bfbfbf" points="149,-168.5 149,-187.5 195,-187.5 195,-168.5 149,-168.5"/>
<text text-anchor="middle" x="172" y="-175.5" font-family="Helvetica,sans-Serif" font-size="10.00">cstdint</text>
</g>
<!-- Node9&#45;&gt;Node11 -->
<g id="edge11" class="edge"><title>Node9&#45;&gt;Node11</title>
<path fill="none" stroke="midnightblue" d="M233.271,-224.324C222.163,-216.107 205.258,-203.602 192.017,-193.807"/>
<polygon fill="midnightblue" stroke="midnightblue" points="194.063,-190.967 183.942,-187.834 189.9,-196.595 194.063,-190.967"/>
</g>
<!-- Node12 -->
<g id="node12" class="node"><title>Node12</title>
<polygon fill="white" stroke="#bfbfbf" points="613,-168.5 613,-187.5 659,-187.5 659,-168.5 613,-168.5"/>
<text text-anchor="middle" x="636" y="-175.5" font-family="Helvetica,sans-Serif" font-size="10.00">cstring</text>
</g>
<!-- Node9&#45;&gt;Node12 -->
<g id="edge12" class="edge"><title>Node9&#45;&gt;Node12</title>
<path fill="none" stroke="midnightblue" d="M265.816,-231.486C319.889,-227.322 469.321,-214.352 602.698,-187.997"/>
<polygon fill="midnightblue" stroke="midnightblue" points="603.564,-191.394 612.68,-185.994 602.186,-184.53 603.564,-191.394"/>
</g>
<!-- Node13 -->
<g id="node13" class="node"><title>Node13</title>
<g id="a_node13"><a xlink:href="_i_plug_utilities_8h.html" target="_top" xlink:title="Utility functions and macros. ">
<polygon fill="white" stroke="black" points="425,-112.5 425,-131.5 505,-131.5 505,-112.5 425,-112.5"/>
<text text-anchor="middle" x="465" y="-119.5" font-family="Helvetica,sans-Serif" font-size="10.00">IPlugUtilities.h</text>
</a>
</g>
</g>
<!-- Node9&#45;&gt;Node13 -->
<g id="edge14" class="edge"><title>Node9&#45;&gt;Node13</title>
<path fill="none" stroke="midnightblue" d="M251.191,-224.467C261.713,-210.575 284.449,-183.108 310,-168 342.32,-148.89 383.273,-137.456 414.965,-130.899"/>
<polygon fill="midnightblue" stroke="midnightblue" points="415.773,-134.307 424.907,-128.938 414.419,-127.439 415.773,-134.307"/>
</g>
<!-- Node13&#45;&gt;Node3 -->
<g id="edge19" class="edge"><title>Node13&#45;&gt;Node3</title>
<path fill="none" stroke="midnightblue" d="M424.866,-114.7C363.461,-105.061 246.02,-86.6252 176.497,-75.7117"/>
<polygon fill="midnightblue" stroke="midnightblue" points="177.021,-72.2512 166.599,-74.158 175.936,-79.1666 177.021,-72.2512"/>
</g>
<!-- Node13&#45;&gt;Node6 -->
<g id="edge15" class="edge"><title>Node13&#45;&gt;Node6</title>
<path fill="none" stroke="midnightblue" d="M454.075,-112.324C443.825,-104.185 428.279,-91.8395 415.999,-82.0874"/>
<polygon fill="midnightblue" stroke="midnightblue" points="418.132,-79.3119 408.124,-75.8339 413.779,-84.7937 418.132,-79.3119"/>
</g>
<!-- Node14 -->
<g id="node14" class="node"><title>Node14</title>
<polygon fill="white" stroke="#bfbfbf" points="477.5,-56.5 477.5,-75.5 520.5,-75.5 520.5,-56.5 477.5,-56.5"/>
<text text-anchor="middle" x="499" y="-63.5" font-family="Helvetica,sans-Serif" font-size="10.00">cstdio</text>
</g>
<!-- Node13&#45;&gt;Node14 -->
<g id="edge16" class="edge"><title>Node13&#45;&gt;Node14</title>
<path fill="none" stroke="midnightblue" d="M470.614,-112.083C475.367,-104.534 482.318,-93.4948 488.152,-84.2298"/>
<polygon fill="midnightblue" stroke="midnightblue" points="491.124,-86.0783 493.49,-75.7511 485.2,-82.3486 491.124,-86.0783"/>
</g>
<!-- Node15 -->
<g id="node15" class="node"><title>Node15</title>
<g id="a_node15"><a xlink:href="_i_plug_constants_8h.html" target="_top" xlink:title="Constant definitions, magic numbers. ">
<polygon fill="white" stroke="black" points="855,-56.5 855,-75.5 947,-75.5 947,-56.5 855,-56.5"/>
<text text-anchor="middle" x="901" y="-63.5" font-family="Helvetica,sans-Serif" font-size="10.00">IPlugConstants.h</text>
</a>
</g>
</g>
<!-- Node13&#45;&gt;Node15 -->
<g id="edge17" class="edge"><title>Node13&#45;&gt;Node15</title>
<path fill="none" stroke="midnightblue" d="M505.236,-116.017C583.285,-106.35 755.398,-85.0333 844.727,-73.9696"/>
<polygon fill="midnightblue" stroke="midnightblue" points="845.182,-77.4401 854.676,-72.7374 844.321,-70.4932 845.182,-77.4401"/>
</g>
<!-- Node16 -->
<g id="node16" class="node"><title>Node16</title>
<polygon fill="white" stroke="#bfbfbf" points="876.5,-0.5 876.5,-19.5 925.5,-19.5 925.5,-0.5 876.5,-0.5"/>
<text text-anchor="middle" x="901" y="-7.5" font-family="Helvetica,sans-Serif" font-size="10.00">stdint.h</text>
</g>
<!-- Node15&#45;&gt;Node16 -->
<g id="edge18" class="edge"><title>Node15&#45;&gt;Node16</title>
<path fill="none" stroke="midnightblue" d="M901,-56.083C901,-49.0059 901,-38.8611 901,-29.9865"/>
<polygon fill="midnightblue" stroke="midnightblue" points="904.5,-29.751 901,-19.7511 897.5,-29.7511 904.5,-29.751"/>
</g>
<!-- Node18&#45;&gt;Node6 -->
<g id="edge23" class="edge"><title>Node18&#45;&gt;Node6</title>
<path fill="none" stroke="midnightblue" d="M399.839,-224.075C399.366,-197.945 397.98,-121.211 397.336,-85.577"/>
<polygon fill="midnightblue" stroke="midnightblue" points="400.835,-85.5032 397.155,-75.5681 393.836,-85.6298 400.835,-85.5032"/>
</g>
<!-- Node18&#45;&gt;Node7 -->
<g id="edge27" class="edge"><title>Node18&#45;&gt;Node7</title>
<path fill="none" stroke="midnightblue" d="M425.828,-224.444C453.249,-215.359 496.777,-200.939 527.432,-190.783"/>
<polygon fill="midnightblue" stroke="midnightblue" points="528.901,-193.984 537.293,-187.516 526.7,-187.339 528.901,-193.984"/>
</g>
<!-- Node18&#45;&gt;Node8 -->
<g id="edge28" class="edge"><title>Node18&#45;&gt;Node8</title>
<path fill="none" stroke="midnightblue" d="M391.003,-224.324C382.806,-216.42 370.494,-204.548 360.528,-194.938"/>
<polygon fill="midnightblue" stroke="midnightblue" points="362.789,-192.256 353.161,-187.834 357.93,-197.295 362.789,-192.256"/>
</g>
<!-- Node18&#45;&gt;Node12 -->
<g id="edge24" class="edge"><title>Node18&#45;&gt;Node12</title>
<path fill="none" stroke="midnightblue" d="M440.029,-224.875C479.182,-216.771 540.713,-203.621 602.974,-188.149"/>
<polygon fill="midnightblue" stroke="midnightblue" points="604.119,-191.471 612.97,-185.647 602.419,-184.68 604.119,-191.471"/>
</g>
<!-- Node18&#45;&gt;Node14 -->
<g id="edge25" class="edge"><title>Node18&#45;&gt;Node14</title>
<path fill="none" stroke="midnightblue" d="M423.761,-224.393C441.734,-216.947 466.12,-204.732 483,-188 508.908,-162.318 519.843,-148.009 514,-112 512.532,-102.957 509.508,-93.275 506.556,-85.2176"/>
<polygon fill="midnightblue" stroke="midnightblue" points="509.756,-83.7907 502.856,-75.7514 503.237,-86.3393 509.756,-83.7907"/>
</g>
<!-- Node19 -->
<g id="node19" class="node"><title>Node19</title>
<polygon fill="white" stroke="#bfbfbf" points="425.5,-168.5 425.5,-187.5 474.5,-187.5 474.5,-168.5 425.5,-168.5"/>
<text text-anchor="middle" x="450" y="-175.5" font-family="Helvetica,sans-Serif" font-size="10.00">cassert</text>
</g>
<!-- Node18&#45;&gt;Node19 -->
<g id="edge26" class="edge"><title>Node18&#45;&gt;Node19</title>
<path fill="none" stroke="midnightblue" d="M408.256,-224.083C415.465,-216.298 426.11,-204.801 434.846,-195.367"/>
<polygon fill="midnightblue" stroke="midnightblue" points="437.671,-197.467 441.897,-187.751 432.535,-192.711 437.671,-197.467"/>
</g>
<!-- Node20&#45;&gt;Node1 -->
<g id="edge54" class="edge"><title>Node20&#45;&gt;Node1</title>
<path fill="none" stroke="midnightblue" d="M447.564,-411.655C433.9,-420.307 410.058,-433.727 390.75,-443.726"/>
<polygon fill="midnightblue" stroke="midnightblue" points="389.03,-440.674 381.7,-448.324 392.2,-446.915 389.03,-440.674"/>
</g>
<!-- Node21 -->
<g id="node21" class="node"><title>Node21</title>
<g id="a_node21"><a xlink:href="_i_plug_base_graphics_8h.html" target="_top" xlink:title="An IPlugBase class for an IPlug plug&#45;in that uses IGraphics for it&#39;s UI. ">
<polygon fill="white" stroke="black" points="517.5,-336.5 517.5,-355.5 626.5,-355.5 626.5,-336.5 517.5,-336.5"/>
<text text-anchor="middle" x="572" y="-343.5" font-family="Helvetica,sans-Serif" font-size="10.00">IPlugBaseGraphics.h</text>
</a>
</g>
</g>
<!-- Node20&#45;&gt;Node21 -->
<g id="edge30" class="edge"><title>Node20&#45;&gt;Node21</title>
<path fill="none" stroke="midnightblue" d="M476.064,-392.444C494.575,-383.675 523.581,-369.935 544.855,-359.858"/>
<polygon fill="midnightblue" stroke="midnightblue" points="546.482,-362.96 554.021,-355.516 543.485,-356.634 546.482,-362.96"/>
</g>
<!-- Node22 -->
<g id="node22" class="node"><title>Node22</title>
<g id="a_node22"><a xlink:href="_i_plug_base_8h.html" target="_top" xlink:title="The lowest level base class of an IPlug plug&#45;in. ">
<polygon fill="white" stroke="black" points="627,-280.5 627,-299.5 697,-299.5 697,-280.5 627,-280.5"/>
<text text-anchor="middle" x="662" y="-287.5" font-family="Helvetica,sans-Serif" font-size="10.00">IPlugBase.h</text>
</a>
</g>
</g>
<!-- Node21&#45;&gt;Node22 -->
<g id="edge31" class="edge"><title>Node21&#45;&gt;Node22</title>
<path fill="none" stroke="midnightblue" d="M586.46,-336.324C600.5,-327.9 622.048,-314.971 638.543,-305.074"/>
<polygon fill="midnightblue" stroke="midnightblue" points="640.802,-307.801 647.576,-299.655 637.2,-301.798 640.802,-307.801"/>
</g>
<!-- Node22&#45;&gt;Node8 -->
<g id="edge33" class="edge"><title>Node22&#45;&gt;Node8</title>
<path fill="none" stroke="midnightblue" d="M626.838,-289.102C553.611,-288.522 388.442,-282.831 351,-244 339.323,-231.89 338.821,-212.014 340.468,-197.424"/>
<polygon fill="midnightblue" stroke="midnightblue" points="343.931,-197.93 341.997,-187.513 337.013,-196.863 343.931,-197.93"/>
</g>
<!-- Node22&#45;&gt;Node9 -->
<g id="edge52" class="edge"><title>Node22&#45;&gt;Node9</title>
<path fill="none" stroke="midnightblue" d="M626.806,-284.443C546.706,-274.07 351.87,-248.839 275.979,-239.012"/>
<polygon fill="midnightblue" stroke="midnightblue" points="276.039,-235.49 265.672,-237.677 275.14,-242.432 276.039,-235.49"/>
</g>
<!-- Node22&#45;&gt;Node12 -->
<g id="edge32" class="edge"><title>Node22&#45;&gt;Node12</title>
<path fill="none" stroke="midnightblue" d="M626.723,-288.299C594.357,-285.548 548.052,-275.835 525,-244 519.787,-236.8 520.034,-231.372 525,-224 529.665,-217.075 572.171,-201.126 603.198,-190.202"/>
<polygon fill="midnightblue" stroke="midnightblue" points="604.517,-193.449 612.805,-186.85 602.211,-186.839 604.517,-193.449"/>
</g>
<!-- Node22&#45;&gt;Node15 -->
<g id="edge35" class="edge"><title>Node22&#45;&gt;Node15</title>
<path fill="none" stroke="midnightblue" d="M697.109,-287.665C771.775,-284.282 943.542,-273.444 993,-244 1044.45,-213.368 1059.8,-156.737 1020,-112 1003.82,-93.8166 979.522,-82.9493 957.091,-76.469"/>
<polygon fill="midnightblue" stroke="midnightblue" points="957.851,-73.0496 947.288,-73.8707 956.057,-79.8159 957.851,-73.0496"/>
</g>
<!-- Node23 -->
<g id="node23" class="node"><title>Node23</title>
<polygon fill="white" stroke="#bfbfbf" points="816,-224.5 816,-243.5 868,-243.5 868,-224.5 816,-224.5"/>
<text text-anchor="middle" x="842" y="-231.5" font-family="Helvetica,sans-Serif" font-size="10.00">mutex.h</text>
</g>
<!-- Node22&#45;&gt;Node23 -->
<g id="edge34" class="edge"><title>Node22&#45;&gt;Node23</title>
<path fill="none" stroke="midnightblue" d="M690.522,-280.444C721.785,-271.064 772.007,-255.998 805.97,-245.809"/>
<polygon fill="midnightblue" stroke="midnightblue" points="807.377,-249.041 815.95,-242.815 805.366,-242.336 807.377,-249.041"/>
</g>
<!-- Node24 -->
<g id="node24" class="node"><title>Node24</title>
<g id="a_node24"><a xlink:href="_i_plug_structs_8h_source.html" target="_top" xlink:title="IPlugStructs.h">
<polygon fill="white" stroke="black" points="886.5,-224.5 886.5,-243.5 965.5,-243.5 965.5,-224.5 886.5,-224.5"/>
<text text-anchor="middle" x="926" y="-231.5" font-family="Helvetica,sans-Serif" font-size="10.00">IPlugStructs.h</text>
</a>
</g>
</g>
<!-- Node22&#45;&gt;Node24 -->
<g id="edge36" class="edge"><title>Node22&#45;&gt;Node24</title>
<path fill="none" stroke="midnightblue" d="M697.057,-281.829C743.08,-272.415 824.143,-255.834 876.432,-245.139"/>
<polygon fill="midnightblue" stroke="midnightblue" points="877.392,-248.515 886.488,-243.082 875.989,-241.657 877.392,-248.515"/>
</g>
<!-- Node25 -->
<g id="node25" class="node"><title>Node25</title>
<g id="a_node25"><a xlink:href="_i_plug_byte_chunk_8h_source.html" target="_top" xlink:title="IPlugByteChunk.h">
<polygon fill="white" stroke="black" points="929,-168.5 929,-187.5 1025,-187.5 1025,-168.5 929,-168.5"/>
<text text-anchor="middle" x="977" y="-175.5" font-family="Helvetica,sans-Serif" font-size="10.00">IPlugByteChunk.h</text>
</a>
</g>
</g>
<!-- Node22&#45;&gt;Node25 -->
<g id="edge44" class="edge"><title>Node22&#45;&gt;Node25</title>
<path fill="none" stroke="midnightblue" d="M697.182,-289.296C770.863,-289.101 937.594,-284.125 974,-244 985.13,-231.733 984.495,-212.195 981.92,-197.739"/>
<polygon fill="midnightblue" stroke="midnightblue" points="985.316,-196.886 979.736,-187.88 978.482,-198.4 985.316,-196.886"/>
</g>
<!-- Node27 -->
<g id="node27" class="node"><title>Node27</title>
<g id="a_node27"><a xlink:href="_i_param_8h_source.html" target="_top" xlink:title="IParam.h">
<polygon fill="white" stroke="black" points="634,-224.5 634,-243.5 690,-243.5 690,-224.5 634,-224.5"/>
<text text-anchor="middle" x="662" y="-231.5" font-family="Helvetica,sans-Serif" font-size="10.00">IParam.h</text>
</a>
</g>
</g>
<!-- Node22&#45;&gt;Node27 -->
<g id="edge45" class="edge"><title>Node22&#45;&gt;Node27</title>
<path fill="none" stroke="midnightblue" d="M662,-280.083C662,-273.006 662,-262.861 662,-253.986"/>
<polygon fill="midnightblue" stroke="midnightblue" points="665.5,-253.751 662,-243.751 658.5,-253.751 665.5,-253.751"/>
</g>
<!-- Node28 -->
<g id="node28" class="node"><title>Node28</title>
<g id="a_node28"><a xlink:href="_hosts_8h.html" target="_top" xlink:title="API and host definitions. ">
<polygon fill="white" stroke="black" points="708.5,-224.5 708.5,-243.5 759.5,-243.5 759.5,-224.5 708.5,-224.5"/>
<text text-anchor="middle" x="734" y="-231.5" font-family="Helvetica,sans-Serif" font-size="10.00">Hosts.h</text>
</a>
</g>
</g>
<!-- Node22&#45;&gt;Node28 -->
<g id="edge49" class="edge"><title>Node22&#45;&gt;Node28</title>
<path fill="none" stroke="midnightblue" d="M673.568,-280.324C684.42,-272.185 700.881,-259.839 713.883,-250.087"/>
<polygon fill="midnightblue" stroke="midnightblue" points="716.321,-252.634 722.221,-243.834 712.121,-247.034 716.321,-252.634"/>
</g>
<!-- Node30 -->
<g id="node30" class="node"><title>Node30</title>
<g id="a_node30"><a xlink:href="_n_chan_delay_8h_source.html" target="_top" xlink:title="NChanDelay.h">
<polygon fill="white" stroke="black" points="534.5,-224.5 534.5,-243.5 615.5,-243.5 615.5,-224.5 534.5,-224.5"/>
<text text-anchor="middle" x="575" y="-231.5" font-family="Helvetica,sans-Serif" font-size="10.00">NChanDelay.h</text>
</a>
</g>
</g>
<!-- Node22&#45;&gt;Node30 -->
<g id="edge53" class="edge"><title>Node22&#45;&gt;Node30</title>
<path fill="none" stroke="midnightblue" d="M648.022,-280.324C634.45,-271.9 613.62,-258.971 597.675,-249.074"/>
<polygon fill="midnightblue" stroke="midnightblue" points="599.286,-245.954 588.943,-243.655 595.594,-251.902 599.286,-245.954"/>
</g>
<!-- Node24&#45;&gt;Node3 -->
<g id="edge43" class="edge"><title>Node24&#45;&gt;Node3</title>
<path fill="none" stroke="midnightblue" d="M918.322,-224.34C904.777,-209.737 875.027,-180.579 843,-168 665.731,-98.3776 604.298,-160.553 416,-132 324.775,-118.167 219.606,-92.6469 162.746,-78.0373"/>
<polygon fill="midnightblue" stroke="midnightblue" points="163.598,-74.6425 153.04,-75.5287 161.846,-81.4198 163.598,-74.6425"/>
</g>
<!-- Node24&#45;&gt;Node5 -->
<g id="edge37" class="edge"><title>Node24&#45;&gt;Node5</title>
<path fill="none" stroke="midnightblue" d="M907.144,-224.444C887.734,-215.636 857.27,-201.812 835.035,-191.722"/>
<polygon fill="midnightblue" stroke="midnightblue" points="836.32,-188.462 825.768,-187.516 833.428,-194.836 836.32,-188.462"/>
</g>
<!-- Node24&#45;&gt;Node7 -->
<g id="edge38" class="edge"><title>Node24&#45;&gt;Node7</title>
<path fill="none" stroke="midnightblue" d="M886.449,-225.558C883.255,-225.011 880.076,-224.485 877,-224 759.297,-205.442 726.271,-208.934 605.21,-188.083"/>
<polygon fill="midnightblue" stroke="midnightblue" points="605.63,-184.603 595.178,-186.334 604.428,-191.499 605.63,-184.603"/>
</g>
<!-- Node24&#45;&gt;Node15 -->
<g id="edge39" class="edge"><title>Node24&#45;&gt;Node15</title>
<path fill="none" stroke="midnightblue" d="M924.656,-224.075C920.721,-197.945 909.164,-121.211 903.798,-85.577"/>
<polygon fill="midnightblue" stroke="midnightblue" points="907.241,-84.9353 902.29,-75.5681 900.319,-85.9779 907.241,-84.9353"/>
</g>
<!-- Node24&#45;&gt;Node25 -->
<g id="edge40" class="edge"><title>Node24&#45;&gt;Node25</title>
<path fill="none" stroke="midnightblue" d="M934.422,-224.083C941.848,-216.22 952.852,-204.569 961.812,-195.081"/>
<polygon fill="midnightblue" stroke="midnightblue" points="964.413,-197.424 968.735,-187.751 959.324,-192.618 964.413,-197.424"/>
</g>
<!-- Node25&#45;&gt;Node13 -->
<g id="edge41" class="edge"><title>Node25&#45;&gt;Node13</title>
<path fill="none" stroke="midnightblue" d="M928.832,-171.92C831.82,-161.688 613.769,-138.69 515.14,-128.288"/>
<polygon fill="midnightblue" stroke="midnightblue" points="515.44,-124.801 505.128,-127.232 514.706,-131.762 515.44,-124.801"/>
</g>
<!-- Node26 -->
<g id="node26" class="node"><title>Node26</title>
<polygon fill="white" stroke="#bfbfbf" points="943,-112.5 943,-131.5 1011,-131.5 1011,-112.5 943,-112.5"/>
<text text-anchor="middle" x="977" y="-119.5" font-family="Helvetica,sans-Serif" font-size="10.00">wdlendian.h</text>
</g>
<!-- Node25&#45;&gt;Node26 -->
<g id="edge42" class="edge"><title>Node25&#45;&gt;Node26</title>
<path fill="none" stroke="midnightblue" d="M977,-168.083C977,-161.006 977,-150.861 977,-141.986"/>
<polygon fill="midnightblue" stroke="midnightblue" points="980.5,-141.751 977,-131.751 973.5,-141.751 980.5,-141.751"/>
</g>
<!-- Node27&#45;&gt;Node7 -->
<g id="edge47" class="edge"><title>Node27&#45;&gt;Node7</title>
<path fill="none" stroke="midnightblue" d="M646.094,-224.324C630.362,-215.743 606.058,-202.486 587.791,-192.522"/>
<polygon fill="midnightblue" stroke="midnightblue" points="589.322,-189.37 578.867,-187.655 585.97,-195.516 589.322,-189.37"/>
</g>
<!-- Node27&#45;&gt;Node12 -->
<g id="edge46" class="edge"><title>Node27&#45;&gt;Node12</title>
<path fill="none" stroke="midnightblue" d="M657.707,-224.083C654.148,-216.691 648.978,-205.953 644.576,-196.811"/>
<polygon fill="midnightblue" stroke="midnightblue" points="647.705,-195.243 640.213,-187.751 641.398,-198.279 647.705,-195.243"/>
</g>
<!-- Node27&#45;&gt;Node13 -->
<g id="edge48" class="edge"><title>Node27&#45;&gt;Node13</title>
<path fill="none" stroke="midnightblue" d="M666.254,-224.326C672.242,-210.727 681.052,-184.262 668,-168 649.214,-144.594 569.185,-132.608 515.4,-127.082"/>
<polygon fill="midnightblue" stroke="midnightblue" points="515.646,-123.59 505.351,-126.093 514.96,-130.556 515.646,-123.59"/>
</g>
<!-- Node28&#45;&gt;Node12 -->
<g id="edge51" class="edge"><title>Node28&#45;&gt;Node12</title>
<path fill="none" stroke="midnightblue" d="M718.255,-224.324C702.681,-215.743 678.623,-202.486 660.541,-192.522"/>
<polygon fill="midnightblue" stroke="midnightblue" points="662.154,-189.415 651.706,-187.655 658.776,-195.546 662.154,-189.415"/>
</g>
<!-- Node29 -->
<g id="node29" class="node"><title>Node29</title>
<polygon fill="white" stroke="#bfbfbf" points="715.5,-168.5 715.5,-187.5 760.5,-187.5 760.5,-168.5 715.5,-168.5"/>
<text text-anchor="middle" x="738" y="-175.5" font-family="Helvetica,sans-Serif" font-size="10.00">cstdlib</text>
</g>
<!-- Node28&#45;&gt;Node29 -->
<g id="edge50" class="edge"><title>Node28&#45;&gt;Node29</title>
<path fill="none" stroke="midnightblue" d="M734.661,-224.083C735.185,-217.006 735.936,-206.861 736.594,-197.986"/>
<polygon fill="midnightblue" stroke="midnightblue" points="740.103,-197.982 737.352,-187.751 733.123,-197.465 740.103,-197.982"/>
</g>
</g>
</svg>
