<?xml version="1.0" encoding="UTF-8" standalone="no"?>
<!DOCTYPE svg PUBLIC "-//W3C//DTD SVG 1.1//EN"
 "http://www.w3.org/Graphics/SVG/1.1/DTD/svg11.dtd">
<!-- Generated by graphviz version 2.36.0 (20140111.2315)
 -->
<!-- Title: IPlugAAX.h Pages: 1 -->
<!--zoomable 420 -->
<svg id="main" version="1.1" xmlns="http://www.w3.org/2000/svg" xmlns:xlink="http://www.w3.org/1999/xlink" xml:space="preserve" onload="init(evt)">
<style type="text/css"><![CDATA[
.edge:hover path { stroke: red; }
.edge:hover polygon { stroke: red; fill: red; }
]]></style>
<script type="text/javascript"><![CDATA[
var edges = document.getElementsByTagName('g');
if (edges && edges.length) {
  for (var i=0;i<edges.length;i++) {
    if (edges[i].id.substr(0,4)=='edge') {
      edges[i].setAttribute('class','edge');
    }
  }
}
]]></script>
        <defs>
                <circle id="rim" cx="0" cy="0" r="7"/>
                <circle id="rim2" cx="0" cy="0" r="3.5"/>
                <g id="zoomPlus">
                        <use xlink:href="#rim" fill="#404040">
                                <set attributeName="fill" to="#808080" begin="zoomplus.mouseover" end="zoomplus.mouseout"/>
                        </use>
                        <path d="M-4,0h8M0,-4v8" fill="none" stroke="white" stroke-width="1.5" pointer-events="none"/>
                </g>
                <g id="zoomMin">
                        <use xlink:href="#rim" fill="#404040">
                                <set attributeName="fill" to="#808080" begin="zoomminus.mouseover" end="zoomminus.mouseout"/>
                        </use>
                        <path d="M-4,0h8" fill="none" stroke="white" stroke-width="1.5" pointer-events="none"/>
                </g>
                <g id="dirArrow">
                        <path fill="none" stroke="white" stroke-width="1.5" d="M0,-3.0v7 M-2.5,-0.5L0,-3.0L2.5,-0.5"/>
                </g>
               <g id="resetDef">
                       <use xlink:href="#rim2" fill="#404040">
                               <set attributeName="fill" to="#808080" begin="reset.mouseover" end="reset.mouseout"/>
                       </use>
               </g>
        </defs>

<script type="text/javascript">
var viewWidth = 921;
var viewHeight = 420;
var sectionId = 'dynsection-0';
</script>
<script xlink:href="svgpan.js"/>
<svg id="graph" class="graph">
<g id="viewport">
<title>IPlugAAX.h</title>
<polygon fill="white" stroke="none" points="-4,4 -4,-416 917,-416 917,4 -4,4"/>
<!-- Node1 -->
<g id="node1" class="node"><title>Node1</title>
<polygon fill="#bfbfbf" stroke="black" points="419,-392.5 419,-411.5 487,-411.5 487,-392.5 419,-392.5"/>
<text text-anchor="middle" x="453" y="-399.5" font-family="Helvetica,sans-Serif" font-size="10.00">IPlugAAX.h</text>
</g>
<!-- Node2 -->
<g id="node2" class="node"><title>Node2</title>
<g id="a_node2"><a xlink:href="_i_plug_o_s_detect_8h.html" target="_top" xlink:title="Include to get consistently named preprocessor macros for different platforms. ">
<polygon fill="white" stroke="black" points="180.5,-56.5 180.5,-75.5 271.5,-75.5 271.5,-56.5 180.5,-56.5"/>
<text text-anchor="middle" x="226" y="-63.5" font-family="Helvetica,sans-Serif" font-size="10.00">IPlugOSDetect.h</text>
</a>
</g>
</g>
<!-- Node1&#45;&gt;Node2 -->
<g id="edge1" class="edge"><title>Node1&#45;&gt;Node2</title>
<path fill="none" stroke="midnightblue" d="M418.951,-400.027C313.601,-396.105 0,-377.192 0,-291 0,-291 0,-291 0,-177 0,-144.601 7.5057,-131.993 33,-112 72.1427,-81.3038 128.631,-70.9266 170.388,-67.7085"/>
<polygon fill="midnightblue" stroke="midnightblue" points="170.65,-71.1989 180.399,-67.051 170.191,-64.214 170.65,-71.1989"/>
</g>
<!-- Node3 -->
<g id="node3" class="node"><title>Node3</title>
<g id="a_node3"><a xlink:href="_i_plug_base_graphics_8h.html" target="_top" xlink:title="An IPlugBase class for an IPlug plug&#45;in that uses IGraphics for it&#39;s UI. ">
<polygon fill="white" stroke="black" points="193.5,-336.5 193.5,-355.5 302.5,-355.5 302.5,-336.5 193.5,-336.5"/>
<text text-anchor="middle" x="248" y="-343.5" font-family="Helvetica,sans-Serif" font-size="10.00">IPlugBaseGraphics.h</text>
</a>
</g>
</g>
<!-- Node1&#45;&gt;Node3 -->
<g id="edge2" class="edge"><title>Node1&#45;&gt;Node3</title>
<path fill="none" stroke="midnightblue" d="M420.517,-392.444C385.28,-383.162 328.896,-368.309 290.241,-358.127"/>
<polygon fill="midnightblue" stroke="midnightblue" points="290.893,-354.679 280.331,-355.516 289.109,-361.448 290.893,-354.679"/>
</g>
<!-- Node25 -->
<g id="node25" class="node"><title>Node25</title>
<polygon fill="white" stroke="#bfbfbf" points="320.5,-336.5 320.5,-355.5 451.5,-355.5 451.5,-336.5 320.5,-336.5"/>
<text text-anchor="middle" x="386" y="-343.5" font-family="Helvetica,sans-Serif" font-size="10.00">AAX_CIPlugParameters.h</text>
</g>
<!-- Node1&#45;&gt;Node25 -->
<g id="edge37" class="edge"><title>Node1&#45;&gt;Node25</title>
<path fill="none" stroke="midnightblue" d="M442.235,-392.324C432.234,-384.263 417.113,-372.077 405.07,-362.369"/>
<polygon fill="midnightblue" stroke="midnightblue" points="406.943,-359.384 396.961,-355.834 402.55,-364.834 406.943,-359.384"/>
</g>
<!-- Node26 -->
<g id="node26" class="node"><title>Node26</title>
<polygon fill="white" stroke="#bfbfbf" points="470,-336.5 470,-355.5 572,-355.5 572,-336.5 470,-336.5"/>
<text text-anchor="middle" x="521" y="-343.5" font-family="Helvetica,sans-Serif" font-size="10.00">AAX_CEffectGUI.h</text>
</g>
<!-- Node1&#45;&gt;Node26 -->
<g id="edge38" class="edge"><title>Node1&#45;&gt;Node26</title>
<path fill="none" stroke="midnightblue" d="M463.925,-392.324C474.175,-384.185 489.721,-371.839 502.001,-362.087"/>
<polygon fill="midnightblue" stroke="midnightblue" points="504.221,-364.794 509.876,-355.834 499.868,-359.312 504.221,-364.794"/>
</g>
<!-- Node27 -->
<g id="node27" class="node"><title>Node27</title>
<polygon fill="white" stroke="#bfbfbf" points="590,-336.5 590,-355.5 758,-355.5 758,-336.5 590,-336.5"/>
<text text-anchor="middle" x="674" y="-343.5" font-family="Helvetica,sans-Serif" font-size="10.00">AAX_Push8ByteStructAlignment.h</text>
</g>
<!-- Node1&#45;&gt;Node27 -->
<g id="edge39" class="edge"><title>Node1&#45;&gt;Node27</title>
<path fill="none" stroke="midnightblue" d="M487.047,-392.681C525.19,-383.361 587.171,-368.216 629.216,-357.943"/>
<polygon fill="midnightblue" stroke="midnightblue" points="630.301,-361.281 639.185,-355.507 628.64,-354.481 630.301,-361.281"/>
</g>
<!-- Node28 -->
<g id="node28" class="node"><title>Node28</title>
<polygon fill="white" stroke="#bfbfbf" points="776.5,-336.5 776.5,-355.5 913.5,-355.5 913.5,-336.5 776.5,-336.5"/>
<text text-anchor="middle" x="845" y="-343.5" font-family="Helvetica,sans-Serif" font-size="10.00">AAX_PopStructAlignment.h</text>
</g>
<!-- Node1&#45;&gt;Node28 -->
<g id="edge40" class="edge"><title>Node1&#45;&gt;Node28</title>
<path fill="none" stroke="midnightblue" d="M487.102,-396.302C550.556,-387.561 688.005,-368.627 772.897,-356.933"/>
<polygon fill="midnightblue" stroke="midnightblue" points="773.551,-360.376 782.98,-355.544 772.596,-353.441 773.551,-360.376"/>
</g>
<!-- Node4 -->
<g id="node4" class="node"><title>Node4</title>
<g id="a_node4"><a xlink:href="_i_plug_base_8h.html" target="_top" xlink:title="The lowest level base class of an IPlug plug&#45;in. ">
<polygon fill="white" stroke="black" points="386,-280.5 386,-299.5 456,-299.5 456,-280.5 386,-280.5"/>
<text text-anchor="middle" x="421" y="-287.5" font-family="Helvetica,sans-Serif" font-size="10.00">IPlugBase.h</text>
</a>
</g>
</g>
<!-- Node3&#45;&gt;Node4 -->
<g id="edge3" class="edge"><title>Node3&#45;&gt;Node4</title>
<path fill="none" stroke="midnightblue" d="M275.412,-336.444C304.769,-327.28 351.519,-312.688 384.096,-302.519"/>
<polygon fill="midnightblue" stroke="midnightblue" points="385.213,-305.837 393.716,-299.516 383.127,-299.155 385.213,-305.837"/>
</g>
<!-- Node5 -->
<g id="node5" class="node"><title>Node5</title>
<polygon fill="white" stroke="#bfbfbf" points="620,-168.5 620,-187.5 666,-187.5 666,-168.5 620,-168.5"/>
<text text-anchor="middle" x="643" y="-175.5" font-family="Helvetica,sans-Serif" font-size="10.00">cstring</text>
</g>
<!-- Node4&#45;&gt;Node5 -->
<g id="edge4" class="edge"><title>Node4&#45;&gt;Node5</title>
<path fill="none" stroke="midnightblue" d="M456.066,-289.791C498.172,-288.906 568.761,-281.345 614,-244 628.124,-232.34 635.615,-212.393 639.418,-197.663"/>
<polygon fill="midnightblue" stroke="midnightblue" points="642.893,-198.162 641.657,-187.64 636.061,-196.637 642.893,-198.162"/>
</g>
<!-- Node6 -->
<g id="node6" class="node"><title>Node6</title>
<polygon fill="white" stroke="#bfbfbf" points="327.5,-224.5 327.5,-243.5 376.5,-243.5 376.5,-224.5 327.5,-224.5"/>
<text text-anchor="middle" x="352" y="-231.5" font-family="Helvetica,sans-Serif" font-size="10.00">ptrlist.h</text>
</g>
<!-- Node4&#45;&gt;Node6 -->
<g id="edge5" class="edge"><title>Node4&#45;&gt;Node6</title>
<path fill="none" stroke="midnightblue" d="M409.914,-280.324C399.514,-272.185 383.739,-259.839 371.278,-250.087"/>
<polygon fill="midnightblue" stroke="midnightblue" points="373.32,-247.241 363.288,-243.834 369.006,-252.753 373.32,-247.241"/>
</g>
<!-- Node7 -->
<g id="node7" class="node"><title>Node7</title>
<polygon fill="white" stroke="#bfbfbf" points="395,-224.5 395,-243.5 447,-243.5 447,-224.5 395,-224.5"/>
<text text-anchor="middle" x="421" y="-231.5" font-family="Helvetica,sans-Serif" font-size="10.00">mutex.h</text>
</g>
<!-- Node4&#45;&gt;Node7 -->
<g id="edge6" class="edge"><title>Node4&#45;&gt;Node7</title>
<path fill="none" stroke="midnightblue" d="M421,-280.083C421,-273.006 421,-262.861 421,-253.986"/>
<polygon fill="midnightblue" stroke="midnightblue" points="424.5,-253.751 421,-243.751 417.5,-253.751 424.5,-253.751"/>
</g>
<!-- Node8 -->
<g id="node8" class="node"><title>Node8</title>
<g id="a_node8"><a xlink:href="_i_plug_constants_8h.html" target="_top" xlink:title="Constant definitions, magic numbers. ">
<polygon fill="white" stroke="black" points="414,-56.5 414,-75.5 506,-75.5 506,-56.5 414,-56.5"/>
<text text-anchor="middle" x="460" y="-63.5" font-family="Helvetica,sans-Serif" font-size="10.00">IPlugConstants.h</text>
</a>
</g>
</g>
<!-- Node4&#45;&gt;Node8 -->
<g id="edge7" class="edge"><title>Node4&#45;&gt;Node8</title>
<path fill="none" stroke="midnightblue" d="M456.169,-288.38C526.921,-286.412 683.037,-278.205 722,-244 741.453,-226.923 734.41,-213.635 738,-188 751.47,-91.8227 601.128,-71.427 516.096,-67.5366"/>
<polygon fill="midnightblue" stroke="midnightblue" points="516.196,-64.0379 506.066,-67.14 515.92,-71.0324 516.196,-64.0379"/>
</g>
<!-- Node10 -->
<g id="node10" class="node"><title>Node10</title>
<g id="a_node10"><a xlink:href="_i_plug_structs_8h_source.html" target="_top" xlink:title="IPlugStructs.h">
<polygon fill="white" stroke="black" points="156.5,-224.5 156.5,-243.5 235.5,-243.5 235.5,-224.5 156.5,-224.5"/>
<text text-anchor="middle" x="196" y="-231.5" font-family="Helvetica,sans-Serif" font-size="10.00">IPlugStructs.h</text>
</a>
</g>
</g>
<!-- Node4&#45;&gt;Node10 -->
<g id="edge9" class="edge"><title>Node4&#45;&gt;Node10</title>
<path fill="none" stroke="midnightblue" d="M385.844,-280.562C346.94,-271.226 284.119,-256.149 241.492,-245.918"/>
<polygon fill="midnightblue" stroke="midnightblue" points="242.193,-242.487 231.652,-243.556 240.559,-249.294 242.193,-242.487"/>
</g>
<!-- Node13 -->
<g id="node13" class="node"><title>Node13</title>
<g id="a_node13"><a xlink:href="_i_plug_byte_chunk_8h_source.html" target="_top" xlink:title="IPlugByteChunk.h">
<polygon fill="white" stroke="black" points="28,-168.5 28,-187.5 124,-187.5 124,-168.5 28,-168.5"/>
<text text-anchor="middle" x="76" y="-175.5" font-family="Helvetica,sans-Serif" font-size="10.00">IPlugByteChunk.h</text>
</a>
</g>
</g>
<!-- Node4&#45;&gt;Node13 -->
<g id="edge21" class="edge"><title>Node4&#45;&gt;Node13</title>
<path fill="none" stroke="midnightblue" d="M385.782,-289.505C331.694,-288.936 226.14,-282.429 147,-244 123.626,-232.65 102.454,-211.109 89.4313,-195.944"/>
<polygon fill="midnightblue" stroke="midnightblue" points="91.8244,-193.346 82.7506,-187.876 86.433,-197.811 91.8244,-193.346"/>
</g>
<!-- Node18 -->
<g id="node18" class="node"><title>Node18</title>
<g id="a_node18"><a xlink:href="_i_param_8h_source.html" target="_top" xlink:title="IParam.h">
<polygon fill="white" stroke="black" points="253,-224.5 253,-243.5 309,-243.5 309,-224.5 253,-224.5"/>
<text text-anchor="middle" x="281" y="-231.5" font-family="Helvetica,sans-Serif" font-size="10.00">IParam.h</text>
</a>
</g>
</g>
<!-- Node4&#45;&gt;Node18 -->
<g id="edge22" class="edge"><title>Node4&#45;&gt;Node18</title>
<path fill="none" stroke="midnightblue" d="M398.817,-280.444C375.572,-271.478 338.851,-257.314 312.585,-247.183"/>
<polygon fill="midnightblue" stroke="midnightblue" points="313.669,-243.85 303.08,-243.516 311.15,-250.381 313.669,-243.85"/>
</g>
<!-- Node19 -->
<g id="node19" class="node"><title>Node19</title>
<g id="a_node19"><a xlink:href="_hosts_8h.html" target="_top" xlink:title="API and host definitions. ">
<polygon fill="white" stroke="black" points="662.5,-224.5 662.5,-243.5 713.5,-243.5 713.5,-224.5 662.5,-224.5"/>
<text text-anchor="middle" x="688" y="-231.5" font-family="Helvetica,sans-Serif" font-size="10.00">Hosts.h</text>
</a>
</g>
</g>
<!-- Node4&#45;&gt;Node19 -->
<g id="edge26" class="edge"><title>Node4&#45;&gt;Node19</title>
<path fill="none" stroke="midnightblue" d="M456.056,-282.339C500.701,-273.791 580.196,-258.346 648,-244 649.436,-243.696 650.901,-243.383 652.38,-243.063"/>
<polygon fill="midnightblue" stroke="midnightblue" points="653.184,-246.47 662.2,-240.907 651.682,-239.633 653.184,-246.47"/>
</g>
<!-- Node21 -->
<g id="node21" class="node"><title>Node21</title>
<g id="a_node21"><a xlink:href="_log_8h_source.html" target="_top" xlink:title="Log.h">
<polygon fill="white" stroke="black" points="564.5,-224.5 564.5,-243.5 605.5,-243.5 605.5,-224.5 564.5,-224.5"/>
<text text-anchor="middle" x="585" y="-231.5" font-family="Helvetica,sans-Serif" font-size="10.00">Log.h</text>
</a>
</g>
</g>
<!-- Node4&#45;&gt;Node21 -->
<g id="edge29" class="edge"><title>Node4&#45;&gt;Node21</title>
<path fill="none" stroke="midnightblue" d="M446.986,-280.444C476.199,-270.825 523.58,-255.224 554.517,-245.037"/>
<polygon fill="midnightblue" stroke="midnightblue" points="555.924,-248.259 564.328,-241.807 553.735,-241.61 555.924,-248.259"/>
</g>
<!-- Node24 -->
<g id="node24" class="node"><title>Node24</title>
<g id="a_node24"><a xlink:href="_n_chan_delay_8h_source.html" target="_top" xlink:title="NChanDelay.h">
<polygon fill="white" stroke="black" points="465.5,-224.5 465.5,-243.5 546.5,-243.5 546.5,-224.5 465.5,-224.5"/>
<text text-anchor="middle" x="506" y="-231.5" font-family="Helvetica,sans-Serif" font-size="10.00">NChanDelay.h</text>
</a>
</g>
</g>
<!-- Node4&#45;&gt;Node24 -->
<g id="edge36" class="edge"><title>Node4&#45;&gt;Node24</title>
<path fill="none" stroke="midnightblue" d="M434.657,-280.324C447.916,-271.9 468.268,-258.971 483.846,-249.074"/>
<polygon fill="midnightblue" stroke="midnightblue" points="485.813,-251.971 492.377,-243.655 482.06,-246.063 485.813,-251.971"/>
</g>
<!-- Node9 -->
<g id="node9" class="node"><title>Node9</title>
<polygon fill="white" stroke="#bfbfbf" points="435.5,-0.5 435.5,-19.5 484.5,-19.5 484.5,-0.5 435.5,-0.5"/>
<text text-anchor="middle" x="460" y="-7.5" font-family="Helvetica,sans-Serif" font-size="10.00">stdint.h</text>
</g>
<!-- Node8&#45;&gt;Node9 -->
<g id="edge8" class="edge"><title>Node8&#45;&gt;Node9</title>
<path fill="none" stroke="midnightblue" d="M460,-56.083C460,-49.0059 460,-38.8611 460,-29.9865"/>
<polygon fill="midnightblue" stroke="midnightblue" points="463.5,-29.751 460,-19.7511 456.5,-29.7511 463.5,-29.751"/>
</g>
<!-- Node10&#45;&gt;Node2 -->
<g id="edge20" class="edge"><title>Node10&#45;&gt;Node2</title>
<path fill="none" stroke="midnightblue" d="M198.058,-224.402C200.186,-215.368 203.536,-200.729 206,-188 212.991,-151.892 219.653,-109.422 223.248,-85.6155"/>
<polygon fill="midnightblue" stroke="midnightblue" points="226.737,-85.9448 224.754,-75.5373 219.814,-84.9101 226.737,-85.9448"/>
</g>
<!-- Node10&#45;&gt;Node8 -->
<g id="edge12" class="edge"><title>Node10&#45;&gt;Node8</title>
<path fill="none" stroke="midnightblue" d="M212.548,-224.479C251.928,-204.117 350.222,-152.791 381,-132 403.601,-116.733 427.513,-96.3932 443.032,-82.5601"/>
<polygon fill="midnightblue" stroke="midnightblue" points="445.647,-84.9149 450.728,-75.618 440.958,-79.7171 445.647,-84.9149"/>
</g>
<!-- Node11 -->
<g id="node11" class="node"><title>Node11</title>
<polygon fill="white" stroke="#bfbfbf" points="142,-168.5 142,-187.5 198,-187.5 198,-168.5 142,-168.5"/>
<text text-anchor="middle" x="170" y="-175.5" font-family="Helvetica,sans-Serif" font-size="10.00">algorithm</text>
</g>
<!-- Node10&#45;&gt;Node11 -->
<g id="edge10" class="edge"><title>Node10&#45;&gt;Node11</title>
<path fill="none" stroke="midnightblue" d="M191.707,-224.083C188.148,-216.691 182.978,-205.953 178.576,-196.811"/>
<polygon fill="midnightblue" stroke="midnightblue" points="181.705,-195.243 174.213,-187.751 175.398,-198.279 181.705,-195.243"/>
</g>
<!-- Node12 -->
<g id="node12" class="node"><title>Node12</title>
<polygon fill="white" stroke="#bfbfbf" points="330,-168.5 330,-187.5 394,-187.5 394,-168.5 330,-168.5"/>
<text text-anchor="middle" x="362" y="-175.5" font-family="Helvetica,sans-Serif" font-size="10.00">wdlstring.h</text>
</g>
<!-- Node10&#45;&gt;Node12 -->
<g id="edge11" class="edge"><title>Node10&#45;&gt;Node12</title>
<path fill="none" stroke="midnightblue" d="M222.303,-224.444C250.351,-215.32 294.944,-200.813 326.184,-190.651"/>
<polygon fill="midnightblue" stroke="midnightblue" points="327.393,-193.938 335.82,-187.516 325.228,-187.282 327.393,-193.938"/>
</g>
<!-- Node10&#45;&gt;Node13 -->
<g id="edge13" class="edge"><title>Node10&#45;&gt;Node13</title>
<path fill="none" stroke="midnightblue" d="M176.986,-224.444C157.412,-215.636 126.692,-201.812 104.271,-191.722"/>
<polygon fill="midnightblue" stroke="midnightblue" points="105.481,-188.428 94.9254,-187.516 102.608,-194.812 105.481,-188.428"/>
</g>
<!-- Node14 -->
<g id="node14" class="node"><title>Node14</title>
<g id="a_node14"><a xlink:href="_i_plug_utilities_8h.html" target="_top" xlink:title="Utility functions and macros. ">
<polygon fill="white" stroke="black" points="292,-112.5 292,-131.5 372,-131.5 372,-112.5 292,-112.5"/>
<text text-anchor="middle" x="332" y="-119.5" font-family="Helvetica,sans-Serif" font-size="10.00">IPlugUtilities.h</text>
</a>
</g>
</g>
<!-- Node13&#45;&gt;Node14 -->
<g id="edge14" class="edge"><title>Node13&#45;&gt;Node14</title>
<path fill="none" stroke="midnightblue" d="M116.564,-168.444C161.316,-159.004 233.383,-143.802 281.695,-133.611"/>
<polygon fill="midnightblue" stroke="midnightblue" points="282.564,-137.005 291.626,-131.516 281.119,-130.156 282.564,-137.005"/>
</g>
<!-- Node17 -->
<g id="node17" class="node"><title>Node17</title>
<polygon fill="white" stroke="#bfbfbf" points="42,-112.5 42,-131.5 110,-131.5 110,-112.5 42,-112.5"/>
<text text-anchor="middle" x="76" y="-119.5" font-family="Helvetica,sans-Serif" font-size="10.00">wdlendian.h</text>
</g>
<!-- Node13&#45;&gt;Node17 -->
<g id="edge19" class="edge"><title>Node13&#45;&gt;Node17</title>
<path fill="none" stroke="midnightblue" d="M76,-168.083C76,-161.006 76,-150.861 76,-141.986"/>
<polygon fill="midnightblue" stroke="midnightblue" points="79.5001,-141.751 76,-131.751 72.5001,-141.751 79.5001,-141.751"/>
</g>
<!-- Node14&#45;&gt;Node2 -->
<g id="edge18" class="edge"><title>Node14&#45;&gt;Node2</title>
<path fill="none" stroke="midnightblue" d="M314.969,-112.324C297.97,-103.664 271.624,-90.2424 252.007,-80.249"/>
<polygon fill="midnightblue" stroke="midnightblue" points="253.488,-77.0752 242.988,-75.6545 250.31,-83.3125 253.488,-77.0752"/>
</g>
<!-- Node14&#45;&gt;Node8 -->
<g id="edge17" class="edge"><title>Node14&#45;&gt;Node8</title>
<path fill="none" stroke="midnightblue" d="M352.282,-112.444C373.347,-103.557 406.517,-89.5632 430.486,-79.4514"/>
<polygon fill="midnightblue" stroke="midnightblue" points="431.96,-82.6283 439.813,-75.5164 429.239,-76.1787 431.96,-82.6283"/>
</g>
<!-- Node15 -->
<g id="node15" class="node"><title>Node15</title>
<polygon fill="white" stroke="#bfbfbf" points="290,-56.5 290,-75.5 334,-75.5 334,-56.5 290,-56.5"/>
<text text-anchor="middle" x="312" y="-63.5" font-family="Helvetica,sans-Serif" font-size="10.00">cmath</text>
</g>
<!-- Node14&#45;&gt;Node15 -->
<g id="edge15" class="edge"><title>Node14&#45;&gt;Node15</title>
<path fill="none" stroke="midnightblue" d="M328.697,-112.083C326.018,-104.849 322.151,-94.4087 318.814,-85.3968"/>
<polygon fill="midnightblue" stroke="midnightblue" points="321.996,-83.9129 315.241,-75.7511 315.432,-86.3442 321.996,-83.9129"/>
</g>
<!-- Node16 -->
<g id="node16" class="node"><title>Node16</title>
<polygon fill="white" stroke="#bfbfbf" points="352.5,-56.5 352.5,-75.5 395.5,-75.5 395.5,-56.5 352.5,-56.5"/>
<text text-anchor="middle" x="374" y="-63.5" font-family="Helvetica,sans-Serif" font-size="10.00">cstdio</text>
</g>
<!-- Node14&#45;&gt;Node16 -->
<g id="edge16" class="edge"><title>Node14&#45;&gt;Node16</title>
<path fill="none" stroke="midnightblue" d="M338.935,-112.083C344.929,-104.377 353.752,-93.0333 361.048,-83.6531"/>
<polygon fill="midnightblue" stroke="midnightblue" points="363.817,-85.7934 367.194,-75.7511 358.291,-81.4958 363.817,-85.7934"/>
</g>
<!-- Node18&#45;&gt;Node5 -->
<g id="edge23" class="edge"><title>Node18&#45;&gt;Node5</title>
<path fill="none" stroke="midnightblue" d="M309.21,-225.781C312.168,-225.131 315.139,-224.523 318,-224 443.492,-201.081 479.936,-212.666 609.739,-187.75"/>
<polygon fill="midnightblue" stroke="midnightblue" points="610.52,-191.164 619.662,-185.81 609.177,-184.294 610.52,-191.164"/>
</g>
<!-- Node18&#45;&gt;Node12 -->
<g id="edge24" class="edge"><title>Node18&#45;&gt;Node12</title>
<path fill="none" stroke="midnightblue" d="M294.014,-224.324C306.532,-215.979 325.682,-203.212 340.471,-193.352"/>
<polygon fill="midnightblue" stroke="midnightblue" points="342.639,-196.114 349.018,-187.655 338.756,-190.289 342.639,-196.114"/>
</g>
<!-- Node18&#45;&gt;Node14 -->
<g id="edge25" class="edge"><title>Node18&#45;&gt;Node14</title>
<path fill="none" stroke="midnightblue" d="M285.002,-224.368C293.307,-206.456 312.563,-164.923 323.679,-140.948"/>
<polygon fill="midnightblue" stroke="midnightblue" points="326.986,-142.136 328.017,-131.591 320.635,-139.192 326.986,-142.136"/>
</g>
<!-- Node19&#45;&gt;Node5 -->
<g id="edge28" class="edge"><title>Node19&#45;&gt;Node5</title>
<path fill="none" stroke="midnightblue" d="M680.569,-224.083C674.147,-216.377 664.694,-205.033 656.878,-195.653"/>
<polygon fill="midnightblue" stroke="midnightblue" points="659.383,-193.193 650.293,-187.751 654.006,-197.674 659.383,-193.193"/>
</g>
<!-- Node20 -->
<g id="node20" class="node"><title>Node20</title>
<polygon fill="white" stroke="#bfbfbf" points="684.5,-168.5 684.5,-187.5 729.5,-187.5 729.5,-168.5 684.5,-168.5"/>
<text text-anchor="middle" x="707" y="-175.5" font-family="Helvetica,sans-Serif" font-size="10.00">cstdlib</text>
</g>
<!-- Node19&#45;&gt;Node20 -->
<g id="edge27" class="edge"><title>Node19&#45;&gt;Node20</title>
<path fill="none" stroke="midnightblue" d="M691.137,-224.083C693.683,-216.849 697.356,-206.409 700.527,-197.397"/>
<polygon fill="midnightblue" stroke="midnightblue" points="703.903,-198.346 703.921,-187.751 697.3,-196.023 703.903,-198.346"/>
</g>
<!-- Node21&#45;&gt;Node2 -->
<g id="edge35" class="edge"><title>Node21&#45;&gt;Node2</title>
<path fill="none" stroke="midnightblue" d="M564.221,-226.761C523.609,-214.561 437.508,-188.672 436,-188 420.334,-181.021 418.672,-174.964 403,-168 352.116,-145.389 329.843,-162.102 283,-132 263.734,-119.62 247.186,-98.9072 236.959,-84.1925"/>
<polygon fill="midnightblue" stroke="midnightblue" points="239.647,-81.9144 231.187,-75.5367 233.823,-85.7983 239.647,-81.9144"/>
</g>
<!-- Node21&#45;&gt;Node5 -->
<g id="edge32" class="edge"><title>Node21&#45;&gt;Node5</title>
<path fill="none" stroke="midnightblue" d="M594.319,-224.324C602.893,-216.341 615.812,-204.313 626.188,-194.653"/>
<polygon fill="midnightblue" stroke="midnightblue" points="628.578,-197.21 633.512,-187.834 623.808,-192.086 628.578,-197.21"/>
</g>
<!-- Node21&#45;&gt;Node12 -->
<g id="edge33" class="edge"><title>Node21&#45;&gt;Node12</title>
<path fill="none" stroke="midnightblue" d="M564.391,-226.633C561.254,-225.717 558.048,-224.812 555,-224 503.422,-210.265 443.479,-196.651 404.252,-188.055"/>
<polygon fill="midnightblue" stroke="midnightblue" points="404.769,-184.586 394.253,-185.875 403.277,-191.425 404.769,-184.586"/>
</g>
<!-- Node21&#45;&gt;Node14 -->
<g id="edge34" class="edge"><title>Node21&#45;&gt;Node14</title>
<path fill="none" stroke="midnightblue" d="M564.193,-224.411C542.754,-215.505 508.411,-201.078 479,-188 459.741,-179.436 455.229,-176.63 436,-168 411.054,-156.804 382.54,-144.501 361.685,-135.593"/>
<polygon fill="midnightblue" stroke="midnightblue" points="362.969,-132.335 352.398,-131.634 360.224,-138.775 362.969,-132.335"/>
</g>
<!-- Node22 -->
<g id="node22" class="node"><title>Node22</title>
<polygon fill="white" stroke="#bfbfbf" points="552.5,-168.5 552.5,-187.5 601.5,-187.5 601.5,-168.5 552.5,-168.5"/>
<text text-anchor="middle" x="577" y="-175.5" font-family="Helvetica,sans-Serif" font-size="10.00">cstdarg</text>
</g>
<!-- Node21&#45;&gt;Node22 -->
<g id="edge30" class="edge"><title>Node21&#45;&gt;Node22</title>
<path fill="none" stroke="midnightblue" d="M583.679,-224.083C582.619,-216.927 581.094,-206.635 579.769,-197.691"/>
<polygon fill="midnightblue" stroke="midnightblue" points="583.224,-197.13 578.296,-187.751 576.3,-198.156 583.224,-197.13"/>
</g>
<!-- Node23 -->
<g id="node23" class="node"><title>Node23</title>
<polygon fill="white" stroke="#bfbfbf" points="488,-168.5 488,-187.5 534,-187.5 534,-168.5 488,-168.5"/>
<text text-anchor="middle" x="511" y="-175.5" font-family="Helvetica,sans-Serif" font-size="10.00">cstdint</text>
</g>
<!-- Node21&#45;&gt;Node23 -->
<g id="edge31" class="edge"><title>Node21&#45;&gt;Node23</title>
<path fill="none" stroke="midnightblue" d="M573.111,-224.324C561.85,-216.107 544.713,-203.602 531.291,-193.807"/>
<polygon fill="midnightblue" stroke="midnightblue" points="533.247,-190.901 523.106,-187.834 529.12,-196.556 533.247,-190.901"/>
</g>
</g>
</svg>
        <g id="navigator" transform="translate(0 0)" fill="#404254">
                <rect fill="#f2f5e9" fill-opacity="0.5" stroke="#606060" stroke-width=".5" x="0" y="0" width="60" height="60"/>
                <use id="zoomplus" xlink:href="#zoomPlus" x="17" y="9" onmousedown="handleZoom(evt,'in')"/>
                <use id="zoomminus" xlink:href="#zoomMin" x="42" y="9" onmousedown="handleZoom(evt,'out')"/>
                <use id="reset" xlink:href="#resetDef" x="30" y="36" onmousedown="handleReset()"/>
                <g id="arrowUp" xlink:href="#dirArrow" transform="translate(30 24)" onmousedown="handlePan(0,-1)">
                  <use xlink:href="#rim" fill="#404040">
                        <set attributeName="fill" to="#808080" begin="arrowUp.mouseover" end="arrowUp.mouseout"/>
                  </use>
                  <path fill="none" stroke="white" stroke-width="1.5" d="M0,-3.0v7 M-2.5,-0.5L0,-3.0L2.5,-0.5"/>
                </g>
                <g id="arrowRight" xlink:href="#dirArrow" transform="rotate(90) translate(36 -43)" onmousedown="handlePan(1,0)">
                  <use xlink:href="#rim" fill="#404040">
                        <set attributeName="fill" to="#808080" begin="arrowRight.mouseover" end="arrowRight.mouseout"/>
                  </use>
                  <path fill="none" stroke="white" stroke-width="1.5" d="M0,-3.0v7 M-2.5,-0.5L0,-3.0L2.5,-0.5"/>
                </g>
                <g id="arrowDown" xlink:href="#dirArrow" transform="rotate(180) translate(-30 -48)" onmousedown="handlePan(0,1)">
                  <use xlink:href="#rim" fill="#404040">
                        <set attributeName="fill" to="#808080" begin="arrowDown.mouseover" end="arrowDown.mouseout"/>
                  </use>
                  <path fill="none" stroke="white" stroke-width="1.5" d="M0,-3.0v7 M-2.5,-0.5L0,-3.0L2.5,-0.5"/>
                </g>
                <g id="arrowLeft" xlink:href="#dirArrow" transform="rotate(270) translate(-36 17)" onmousedown="handlePan(-1,0)">
                  <use xlink:href="#rim" fill="#404040">
                        <set attributeName="fill" to="#808080" begin="arrowLeft.mouseover" end="arrowLeft.mouseout"/>
                  </use>
                  <path fill="none" stroke="white" stroke-width="1.5" d="M0,-3.0v7 M-2.5,-0.5L0,-3.0L2.5,-0.5"/>
                </g>
        </g>
        <svg viewBox="0 0 15 15" width="100%" height="30px" preserveAspectRatio="xMaxYMin meet">
         <g id="arrow_out" transform="scale(0.3 0.3)">
          <a xlink:href="_i_plug_a_a_x_8h__incl_org.svg" target="_base">
           <rect id="button" ry="5" rx="5" y="6" x="6" height="38" width="38"
                fill="#f2f5e9" fill-opacity="0.5" stroke="#606060" stroke-width="1.0"/>
           <path id="arrow"
             d="M 11.500037,31.436501 C 11.940474,20.09759 22.043105,11.32322 32.158766,21.979434 L 37.068811,17.246167 C 37.068811,17.246167 37.088388,32 37.088388,32 L 22.160133,31.978069 C 22.160133,31.978069 26.997745,27.140456 26.997745,27.140456 C 18.528582,18.264221 13.291696,25.230495 11.500037,31.436501 z"
             style="fill:#404040;"/>
          </a>
         </g>
        </svg>
</svg>
