<?xml version="1.0" encoding="UTF-8" standalone="no"?>
<!DOCTYPE svg PUBLIC "-//W3C//DTD SVG 1.1//EN"
 "http://www.w3.org/Graphics/SVG/1.1/DTD/svg11.dtd">
<!-- Generated by graphviz version 2.36.0 (20140111.2315)
 -->
<!-- Title: IPlugAU.h Pages: 1 -->
<svg width="1265pt" height="420pt"
 viewBox="0.00 0.00 1264.63 420.00" xmlns="http://www.w3.org/2000/svg" xmlns:xlink="http://www.w3.org/1999/xlink">
<g id="graph0" class="graph" transform="scale(1 1) rotate(0) translate(4 416)">
<title>IPlugAU.h</title>
<polygon fill="white" stroke="none" points="-4,4 -4,-416 1260.63,-416 1260.63,4 -4,4"/>
<!-- Node1 -->
<g id="node1" class="node"><title>Node1</title>
<polygon fill="#bfbfbf" stroke="black" points="455,-392.5 455,-411.5 517,-411.5 517,-392.5 455,-392.5"/>
<text text-anchor="middle" x="486" y="-399.5" font-family="Helvetica,sans-Serif" font-size="10.00">IPlugAU.h</text>
</g>
<!-- Node2 -->
<g id="node2" class="node"><title>Node2</title>
<polygon fill="white" stroke="#bfbfbf" points="0,-336.5 0,-355.5 146,-355.5 146,-336.5 0,-336.5"/>
<text text-anchor="middle" x="73" y="-343.5" font-family="Helvetica,sans-Serif" font-size="10.00">CoreServices/CoreServices.h</text>
</g>
<!-- Node1&#45;&gt;Node2 -->
<g id="edge1" class="edge"><title>Node1&#45;&gt;Node2</title>
<path fill="none" stroke="midnightblue" d="M454.958,-396.941C390.316,-388.489 239.678,-368.793 148.075,-356.816"/>
<polygon fill="midnightblue" stroke="midnightblue" points="148.399,-353.329 138.03,-355.503 147.492,-360.27 148.399,-353.329"/>
</g>
<!-- Node3 -->
<g id="node3" class="node"><title>Node3</title>
<polygon fill="white" stroke="#bfbfbf" points="164.5,-336.5 164.5,-355.5 299.5,-355.5 299.5,-336.5 164.5,-336.5"/>
<text text-anchor="middle" x="232" y="-343.5" font-family="Helvetica,sans-Serif" font-size="10.00">AudioUnit/AUComponent.h</text>
</g>
<!-- Node1&#45;&gt;Node3 -->
<g id="edge2" class="edge"><title>Node1&#45;&gt;Node3</title>
<path fill="none" stroke="midnightblue" d="M454.855,-394.379C411.76,-385.217 333.461,-368.57 282.091,-357.649"/>
<polygon fill="midnightblue" stroke="midnightblue" points="282.704,-354.201 272.194,-355.545 281.248,-361.048 282.704,-354.201"/>
</g>
<!-- Node4 -->
<g id="node4" class="node"><title>Node4</title>
<polygon fill="white" stroke="#bfbfbf" points="318,-336.5 318,-355.5 476,-355.5 476,-336.5 318,-336.5"/>
<text text-anchor="middle" x="397" y="-343.5" font-family="Helvetica,sans-Serif" font-size="10.00">AudioUnit/AudioUnitProperties.h</text>
</g>
<!-- Node1&#45;&gt;Node4 -->
<g id="edge3" class="edge"><title>Node1&#45;&gt;Node4</title>
<path fill="none" stroke="midnightblue" d="M471.701,-392.324C457.817,-383.9 436.508,-370.971 420.196,-361.074"/>
<polygon fill="midnightblue" stroke="midnightblue" points="421.629,-357.85 411.264,-355.655 417.998,-363.834 421.629,-357.85"/>
</g>
<!-- Node5 -->
<g id="node5" class="node"><title>Node5</title>
<polygon fill="white" stroke="#bfbfbf" points="494.5,-336.5 494.5,-355.5 657.5,-355.5 657.5,-336.5 494.5,-336.5"/>
<text text-anchor="middle" x="576" y="-343.5" font-family="Helvetica,sans-Serif" font-size="10.00">AudioToolbox/AudioUnitUtilities.h</text>
</g>
<!-- Node1&#45;&gt;Node5 -->
<g id="edge4" class="edge"><title>Node1&#45;&gt;Node5</title>
<path fill="none" stroke="midnightblue" d="M500.46,-392.324C514.5,-383.9 536.048,-370.971 552.543,-361.074"/>
<polygon fill="midnightblue" stroke="midnightblue" points="554.802,-363.801 561.576,-355.655 551.2,-357.798 554.802,-363.801"/>
</g>
<!-- Node6 -->
<g id="node6" class="node"><title>Node6</title>
<polygon fill="white" stroke="#bfbfbf" points="676,-336.5 676,-355.5 780,-355.5 780,-336.5 676,-336.5"/>
<text text-anchor="middle" x="728" y="-343.5" font-family="Helvetica,sans-Serif" font-size="10.00">AvailabilityMacros.h</text>
</g>
<!-- Node1&#45;&gt;Node6 -->
<g id="edge5" class="edge"><title>Node1&#45;&gt;Node6</title>
<path fill="none" stroke="midnightblue" d="M517.142,-394.051C558.378,-384.85 631.512,-368.53 679.881,-357.737"/>
<polygon fill="midnightblue" stroke="midnightblue" points="680.809,-361.116 689.807,-355.522 679.284,-354.284 680.809,-361.116"/>
</g>
<!-- Node7 -->
<g id="node7" class="node"><title>Node7</title>
<g id="a_node7"><a xlink:href="_i_plug_base_graphics_8h.html" target="_top" xlink:title="An IPlugBase class for an IPlug plug&#45;in that uses IGraphics for it&#39;s UI. ">
<polygon fill="white" stroke="black" points="798.5,-336.5 798.5,-355.5 907.5,-355.5 907.5,-336.5 798.5,-336.5"/>
<text text-anchor="middle" x="853" y="-343.5" font-family="Helvetica,sans-Serif" font-size="10.00">IPlugBaseGraphics.h</text>
</a>
</g>
</g>
<!-- Node1&#45;&gt;Node7 -->
<g id="edge6" class="edge"><title>Node1&#45;&gt;Node7</title>
<path fill="none" stroke="midnightblue" d="M517.29,-396.396C577.134,-387.591 708.908,-368.202 788.401,-356.505"/>
<polygon fill="midnightblue" stroke="midnightblue" points="788.92,-359.966 798.304,-355.048 787.901,-353.041 788.92,-359.966"/>
</g>
<!-- Node8 -->
<g id="node8" class="node"><title>Node8</title>
<g id="a_node8"><a xlink:href="_i_plug_base_8h.html" target="_top" xlink:title="The lowest level base class of an IPlug plug&#45;in. ">
<polygon fill="white" stroke="black" points="818,-280.5 818,-299.5 888,-299.5 888,-280.5 818,-280.5"/>
<text text-anchor="middle" x="853" y="-287.5" font-family="Helvetica,sans-Serif" font-size="10.00">IPlugBase.h</text>
</a>
</g>
</g>
<!-- Node7&#45;&gt;Node8 -->
<g id="edge7" class="edge"><title>Node7&#45;&gt;Node8</title>
<path fill="none" stroke="midnightblue" d="M853,-336.083C853,-329.006 853,-318.861 853,-309.986"/>
<polygon fill="midnightblue" stroke="midnightblue" points="856.5,-309.751 853,-299.751 849.5,-309.751 856.5,-309.751"/>
</g>
<!-- Node9 -->
<g id="node9" class="node"><title>Node9</title>
<polygon fill="white" stroke="#bfbfbf" points="959,-168.5 959,-187.5 1005,-187.5 1005,-168.5 959,-168.5"/>
<text text-anchor="middle" x="982" y="-175.5" font-family="Helvetica,sans-Serif" font-size="10.00">cstring</text>
</g>
<!-- Node8&#45;&gt;Node9 -->
<g id="edge8" class="edge"><title>Node8&#45;&gt;Node9</title>
<path fill="none" stroke="midnightblue" d="M872.897,-280.399C889.77,-272.496 914.025,-259.652 932,-244 947.877,-230.174 962.095,-210.633 971.273,-196.592"/>
<polygon fill="midnightblue" stroke="midnightblue" points="974.391,-198.21 976.78,-187.888 968.476,-194.467 974.391,-198.21"/>
</g>
<!-- Node10 -->
<g id="node10" class="node"><title>Node10</title>
<polygon fill="white" stroke="#bfbfbf" points="595.5,-224.5 595.5,-243.5 644.5,-243.5 644.5,-224.5 595.5,-224.5"/>
<text text-anchor="middle" x="620" y="-231.5" font-family="Helvetica,sans-Serif" font-size="10.00">ptrlist.h</text>
</g>
<!-- Node8&#45;&gt;Node10 -->
<g id="edge9" class="edge"><title>Node8&#45;&gt;Node10</title>
<path fill="none" stroke="midnightblue" d="M817.681,-281.42C779.85,-273.211 717.812,-259.493 654.948,-244.164"/>
<polygon fill="midnightblue" stroke="midnightblue" points="655.401,-240.672 644.856,-241.691 653.735,-247.471 655.401,-240.672"/>
</g>
<!-- Node11 -->
<g id="node11" class="node"><title>Node11</title>
<polygon fill="white" stroke="#bfbfbf" points="663,-224.5 663,-243.5 715,-243.5 715,-224.5 663,-224.5"/>
<text text-anchor="middle" x="689" y="-231.5" font-family="Helvetica,sans-Serif" font-size="10.00">mutex.h</text>
</g>
<!-- Node8&#45;&gt;Node11 -->
<g id="edge10" class="edge"><title>Node8&#45;&gt;Node11</title>
<path fill="none" stroke="midnightblue" d="M827.014,-280.444C799.304,-271.32 755.248,-256.813 724.384,-246.651"/>
<polygon fill="midnightblue" stroke="midnightblue" points="725.458,-243.32 714.865,-243.516 723.268,-249.968 725.458,-243.32"/>
</g>
<!-- Node12 -->
<g id="node12" class="node"><title>Node12</title>
<g id="a_node12"><a xlink:href="_i_plug_constants_8h.html" target="_top" xlink:title="Constant definitions, magic numbers. ">
<polygon fill="white" stroke="black" points="604,-56.5 604,-75.5 696,-75.5 696,-56.5 604,-56.5"/>
<text text-anchor="middle" x="650" y="-63.5" font-family="Helvetica,sans-Serif" font-size="10.00">IPlugConstants.h</text>
</a>
</g>
</g>
<!-- Node8&#45;&gt;Node12 -->
<g id="edge11" class="edge"><title>Node8&#45;&gt;Node12</title>
<path fill="none" stroke="midnightblue" d="M817.941,-287.334C753.967,-283.62 621.683,-272.614 587,-244 541.683,-206.613 545.759,-159.739 580,-112 589.852,-98.2645 605.32,-87.6847 619.213,-80.245"/>
<polygon fill="midnightblue" stroke="midnightblue" points="621.119,-83.205 628.491,-75.5959 617.983,-76.9467 621.119,-83.205"/>
</g>
<!-- Node14 -->
<g id="node14" class="node"><title>Node14</title>
<g id="a_node14"><a xlink:href="_i_plug_structs_8h_source.html" target="_top" xlink:title="IPlugStructs.h">
<polygon fill="white" stroke="black" points="771.5,-224.5 771.5,-243.5 850.5,-243.5 850.5,-224.5 771.5,-224.5"/>
<text text-anchor="middle" x="811" y="-231.5" font-family="Helvetica,sans-Serif" font-size="10.00">IPlugStructs.h</text>
</a>
</g>
</g>
<!-- Node8&#45;&gt;Node14 -->
<g id="edge13" class="edge"><title>Node8&#45;&gt;Node14</title>
<path fill="none" stroke="midnightblue" d="M846.065,-280.083C840.071,-272.377 831.248,-261.033 823.952,-251.653"/>
<polygon fill="midnightblue" stroke="midnightblue" points="826.709,-249.496 817.806,-243.751 821.183,-253.793 826.709,-249.496"/>
</g>
<!-- Node17 -->
<g id="node17" class="node"><title>Node17</title>
<g id="a_node17"><a xlink:href="_i_plug_byte_chunk_8h_source.html" target="_top" xlink:title="IPlugByteChunk.h">
<polygon fill="white" stroke="black" points="575,-168.5 575,-187.5 671,-187.5 671,-168.5 575,-168.5"/>
<text text-anchor="middle" x="623" y="-175.5" font-family="Helvetica,sans-Serif" font-size="10.00">IPlugByteChunk.h</text>
</a>
</g>
</g>
<!-- Node8&#45;&gt;Node17 -->
<g id="edge25" class="edge"><title>Node8&#45;&gt;Node17</title>
<path fill="none" stroke="midnightblue" d="M835.72,-280.425C817.582,-271.409 788.248,-256.785 763,-244 745.622,-235.2 741.57,-232.411 724,-224 700.193,-212.602 672.822,-200.466 652.585,-191.673"/>
<polygon fill="midnightblue" stroke="midnightblue" points="653.837,-188.402 643.27,-187.643 651.058,-194.826 653.837,-188.402"/>
</g>
<!-- Node23 -->
<g id="node23" class="node"><title>Node23</title>
<g id="a_node23"><a xlink:href="_i_param_8h_source.html" target="_top" xlink:title="IParam.h">
<polygon fill="white" stroke="black" points="868,-224.5 868,-243.5 924,-243.5 924,-224.5 868,-224.5"/>
<text text-anchor="middle" x="896" y="-231.5" font-family="Helvetica,sans-Serif" font-size="10.00">IParam.h</text>
</a>
</g>
</g>
<!-- Node8&#45;&gt;Node23 -->
<g id="edge26" class="edge"><title>Node8&#45;&gt;Node23</title>
<path fill="none" stroke="midnightblue" d="M860.101,-280.083C866.237,-272.377 875.27,-261.033 882.739,-251.653"/>
<polygon fill="midnightblue" stroke="midnightblue" points="885.54,-253.754 889.032,-243.751 880.064,-249.394 885.54,-253.754"/>
</g>
<!-- Node24 -->
<g id="node24" class="node"><title>Node24</title>
<g id="a_node24"><a xlink:href="_hosts_8h.html" target="_top" xlink:title="API and host definitions. ">
<polygon fill="white" stroke="black" points="980.5,-224.5 980.5,-243.5 1031.5,-243.5 1031.5,-224.5 980.5,-224.5"/>
<text text-anchor="middle" x="1006" y="-231.5" font-family="Helvetica,sans-Serif" font-size="10.00">Hosts.h</text>
</a>
</g>
</g>
<!-- Node8&#45;&gt;Node24 -->
<g id="edge30" class="edge"><title>Node8&#45;&gt;Node24</title>
<path fill="none" stroke="midnightblue" d="M877.243,-280.444C902.871,-271.399 943.485,-257.064 972.238,-246.916"/>
<polygon fill="midnightblue" stroke="midnightblue" points="973.605,-250.145 981.87,-243.516 971.275,-243.544 973.605,-250.145"/>
</g>
<!-- Node26 -->
<g id="node26" class="node"><title>Node26</title>
<g id="a_node26"><a xlink:href="_log_8h_source.html" target="_top" xlink:title="Log.h">
<polygon fill="white" stroke="black" points="1062.5,-224.5 1062.5,-243.5 1103.5,-243.5 1103.5,-224.5 1062.5,-224.5"/>
<text text-anchor="middle" x="1083" y="-231.5" font-family="Helvetica,sans-Serif" font-size="10.00">Log.h</text>
</a>
</g>
</g>
<!-- Node8&#45;&gt;Node26 -->
<g id="edge33" class="edge"><title>Node8&#45;&gt;Node26</title>
<path fill="none" stroke="midnightblue" d="M888.182,-280.74C933.057,-270.204 1009.93,-252.157 1052.45,-242.172"/>
<polygon fill="midnightblue" stroke="midnightblue" points="1053.3,-245.568 1062.24,-239.875 1051.7,-238.753 1053.3,-245.568"/>
</g>
<!-- Node29 -->
<g id="node29" class="node"><title>Node29</title>
<g id="a_node29"><a xlink:href="_n_chan_delay_8h_source.html" target="_top" xlink:title="NChanDelay.h">
<polygon fill="white" stroke="black" points="1121.5,-224.5 1121.5,-243.5 1202.5,-243.5 1202.5,-224.5 1121.5,-224.5"/>
<text text-anchor="middle" x="1162" y="-231.5" font-family="Helvetica,sans-Serif" font-size="10.00">NChanDelay.h</text>
</a>
</g>
</g>
<!-- Node8&#45;&gt;Node29 -->
<g id="edge40" class="edge"><title>Node8&#45;&gt;Node29</title>
<path fill="none" stroke="midnightblue" d="M888.201,-282.954C936.187,-274.696 1025.09,-259.343 1111.38,-244.101"/>
<polygon fill="midnightblue" stroke="midnightblue" points="1112.11,-247.527 1121.34,-242.339 1110.89,-240.634 1112.11,-247.527"/>
</g>
<!-- Node13 -->
<g id="node13" class="node"><title>Node13</title>
<polygon fill="white" stroke="#bfbfbf" points="625.5,-0.5 625.5,-19.5 674.5,-19.5 674.5,-0.5 625.5,-0.5"/>
<text text-anchor="middle" x="650" y="-7.5" font-family="Helvetica,sans-Serif" font-size="10.00">stdint.h</text>
</g>
<!-- Node12&#45;&gt;Node13 -->
<g id="edge12" class="edge"><title>Node12&#45;&gt;Node13</title>
<path fill="none" stroke="midnightblue" d="M650,-56.083C650,-49.0059 650,-38.8611 650,-29.9865"/>
<polygon fill="midnightblue" stroke="midnightblue" points="653.5,-29.751 650,-19.7511 646.5,-29.7511 653.5,-29.751"/>
</g>
<!-- Node14&#45;&gt;Node12 -->
<g id="edge16" class="edge"><title>Node14&#45;&gt;Node12</title>
<path fill="none" stroke="midnightblue" d="M782.713,-224.405C762.765,-217.218 736.423,-205.326 718,-188 686.667,-158.532 665.969,-111.33 656.308,-85.4519"/>
<polygon fill="midnightblue" stroke="midnightblue" points="659.511,-84.0151 652.845,-75.7805 652.921,-86.3751 659.511,-84.0151"/>
</g>
<!-- Node15 -->
<g id="node15" class="node"><title>Node15</title>
<polygon fill="white" stroke="#bfbfbf" points="727,-168.5 727,-187.5 783,-187.5 783,-168.5 727,-168.5"/>
<text text-anchor="middle" x="755" y="-175.5" font-family="Helvetica,sans-Serif" font-size="10.00">algorithm</text>
</g>
<!-- Node14&#45;&gt;Node15 -->
<g id="edge14" class="edge"><title>Node14&#45;&gt;Node15</title>
<path fill="none" stroke="midnightblue" d="M802.003,-224.324C793.806,-216.42 781.494,-204.548 771.528,-194.938"/>
<polygon fill="midnightblue" stroke="midnightblue" points="773.789,-192.256 764.161,-187.834 768.93,-197.295 773.789,-192.256"/>
</g>
<!-- Node16 -->
<g id="node16" class="node"><title>Node16</title>
<polygon fill="white" stroke="#bfbfbf" points="877,-168.5 877,-187.5 941,-187.5 941,-168.5 877,-168.5"/>
<text text-anchor="middle" x="909" y="-175.5" font-family="Helvetica,sans-Serif" font-size="10.00">wdlstring.h</text>
</g>
<!-- Node14&#45;&gt;Node16 -->
<g id="edge15" class="edge"><title>Node14&#45;&gt;Node16</title>
<path fill="none" stroke="midnightblue" d="M826.745,-224.324C842.319,-215.743 866.377,-202.486 884.459,-192.522"/>
<polygon fill="midnightblue" stroke="midnightblue" points="886.224,-195.546 893.294,-187.655 882.846,-189.415 886.224,-195.546"/>
</g>
<!-- Node14&#45;&gt;Node17 -->
<g id="edge17" class="edge"><title>Node14&#45;&gt;Node17</title>
<path fill="none" stroke="midnightblue" d="M781.211,-224.444C749.171,-215.241 698.067,-200.562 662.647,-190.388"/>
<polygon fill="midnightblue" stroke="midnightblue" points="663.227,-186.913 652.65,-187.516 661.295,-193.641 663.227,-186.913"/>
</g>
<!-- Node21 -->
<g id="node21" class="node"><title>Node21</title>
<g id="a_node21"><a xlink:href="_i_plug_o_s_detect_8h.html" target="_top" xlink:title="Include to get consistently named preprocessor macros for different platforms. ">
<polygon fill="white" stroke="black" points="838.5,-56.5 838.5,-75.5 929.5,-75.5 929.5,-56.5 838.5,-56.5"/>
<text text-anchor="middle" x="884" y="-63.5" font-family="Helvetica,sans-Serif" font-size="10.00">IPlugOSDetect.h</text>
</a>
</g>
</g>
<!-- Node14&#45;&gt;Node21 -->
<g id="edge24" class="edge"><title>Node14&#45;&gt;Node21</title>
<path fill="none" stroke="midnightblue" d="M814.925,-224.075C826.465,-197.832 860.453,-120.545 876.033,-85.1165"/>
<polygon fill="midnightblue" stroke="midnightblue" points="879.41,-86.131 880.232,-75.5681 873.003,-83.3131 879.41,-86.131"/>
</g>
<!-- Node18 -->
<g id="node18" class="node"><title>Node18</title>
<g id="a_node18"><a xlink:href="_i_plug_utilities_8h.html" target="_top" xlink:title="Utility functions and macros. ">
<polygon fill="white" stroke="black" points="727,-112.5 727,-131.5 807,-131.5 807,-112.5 727,-112.5"/>
<text text-anchor="middle" x="767" y="-119.5" font-family="Helvetica,sans-Serif" font-size="10.00">IPlugUtilities.h</text>
</a>
</g>
</g>
<!-- Node17&#45;&gt;Node18 -->
<g id="edge18" class="edge"><title>Node17&#45;&gt;Node18</title>
<path fill="none" stroke="midnightblue" d="M645.817,-168.444C669.832,-159.438 707.829,-145.189 734.869,-135.049"/>
<polygon fill="midnightblue" stroke="midnightblue" points="736.155,-138.305 744.29,-131.516 733.697,-131.751 736.155,-138.305"/>
</g>
<!-- Node22 -->
<g id="node22" class="node"><title>Node22</title>
<polygon fill="white" stroke="#bfbfbf" points="589,-112.5 589,-131.5 657,-131.5 657,-112.5 589,-112.5"/>
<text text-anchor="middle" x="623" y="-119.5" font-family="Helvetica,sans-Serif" font-size="10.00">wdlendian.h</text>
</g>
<!-- Node17&#45;&gt;Node22 -->
<g id="edge23" class="edge"><title>Node17&#45;&gt;Node22</title>
<path fill="none" stroke="midnightblue" d="M623,-168.083C623,-161.006 623,-150.861 623,-141.986"/>
<polygon fill="midnightblue" stroke="midnightblue" points="626.5,-141.751 623,-131.751 619.5,-141.751 626.5,-141.751"/>
</g>
<!-- Node18&#45;&gt;Node12 -->
<g id="edge21" class="edge"><title>Node18&#45;&gt;Node12</title>
<path fill="none" stroke="midnightblue" d="M748.461,-112.444C729.377,-103.636 699.425,-89.8116 677.564,-79.722"/>
<polygon fill="midnightblue" stroke="midnightblue" points="678.999,-76.5292 668.452,-75.5164 676.065,-82.8849 678.999,-76.5292"/>
</g>
<!-- Node19 -->
<g id="node19" class="node"><title>Node19</title>
<polygon fill="white" stroke="#bfbfbf" points="776,-56.5 776,-75.5 820,-75.5 820,-56.5 776,-56.5"/>
<text text-anchor="middle" x="798" y="-63.5" font-family="Helvetica,sans-Serif" font-size="10.00">cmath</text>
</g>
<!-- Node18&#45;&gt;Node19 -->
<g id="edge19" class="edge"><title>Node18&#45;&gt;Node19</title>
<path fill="none" stroke="midnightblue" d="M772.119,-112.083C776.408,-104.613 782.658,-93.7244 787.942,-84.5199"/>
<polygon fill="midnightblue" stroke="midnightblue" points="791.033,-86.1662 792.976,-75.7511 784.962,-82.6811 791.033,-86.1662"/>
</g>
<!-- Node20 -->
<g id="node20" class="node"><title>Node20</title>
<polygon fill="white" stroke="#bfbfbf" points="714.5,-56.5 714.5,-75.5 757.5,-75.5 757.5,-56.5 714.5,-56.5"/>
<text text-anchor="middle" x="736" y="-63.5" font-family="Helvetica,sans-Serif" font-size="10.00">cstdio</text>
</g>
<!-- Node18&#45;&gt;Node20 -->
<g id="edge20" class="edge"><title>Node18&#45;&gt;Node20</title>
<path fill="none" stroke="midnightblue" d="M761.881,-112.083C757.592,-104.613 751.342,-93.7244 746.058,-84.5199"/>
<polygon fill="midnightblue" stroke="midnightblue" points="749.038,-82.6811 741.024,-75.7511 742.967,-86.1662 749.038,-82.6811"/>
</g>
<!-- Node18&#45;&gt;Node21 -->
<g id="edge22" class="edge"><title>Node18&#45;&gt;Node21</title>
<path fill="none" stroke="midnightblue" d="M785.539,-112.444C804.623,-103.636 834.575,-89.8116 856.436,-79.722"/>
<polygon fill="midnightblue" stroke="midnightblue" points="857.935,-82.8849 865.548,-75.5164 855.001,-76.5292 857.935,-82.8849"/>
</g>
<!-- Node23&#45;&gt;Node9 -->
<g id="edge27" class="edge"><title>Node23&#45;&gt;Node9</title>
<path fill="none" stroke="midnightblue" d="M909.817,-224.324C923.233,-215.9 943.824,-202.971 959.586,-193.074"/>
<polygon fill="midnightblue" stroke="midnightblue" points="961.609,-195.936 968.217,-187.655 957.887,-190.008 961.609,-195.936"/>
</g>
<!-- Node23&#45;&gt;Node16 -->
<g id="edge28" class="edge"><title>Node23&#45;&gt;Node16</title>
<path fill="none" stroke="midnightblue" d="M898.147,-224.083C899.869,-216.927 902.347,-206.635 904.5,-197.691"/>
<polygon fill="midnightblue" stroke="midnightblue" points="907.955,-198.293 906.893,-187.751 901.15,-196.654 907.955,-198.293"/>
</g>
<!-- Node23&#45;&gt;Node18 -->
<g id="edge29" class="edge"><title>Node23&#45;&gt;Node18</title>
<path fill="none" stroke="midnightblue" d="M885.878,-224.368C864.024,-205.733 812.188,-161.532 784.748,-138.134"/>
<polygon fill="midnightblue" stroke="midnightblue" points="786.956,-135.417 777.075,-131.591 782.414,-140.743 786.956,-135.417"/>
</g>
<!-- Node24&#45;&gt;Node9 -->
<g id="edge32" class="edge"><title>Node24&#45;&gt;Node9</title>
<path fill="none" stroke="midnightblue" d="M1002.04,-224.083C998.787,-216.77 994.081,-206.181 990.046,-197.103"/>
<polygon fill="midnightblue" stroke="midnightblue" points="993.149,-195.468 985.889,-187.751 986.752,-198.311 993.149,-195.468"/>
</g>
<!-- Node25 -->
<g id="node25" class="node"><title>Node25</title>
<polygon fill="white" stroke="#bfbfbf" points="1023.5,-168.5 1023.5,-187.5 1068.5,-187.5 1068.5,-168.5 1023.5,-168.5"/>
<text text-anchor="middle" x="1046" y="-175.5" font-family="Helvetica,sans-Serif" font-size="10.00">cstdlib</text>
</g>
<!-- Node24&#45;&gt;Node25 -->
<g id="edge31" class="edge"><title>Node24&#45;&gt;Node25</title>
<path fill="none" stroke="midnightblue" d="M1012.61,-224.083C1018.26,-216.455 1026.54,-205.264 1033.45,-195.941"/>
<polygon fill="midnightblue" stroke="midnightblue" points="1036.38,-197.87 1039.52,-187.751 1030.75,-193.703 1036.38,-197.87"/>
</g>
<!-- Node26&#45;&gt;Node9 -->
<g id="edge36" class="edge"><title>Node26&#45;&gt;Node9</title>
<path fill="none" stroke="midnightblue" d="M1066.77,-224.324C1050.65,-215.703 1025.7,-202.364 1007.04,-192.386"/>
<polygon fill="midnightblue" stroke="midnightblue" points="1008.66,-189.283 998.187,-187.655 1005.36,-195.456 1008.66,-189.283"/>
</g>
<!-- Node26&#45;&gt;Node16 -->
<g id="edge37" class="edge"><title>Node26&#45;&gt;Node16</title>
<path fill="none" stroke="midnightblue" d="M1062.36,-226.593C1033.84,-217.745 981.92,-201.63 946.462,-190.626"/>
<polygon fill="midnightblue" stroke="midnightblue" points="947.069,-187.15 936.481,-187.529 944.994,-193.835 947.069,-187.15"/>
</g>
<!-- Node26&#45;&gt;Node18 -->
<g id="edge38" class="edge"><title>Node26&#45;&gt;Node18</title>
<path fill="none" stroke="midnightblue" d="M1085.25,-224.056C1088.17,-210.086 1091.36,-183.124 1077,-168 1042.38,-131.525 895.983,-124.266 817.385,-123.046"/>
<polygon fill="midnightblue" stroke="midnightblue" points="817.269,-119.544 807.225,-122.916 817.179,-126.544 817.269,-119.544"/>
</g>
<!-- Node26&#45;&gt;Node21 -->
<g id="edge39" class="edge"><title>Node26&#45;&gt;Node21</title>
<path fill="none" stroke="midnightblue" d="M1103.63,-226.719C1106.77,-225.792 1109.97,-224.86 1113,-224 1175.5,-206.297 1287.31,-219.709 1248,-168 1210.7,-118.938 1031.96,-87.4749 939.574,-74.2151"/>
<polygon fill="midnightblue" stroke="midnightblue" points="939.952,-70.7338 929.56,-72.8007 938.972,-77.665 939.952,-70.7338"/>
</g>
<!-- Node27 -->
<g id="node27" class="node"><title>Node27</title>
<polygon fill="white" stroke="#bfbfbf" points="1125.5,-168.5 1125.5,-187.5 1174.5,-187.5 1174.5,-168.5 1125.5,-168.5"/>
<text text-anchor="middle" x="1150" y="-175.5" font-family="Helvetica,sans-Serif" font-size="10.00">cstdarg</text>
</g>
<!-- Node26&#45;&gt;Node27 -->
<g id="edge34" class="edge"><title>Node26&#45;&gt;Node27</title>
<path fill="none" stroke="midnightblue" d="M1093.76,-224.324C1103.77,-216.263 1118.89,-204.077 1130.93,-194.369"/>
<polygon fill="midnightblue" stroke="midnightblue" points="1133.45,-196.834 1139.04,-187.834 1129.06,-191.384 1133.45,-196.834"/>
</g>
<!-- Node28 -->
<g id="node28" class="node"><title>Node28</title>
<polygon fill="white" stroke="#bfbfbf" points="1193,-168.5 1193,-187.5 1239,-187.5 1239,-168.5 1193,-168.5"/>
<text text-anchor="middle" x="1216" y="-175.5" font-family="Helvetica,sans-Serif" font-size="10.00">cstdint</text>
</g>
<!-- Node26&#45;&gt;Node28 -->
<g id="edge35" class="edge"><title>Node26&#45;&gt;Node28</title>
<path fill="none" stroke="midnightblue" d="M1103.78,-224.562C1125.71,-215.659 1160.5,-201.536 1185.53,-191.373"/>
<polygon fill="midnightblue" stroke="midnightblue" points="1186.98,-194.561 1194.93,-187.556 1184.34,-188.076 1186.98,-194.561"/>
</g>
</g>
</svg>
