<?xml version="1.0" encoding="UTF-8" standalone="no"?>
<!DOCTYPE svg PUBLIC "-//W3C//DTD SVG 1.1//EN"
 "http://www.w3.org/Graphics/SVG/1.1/DTD/svg11.dtd">
<!-- Generated by graphviz version 2.36.0 (20140111.2315)
 -->
<!-- Title: IPlugVST3.h Pages: 1 -->
<!--zoomable 432 -->
<svg id="main" version="1.1" xmlns="http://www.w3.org/2000/svg" xmlns:xlink="http://www.w3.org/1999/xlink" xml:space="preserve" onload="init(evt)">
<style type="text/css"><![CDATA[
.edge:hover path { stroke: red; }
.edge:hover polygon { stroke: red; fill: red; }
]]></style>
<script type="text/javascript"><![CDATA[
var edges = document.getElementsByTagName('g');
if (edges && edges.length) {
  for (var i=0;i<edges.length;i++) {
    if (edges[i].id.substr(0,4)=='edge') {
      edges[i].setAttribute('class','edge');
    }
  }
}
]]></script>
        <defs>
                <circle id="rim" cx="0" cy="0" r="7"/>
                <circle id="rim2" cx="0" cy="0" r="3.5"/>
                <g id="zoomPlus">
                        <use xlink:href="#rim" fill="#404040">
                                <set attributeName="fill" to="#808080" begin="zoomplus.mouseover" end="zoomplus.mouseout"/>
                        </use>
                        <path d="M-4,0h8M0,-4v8" fill="none" stroke="white" stroke-width="1.5" pointer-events="none"/>
                </g>
                <g id="zoomMin">
                        <use xlink:href="#rim" fill="#404040">
                                <set attributeName="fill" to="#808080" begin="zoomminus.mouseover" end="zoomminus.mouseout"/>
                        </use>
                        <path d="M-4,0h8" fill="none" stroke="white" stroke-width="1.5" pointer-events="none"/>
                </g>
                <g id="dirArrow">
                        <path fill="none" stroke="white" stroke-width="1.5" d="M0,-3.0v7 M-2.5,-0.5L0,-3.0L2.5,-0.5"/>
                </g>
               <g id="resetDef">
                       <use xlink:href="#rim2" fill="#404040">
                               <set attributeName="fill" to="#808080" begin="reset.mouseover" end="reset.mouseout"/>
                       </use>
               </g>
        </defs>

<script type="text/javascript">
var viewWidth = 878;
var viewHeight = 432;
var sectionId = 'dynsection-0';
</script>
<script xlink:href="svgpan.js"/>
<svg id="graph" class="graph">
<g id="viewport">
<title>IPlugVST3.h</title>
<polygon fill="white" stroke="none" points="-4,4 -4,-428 874.426,-428 874.426,4 -4,4"/>
<!-- Node1 -->
<g id="node1" class="node"><title>Node1</title>
<polygon fill="#bfbfbf" stroke="black" points="477.426,-404.5 477.426,-423.5 549.426,-423.5 549.426,-404.5 477.426,-404.5"/>
<text text-anchor="middle" x="513.426" y="-411.5" font-family="Helvetica,sans-Serif" font-size="10.00">IPlugVST3.h</text>
</g>
<!-- Node2 -->
<g id="node2" class="node"><title>Node2</title>
<polygon fill="white" stroke="#bfbfbf" points="182.426,-342.5 182.426,-361.5 226.426,-361.5 226.426,-342.5 182.426,-342.5"/>
<text text-anchor="middle" x="204.426" y="-349.5" font-family="Helvetica,sans-Serif" font-size="10.00">vector</text>
</g>
<!-- Node1&#45;&gt;Node2 -->
<g id="edge1" class="edge"><title>Node1&#45;&gt;Node2</title>
<path fill="none" stroke="midnightblue" d="M477.282,-410.341C423.692,-405.685 320.447,-393.962 236.426,-368 234.151,-367.297 231.83,-366.462 229.529,-365.552"/>
<polygon fill="midnightblue" stroke="midnightblue" points="230.921,-362.341 220.358,-361.529 228.109,-368.751 230.921,-362.341"/>
</g>
<!-- Node3 -->
<g id="node3" class="node"><title>Node3</title>
<g id="a_node3"><a xlink:href="_i_plug_base_graphics_8h.html" target="_top" xlink:title="An IPlugBase class for an IPlug plug&#45;in that uses IGraphics for it&#39;s UI. ">
<polygon fill="white" stroke="black" points="244.926,-342.5 244.926,-361.5 353.926,-361.5 353.926,-342.5 244.926,-342.5"/>
<text text-anchor="middle" x="299.426" y="-349.5" font-family="Helvetica,sans-Serif" font-size="10.00">IPlugBaseGraphics.h</text>
</a>
</g>
</g>
<!-- Node1&#45;&gt;Node3 -->
<g id="edge2" class="edge"><title>Node1&#45;&gt;Node3</title>
<path fill="none" stroke="midnightblue" d="M482.765,-404.403C445.182,-393.866 381.382,-375.978 339.828,-364.328"/>
<polygon fill="midnightblue" stroke="midnightblue" points="340.604,-360.91 330.03,-361.581 338.714,-367.65 340.604,-360.91"/>
</g>
<!-- Node26 -->
<g id="node26" class="node"><title>Node26</title>
<polygon fill="white" stroke="#bfbfbf" points="372.426,-337 372.426,-367 512.426,-367 512.426,-337 372.426,-337"/>
<text text-anchor="start" x="380.426" y="-355" font-family="Helvetica,sans-Serif" font-size="10.00">public.sdk/source/vst</text>
<text text-anchor="middle" x="442.426" y="-344" font-family="Helvetica,sans-Serif" font-size="10.00">/vstsinglecomponenteffect.h</text>
</g>
<!-- Node1&#45;&gt;Node26 -->
<g id="edge37" class="edge"><title>Node1&#45;&gt;Node26</title>
<path fill="none" stroke="midnightblue" d="M503.253,-404.403C493.817,-396.429 479.399,-384.245 466.969,-373.74"/>
<polygon fill="midnightblue" stroke="midnightblue" points="469.056,-370.922 459.159,-367.141 464.538,-376.269 469.056,-370.922"/>
</g>
<!-- Node27 -->
<g id="node27" class="node"><title>Node27</title>
<polygon fill="white" stroke="#bfbfbf" points="530.426,-337 530.426,-367 640.426,-367 640.426,-337 530.426,-337"/>
<text text-anchor="start" x="538.426" y="-355" font-family="Helvetica,sans-Serif" font-size="10.00">pluginterfaces/vst</text>
<text text-anchor="middle" x="585.426" y="-344" font-family="Helvetica,sans-Serif" font-size="10.00">/ivstprocesscontext.h</text>
</g>
<!-- Node1&#45;&gt;Node27 -->
<g id="edge38" class="edge"><title>Node1&#45;&gt;Node27</title>
<path fill="none" stroke="midnightblue" d="M523.742,-404.403C533.311,-396.429 547.932,-384.245 560.537,-373.74"/>
<polygon fill="midnightblue" stroke="midnightblue" points="563.015,-376.231 568.457,-367.141 558.534,-370.854 563.015,-376.231"/>
</g>
<!-- Node28 -->
<g id="node28" class="node"><title>Node28</title>
<polygon fill="white" stroke="#bfbfbf" points="658.426,-337 658.426,-367 752.426,-367 752.426,-337 658.426,-337"/>
<text text-anchor="start" x="666.426" y="-355" font-family="Helvetica,sans-Serif" font-size="10.00">pluginterfaces/vst</text>
<text text-anchor="middle" x="705.426" y="-344" font-family="Helvetica,sans-Serif" font-size="10.00">/vsttypes.h</text>
</g>
<!-- Node1&#45;&gt;Node28 -->
<g id="edge39" class="edge"><title>Node1&#45;&gt;Node28</title>
<path fill="none" stroke="midnightblue" d="M540.935,-404.403C569.464,-395.488 614.831,-381.311 650.701,-370.101"/>
<polygon fill="midnightblue" stroke="midnightblue" points="652.044,-373.349 660.545,-367.025 649.956,-366.667 652.044,-373.349"/>
</g>
<!-- Node29 -->
<g id="node29" class="node"><title>Node29</title>
<polygon fill="white" stroke="#bfbfbf" points="770.426,-337 770.426,-367 870.426,-367 870.426,-337 770.426,-337"/>
<text text-anchor="start" x="778.426" y="-355" font-family="Helvetica,sans-Serif" font-size="10.00">pluginterfaces/vst</text>
<text text-anchor="middle" x="820.426" y="-344" font-family="Helvetica,sans-Serif" font-size="10.00">/ivstcontextmenu.h</text>
</g>
<!-- Node1&#45;&gt;Node29 -->
<g id="edge40" class="edge"><title>Node1&#45;&gt;Node29</title>
<path fill="none" stroke="midnightblue" d="M549.725,-407.225C596.291,-399.639 679.752,-385.445 760.446,-368.131"/>
<polygon fill="midnightblue" stroke="midnightblue" points="761.237,-371.54 770.27,-366.004 759.756,-364.699 761.237,-371.54"/>
</g>
<!-- Node4 -->
<g id="node4" class="node"><title>Node4</title>
<g id="a_node4"><a xlink:href="_i_plug_base_8h.html" target="_top" xlink:title="The lowest level base class of an IPlug plug&#45;in. ">
<polygon fill="white" stroke="black" points="264.426,-280.5 264.426,-299.5 334.426,-299.5 334.426,-280.5 264.426,-280.5"/>
<text text-anchor="middle" x="299.426" y="-287.5" font-family="Helvetica,sans-Serif" font-size="10.00">IPlugBase.h</text>
</a>
</g>
</g>
<!-- Node3&#45;&gt;Node4 -->
<g id="edge3" class="edge"><title>Node3&#45;&gt;Node4</title>
<path fill="none" stroke="midnightblue" d="M299.426,-342.403C299.426,-333.938 299.426,-320.728 299.426,-309.82"/>
<polygon fill="midnightblue" stroke="midnightblue" points="302.926,-309.581 299.426,-299.581 295.926,-309.581 302.926,-309.581"/>
</g>
<!-- Node5 -->
<g id="node5" class="node"><title>Node5</title>
<polygon fill="white" stroke="#bfbfbf" points="405.426,-168.5 405.426,-187.5 451.426,-187.5 451.426,-168.5 405.426,-168.5"/>
<text text-anchor="middle" x="428.426" y="-175.5" font-family="Helvetica,sans-Serif" font-size="10.00">cstring</text>
</g>
<!-- Node4&#45;&gt;Node5 -->
<g id="edge4" class="edge"><title>Node4&#45;&gt;Node5</title>
<path fill="none" stroke="midnightblue" d="M319.322,-280.399C336.196,-272.496 360.451,-259.652 378.426,-244 394.303,-230.174 408.521,-210.633 417.699,-196.592"/>
<polygon fill="midnightblue" stroke="midnightblue" points="420.817,-198.21 423.206,-187.888 414.901,-194.467 420.817,-198.21"/>
</g>
<!-- Node6 -->
<g id="node6" class="node"><title>Node6</title>
<polygon fill="white" stroke="#bfbfbf" points="41.9258,-224.5 41.9258,-243.5 90.9258,-243.5 90.9258,-224.5 41.9258,-224.5"/>
<text text-anchor="middle" x="66.4258" y="-231.5" font-family="Helvetica,sans-Serif" font-size="10.00">ptrlist.h</text>
</g>
<!-- Node4&#45;&gt;Node6 -->
<g id="edge5" class="edge"><title>Node4&#45;&gt;Node6</title>
<path fill="none" stroke="midnightblue" d="M264.107,-281.42C226.276,-273.211 164.238,-259.493 101.374,-244.164"/>
<polygon fill="midnightblue" stroke="midnightblue" points="101.827,-240.672 91.2816,-241.691 100.161,-247.471 101.827,-240.672"/>
</g>
<!-- Node7 -->
<g id="node7" class="node"><title>Node7</title>
<polygon fill="white" stroke="#bfbfbf" points="109.426,-224.5 109.426,-243.5 161.426,-243.5 161.426,-224.5 109.426,-224.5"/>
<text text-anchor="middle" x="135.426" y="-231.5" font-family="Helvetica,sans-Serif" font-size="10.00">mutex.h</text>
</g>
<!-- Node4&#45;&gt;Node7 -->
<g id="edge6" class="edge"><title>Node4&#45;&gt;Node7</title>
<path fill="none" stroke="midnightblue" d="M273.44,-280.444C245.73,-271.32 201.674,-256.813 170.81,-246.651"/>
<polygon fill="midnightblue" stroke="midnightblue" points="171.884,-243.32 161.291,-243.516 169.694,-249.968 171.884,-243.32"/>
</g>
<!-- Node8 -->
<g id="node8" class="node"><title>Node8</title>
<g id="a_node8"><a xlink:href="_i_plug_constants_8h.html" target="_top" xlink:title="Constant definitions, magic numbers. ">
<polygon fill="white" stroke="black" points="50.4258,-56.5 50.4258,-75.5 142.426,-75.5 142.426,-56.5 50.4258,-56.5"/>
<text text-anchor="middle" x="96.4258" y="-63.5" font-family="Helvetica,sans-Serif" font-size="10.00">IPlugConstants.h</text>
</a>
</g>
</g>
<!-- Node4&#45;&gt;Node8 -->
<g id="edge7" class="edge"><title>Node4&#45;&gt;Node8</title>
<path fill="none" stroke="midnightblue" d="M264.366,-287.334C200.392,-283.62 68.1091,-272.614 33.4258,-244 -11.8914,-206.613 -7.81546,-159.739 26.4258,-112 36.2778,-98.2645 51.7459,-87.6847 65.6387,-80.245"/>
<polygon fill="midnightblue" stroke="midnightblue" points="67.5444,-83.205 74.9168,-75.5959 64.4084,-76.9467 67.5444,-83.205"/>
</g>
<!-- Node10 -->
<g id="node10" class="node"><title>Node10</title>
<g id="a_node10"><a xlink:href="_i_plug_structs_8h_source.html" target="_top" xlink:title="IPlugStructs.h">
<polygon fill="white" stroke="black" points="217.926,-224.5 217.926,-243.5 296.926,-243.5 296.926,-224.5 217.926,-224.5"/>
<text text-anchor="middle" x="257.426" y="-231.5" font-family="Helvetica,sans-Serif" font-size="10.00">IPlugStructs.h</text>
</a>
</g>
</g>
<!-- Node4&#45;&gt;Node10 -->
<g id="edge9" class="edge"><title>Node4&#45;&gt;Node10</title>
<path fill="none" stroke="midnightblue" d="M292.49,-280.083C286.497,-272.377 277.674,-261.033 270.378,-251.653"/>
<polygon fill="midnightblue" stroke="midnightblue" points="273.134,-249.496 264.232,-243.751 267.609,-253.793 273.134,-249.496"/>
</g>
<!-- Node13 -->
<g id="node13" class="node"><title>Node13</title>
<g id="a_node13"><a xlink:href="_i_plug_byte_chunk_8h_source.html" target="_top" xlink:title="IPlugByteChunk.h">
<polygon fill="white" stroke="black" points="21.4258,-168.5 21.4258,-187.5 117.426,-187.5 117.426,-168.5 21.4258,-168.5"/>
<text text-anchor="middle" x="69.4258" y="-175.5" font-family="Helvetica,sans-Serif" font-size="10.00">IPlugByteChunk.h</text>
</a>
</g>
</g>
<!-- Node4&#45;&gt;Node13 -->
<g id="edge21" class="edge"><title>Node4&#45;&gt;Node13</title>
<path fill="none" stroke="midnightblue" d="M282.146,-280.425C264.008,-271.409 234.673,-256.785 209.426,-244 192.047,-235.2 187.996,-232.411 170.426,-224 146.618,-212.602 119.248,-200.466 99.0106,-191.673"/>
<polygon fill="midnightblue" stroke="midnightblue" points="100.263,-188.402 89.6956,-187.643 97.4836,-194.826 100.263,-188.402"/>
</g>
<!-- Node19 -->
<g id="node19" class="node"><title>Node19</title>
<g id="a_node19"><a xlink:href="_i_param_8h_source.html" target="_top" xlink:title="IParam.h">
<polygon fill="white" stroke="black" points="314.426,-224.5 314.426,-243.5 370.426,-243.5 370.426,-224.5 314.426,-224.5"/>
<text text-anchor="middle" x="342.426" y="-231.5" font-family="Helvetica,sans-Serif" font-size="10.00">IParam.h</text>
</a>
</g>
</g>
<!-- Node4&#45;&gt;Node19 -->
<g id="edge22" class="edge"><title>Node4&#45;&gt;Node19</title>
<path fill="none" stroke="midnightblue" d="M306.526,-280.083C312.663,-272.377 321.696,-261.033 329.165,-251.653"/>
<polygon fill="midnightblue" stroke="midnightblue" points="331.966,-253.754 335.457,-243.751 326.49,-249.394 331.966,-253.754"/>
</g>
<!-- Node20 -->
<g id="node20" class="node"><title>Node20</title>
<g id="a_node20"><a xlink:href="_hosts_8h.html" target="_top" xlink:title="API and host definitions. ">
<polygon fill="white" stroke="black" points="426.926,-224.5 426.926,-243.5 477.926,-243.5 477.926,-224.5 426.926,-224.5"/>
<text text-anchor="middle" x="452.426" y="-231.5" font-family="Helvetica,sans-Serif" font-size="10.00">Hosts.h</text>
</a>
</g>
</g>
<!-- Node4&#45;&gt;Node20 -->
<g id="edge26" class="edge"><title>Node4&#45;&gt;Node20</title>
<path fill="none" stroke="midnightblue" d="M323.669,-280.444C349.296,-271.399 389.911,-257.064 418.664,-246.916"/>
<polygon fill="midnightblue" stroke="midnightblue" points="420.031,-250.145 428.296,-243.516 417.701,-243.544 420.031,-250.145"/>
</g>
<!-- Node22 -->
<g id="node22" class="node"><title>Node22</title>
<g id="a_node22"><a xlink:href="_log_8h_source.html" target="_top" xlink:title="Log.h">
<polygon fill="white" stroke="black" points="508.926,-224.5 508.926,-243.5 549.926,-243.5 549.926,-224.5 508.926,-224.5"/>
<text text-anchor="middle" x="529.426" y="-231.5" font-family="Helvetica,sans-Serif" font-size="10.00">Log.h</text>
</a>
</g>
</g>
<!-- Node4&#45;&gt;Node22 -->
<g id="edge29" class="edge"><title>Node4&#45;&gt;Node22</title>
<path fill="none" stroke="midnightblue" d="M334.608,-280.74C379.482,-270.204 456.352,-252.157 498.88,-242.172"/>
<polygon fill="midnightblue" stroke="midnightblue" points="499.727,-245.568 508.662,-239.875 498.127,-238.753 499.727,-245.568"/>
</g>
<!-- Node25 -->
<g id="node25" class="node"><title>Node25</title>
<g id="a_node25"><a xlink:href="_n_chan_delay_8h_source.html" target="_top" xlink:title="NChanDelay.h">
<polygon fill="white" stroke="black" points="567.926,-224.5 567.926,-243.5 648.926,-243.5 648.926,-224.5 567.926,-224.5"/>
<text text-anchor="middle" x="608.426" y="-231.5" font-family="Helvetica,sans-Serif" font-size="10.00">NChanDelay.h</text>
</a>
</g>
</g>
<!-- Node4&#45;&gt;Node25 -->
<g id="edge36" class="edge"><title>Node4&#45;&gt;Node25</title>
<path fill="none" stroke="midnightblue" d="M334.627,-282.954C382.613,-274.696 471.517,-259.343 557.808,-244.101"/>
<polygon fill="midnightblue" stroke="midnightblue" points="558.533,-247.527 567.77,-242.339 557.314,-240.634 558.533,-247.527"/>
</g>
<!-- Node9 -->
<g id="node9" class="node"><title>Node9</title>
<polygon fill="white" stroke="#bfbfbf" points="71.9258,-0.5 71.9258,-19.5 120.926,-19.5 120.926,-0.5 71.9258,-0.5"/>
<text text-anchor="middle" x="96.4258" y="-7.5" font-family="Helvetica,sans-Serif" font-size="10.00">stdint.h</text>
</g>
<!-- Node8&#45;&gt;Node9 -->
<g id="edge8" class="edge"><title>Node8&#45;&gt;Node9</title>
<path fill="none" stroke="midnightblue" d="M96.4258,-56.083C96.4258,-49.0059 96.4258,-38.8611 96.4258,-29.9865"/>
<polygon fill="midnightblue" stroke="midnightblue" points="99.9259,-29.751 96.4258,-19.7511 92.9259,-29.7511 99.9259,-29.751"/>
</g>
<!-- Node10&#45;&gt;Node8 -->
<g id="edge12" class="edge"><title>Node10&#45;&gt;Node8</title>
<path fill="none" stroke="midnightblue" d="M229.139,-224.405C209.19,-217.218 182.849,-205.326 164.426,-188 133.093,-158.532 112.394,-111.33 102.734,-85.4519"/>
<polygon fill="midnightblue" stroke="midnightblue" points="105.937,-84.0151 99.2706,-75.7805 99.3469,-86.3751 105.937,-84.0151"/>
</g>
<!-- Node11 -->
<g id="node11" class="node"><title>Node11</title>
<polygon fill="white" stroke="#bfbfbf" points="173.426,-168.5 173.426,-187.5 229.426,-187.5 229.426,-168.5 173.426,-168.5"/>
<text text-anchor="middle" x="201.426" y="-175.5" font-family="Helvetica,sans-Serif" font-size="10.00">algorithm</text>
</g>
<!-- Node10&#45;&gt;Node11 -->
<g id="edge10" class="edge"><title>Node10&#45;&gt;Node11</title>
<path fill="none" stroke="midnightblue" d="M248.428,-224.324C240.231,-216.42 227.92,-204.548 217.954,-194.938"/>
<polygon fill="midnightblue" stroke="midnightblue" points="220.215,-192.256 210.587,-187.834 215.356,-197.295 220.215,-192.256"/>
</g>
<!-- Node12 -->
<g id="node12" class="node"><title>Node12</title>
<polygon fill="white" stroke="#bfbfbf" points="323.426,-168.5 323.426,-187.5 387.426,-187.5 387.426,-168.5 323.426,-168.5"/>
<text text-anchor="middle" x="355.426" y="-175.5" font-family="Helvetica,sans-Serif" font-size="10.00">wdlstring.h</text>
</g>
<!-- Node10&#45;&gt;Node12 -->
<g id="edge11" class="edge"><title>Node10&#45;&gt;Node12</title>
<path fill="none" stroke="midnightblue" d="M273.171,-224.324C288.744,-215.743 312.803,-202.486 330.885,-192.522"/>
<polygon fill="midnightblue" stroke="midnightblue" points="332.65,-195.546 339.72,-187.655 329.272,-189.415 332.65,-195.546"/>
</g>
<!-- Node10&#45;&gt;Node13 -->
<g id="edge13" class="edge"><title>Node10&#45;&gt;Node13</title>
<path fill="none" stroke="midnightblue" d="M227.637,-224.444C195.597,-215.241 144.492,-200.562 109.073,-190.388"/>
<polygon fill="midnightblue" stroke="midnightblue" points="109.653,-186.913 99.0756,-187.516 107.721,-193.641 109.653,-186.913"/>
</g>
<!-- Node17 -->
<g id="node17" class="node"><title>Node17</title>
<g id="a_node17"><a xlink:href="_i_plug_o_s_detect_8h.html" target="_top" xlink:title="Include to get consistently named preprocessor macros for different platforms. ">
<polygon fill="white" stroke="black" points="284.926,-56.5 284.926,-75.5 375.926,-75.5 375.926,-56.5 284.926,-56.5"/>
<text text-anchor="middle" x="330.426" y="-63.5" font-family="Helvetica,sans-Serif" font-size="10.00">IPlugOSDetect.h</text>
</a>
</g>
</g>
<!-- Node10&#45;&gt;Node17 -->
<g id="edge20" class="edge"><title>Node10&#45;&gt;Node17</title>
<path fill="none" stroke="midnightblue" d="M261.351,-224.075C272.891,-197.832 306.879,-120.545 322.459,-85.1165"/>
<polygon fill="midnightblue" stroke="midnightblue" points="325.836,-86.131 326.658,-75.5681 319.428,-83.3131 325.836,-86.131"/>
</g>
<!-- Node14 -->
<g id="node14" class="node"><title>Node14</title>
<g id="a_node14"><a xlink:href="_i_plug_utilities_8h.html" target="_top" xlink:title="Utility functions and macros. ">
<polygon fill="white" stroke="black" points="173.426,-112.5 173.426,-131.5 253.426,-131.5 253.426,-112.5 173.426,-112.5"/>
<text text-anchor="middle" x="213.426" y="-119.5" font-family="Helvetica,sans-Serif" font-size="10.00">IPlugUtilities.h</text>
</a>
</g>
</g>
<!-- Node13&#45;&gt;Node14 -->
<g id="edge14" class="edge"><title>Node13&#45;&gt;Node14</title>
<path fill="none" stroke="midnightblue" d="M92.2431,-168.444C116.258,-159.438 154.255,-145.189 181.295,-135.049"/>
<polygon fill="midnightblue" stroke="midnightblue" points="182.581,-138.305 190.715,-131.516 180.123,-131.751 182.581,-138.305"/>
</g>
<!-- Node18 -->
<g id="node18" class="node"><title>Node18</title>
<polygon fill="white" stroke="#bfbfbf" points="35.4258,-112.5 35.4258,-131.5 103.426,-131.5 103.426,-112.5 35.4258,-112.5"/>
<text text-anchor="middle" x="69.4258" y="-119.5" font-family="Helvetica,sans-Serif" font-size="10.00">wdlendian.h</text>
</g>
<!-- Node13&#45;&gt;Node18 -->
<g id="edge19" class="edge"><title>Node13&#45;&gt;Node18</title>
<path fill="none" stroke="midnightblue" d="M69.4258,-168.083C69.4258,-161.006 69.4258,-150.861 69.4258,-141.986"/>
<polygon fill="midnightblue" stroke="midnightblue" points="72.9259,-141.751 69.4258,-131.751 65.9259,-141.751 72.9259,-141.751"/>
</g>
<!-- Node14&#45;&gt;Node8 -->
<g id="edge17" class="edge"><title>Node14&#45;&gt;Node8</title>
<path fill="none" stroke="midnightblue" d="M194.887,-112.444C175.803,-103.636 145.851,-89.8116 123.99,-79.722"/>
<polygon fill="midnightblue" stroke="midnightblue" points="125.424,-76.5292 114.878,-75.5164 122.491,-82.8849 125.424,-76.5292"/>
</g>
<!-- Node15 -->
<g id="node15" class="node"><title>Node15</title>
<polygon fill="white" stroke="#bfbfbf" points="222.426,-56.5 222.426,-75.5 266.426,-75.5 266.426,-56.5 222.426,-56.5"/>
<text text-anchor="middle" x="244.426" y="-63.5" font-family="Helvetica,sans-Serif" font-size="10.00">cmath</text>
</g>
<!-- Node14&#45;&gt;Node15 -->
<g id="edge15" class="edge"><title>Node14&#45;&gt;Node15</title>
<path fill="none" stroke="midnightblue" d="M218.545,-112.083C222.833,-104.613 229.084,-93.7244 234.368,-84.5199"/>
<polygon fill="midnightblue" stroke="midnightblue" points="237.459,-86.1662 239.402,-75.7511 231.388,-82.6811 237.459,-86.1662"/>
</g>
<!-- Node16 -->
<g id="node16" class="node"><title>Node16</title>
<polygon fill="white" stroke="#bfbfbf" points="160.926,-56.5 160.926,-75.5 203.926,-75.5 203.926,-56.5 160.926,-56.5"/>
<text text-anchor="middle" x="182.426" y="-63.5" font-family="Helvetica,sans-Serif" font-size="10.00">cstdio</text>
</g>
<!-- Node14&#45;&gt;Node16 -->
<g id="edge16" class="edge"><title>Node14&#45;&gt;Node16</title>
<path fill="none" stroke="midnightblue" d="M208.307,-112.083C204.018,-104.613 197.768,-93.7244 192.484,-84.5199"/>
<polygon fill="midnightblue" stroke="midnightblue" points="195.464,-82.6811 187.45,-75.7511 189.393,-86.1662 195.464,-82.6811"/>
</g>
<!-- Node14&#45;&gt;Node17 -->
<g id="edge18" class="edge"><title>Node14&#45;&gt;Node17</title>
<path fill="none" stroke="midnightblue" d="M231.965,-112.444C251.049,-103.636 281.001,-89.8116 302.862,-79.722"/>
<polygon fill="midnightblue" stroke="midnightblue" points="304.361,-82.8849 311.974,-75.5164 301.427,-76.5292 304.361,-82.8849"/>
</g>
<!-- Node19&#45;&gt;Node5 -->
<g id="edge23" class="edge"><title>Node19&#45;&gt;Node5</title>
<path fill="none" stroke="midnightblue" d="M356.243,-224.324C369.659,-215.9 390.25,-202.971 406.011,-193.074"/>
<polygon fill="midnightblue" stroke="midnightblue" points="408.035,-195.936 414.643,-187.655 404.313,-190.008 408.035,-195.936"/>
</g>
<!-- Node19&#45;&gt;Node12 -->
<g id="edge24" class="edge"><title>Node19&#45;&gt;Node12</title>
<path fill="none" stroke="midnightblue" d="M344.573,-224.083C346.295,-216.927 348.773,-206.635 350.926,-197.691"/>
<polygon fill="midnightblue" stroke="midnightblue" points="354.381,-198.293 353.319,-187.751 347.576,-196.654 354.381,-198.293"/>
</g>
<!-- Node19&#45;&gt;Node14 -->
<g id="edge25" class="edge"><title>Node19&#45;&gt;Node14</title>
<path fill="none" stroke="midnightblue" d="M332.303,-224.368C310.45,-205.733 258.614,-161.532 231.174,-138.134"/>
<polygon fill="midnightblue" stroke="midnightblue" points="233.381,-135.417 223.501,-131.591 228.839,-140.743 233.381,-135.417"/>
</g>
<!-- Node20&#45;&gt;Node5 -->
<g id="edge28" class="edge"><title>Node20&#45;&gt;Node5</title>
<path fill="none" stroke="midnightblue" d="M448.463,-224.083C445.212,-216.77 440.506,-206.181 436.472,-197.103"/>
<polygon fill="midnightblue" stroke="midnightblue" points="439.575,-195.468 432.315,-187.751 433.178,-198.311 439.575,-195.468"/>
</g>
<!-- Node21 -->
<g id="node21" class="node"><title>Node21</title>
<polygon fill="white" stroke="#bfbfbf" points="469.926,-168.5 469.926,-187.5 514.926,-187.5 514.926,-168.5 469.926,-168.5"/>
<text text-anchor="middle" x="492.426" y="-175.5" font-family="Helvetica,sans-Serif" font-size="10.00">cstdlib</text>
</g>
<!-- Node20&#45;&gt;Node21 -->
<g id="edge27" class="edge"><title>Node20&#45;&gt;Node21</title>
<path fill="none" stroke="midnightblue" d="M459.031,-224.083C464.681,-216.455 472.971,-205.264 479.877,-195.941"/>
<polygon fill="midnightblue" stroke="midnightblue" points="482.804,-197.87 485.944,-187.751 477.179,-193.703 482.804,-197.87"/>
</g>
<!-- Node22&#45;&gt;Node5 -->
<g id="edge32" class="edge"><title>Node22&#45;&gt;Node5</title>
<path fill="none" stroke="midnightblue" d="M513.198,-224.324C497.075,-215.703 472.126,-202.364 453.462,-192.386"/>
<polygon fill="midnightblue" stroke="midnightblue" points="455.082,-189.283 444.613,-187.655 451.781,-195.456 455.082,-189.283"/>
</g>
<!-- Node22&#45;&gt;Node12 -->
<g id="edge33" class="edge"><title>Node22&#45;&gt;Node12</title>
<path fill="none" stroke="midnightblue" d="M508.782,-226.593C480.27,-217.745 428.346,-201.63 392.887,-190.626"/>
<polygon fill="midnightblue" stroke="midnightblue" points="393.495,-187.15 382.907,-187.529 391.42,-193.835 393.495,-187.15"/>
</g>
<!-- Node22&#45;&gt;Node14 -->
<g id="edge34" class="edge"><title>Node22&#45;&gt;Node14</title>
<path fill="none" stroke="midnightblue" d="M531.676,-224.056C534.6,-210.086 537.781,-183.124 523.426,-168 488.804,-131.525 342.409,-124.266 263.811,-123.046"/>
<polygon fill="midnightblue" stroke="midnightblue" points="263.695,-119.544 253.651,-122.916 263.605,-126.544 263.695,-119.544"/>
</g>
<!-- Node22&#45;&gt;Node17 -->
<g id="edge35" class="edge"><title>Node22&#45;&gt;Node17</title>
<path fill="none" stroke="midnightblue" d="M550.058,-226.719C553.192,-225.792 556.391,-224.86 559.426,-224 621.924,-206.297 733.741,-219.709 694.426,-168 657.124,-118.938 478.384,-87.4749 386,-74.2151"/>
<polygon fill="midnightblue" stroke="midnightblue" points="386.377,-70.7338 375.986,-72.8007 385.398,-77.665 386.377,-70.7338"/>
</g>
<!-- Node23 -->
<g id="node23" class="node"><title>Node23</title>
<polygon fill="white" stroke="#bfbfbf" points="571.926,-168.5 571.926,-187.5 620.926,-187.5 620.926,-168.5 571.926,-168.5"/>
<text text-anchor="middle" x="596.426" y="-175.5" font-family="Helvetica,sans-Serif" font-size="10.00">cstdarg</text>
</g>
<!-- Node22&#45;&gt;Node23 -->
<g id="edge30" class="edge"><title>Node22&#45;&gt;Node23</title>
<path fill="none" stroke="midnightblue" d="M540.191,-224.324C550.192,-216.263 565.312,-204.077 577.356,-194.369"/>
<polygon fill="midnightblue" stroke="midnightblue" points="579.876,-196.834 585.465,-187.834 575.483,-191.384 579.876,-196.834"/>
</g>
<!-- Node24 -->
<g id="node24" class="node"><title>Node24</title>
<polygon fill="white" stroke="#bfbfbf" points="639.426,-168.5 639.426,-187.5 685.426,-187.5 685.426,-168.5 639.426,-168.5"/>
<text text-anchor="middle" x="662.426" y="-175.5" font-family="Helvetica,sans-Serif" font-size="10.00">cstdint</text>
</g>
<!-- Node22&#45;&gt;Node24 -->
<g id="edge31" class="edge"><title>Node22&#45;&gt;Node24</title>
<path fill="none" stroke="midnightblue" d="M550.207,-224.562C572.136,-215.659 606.921,-201.536 631.952,-191.373"/>
<polygon fill="midnightblue" stroke="midnightblue" points="633.403,-194.561 641.352,-187.556 630.769,-188.076 633.403,-194.561"/>
</g>
</g>
</svg>
        <g id="navigator" transform="translate(0 0)" fill="#404254">
                <rect fill="#f2f5e9" fill-opacity="0.5" stroke="#606060" stroke-width=".5" x="0" y="0" width="60" height="60"/>
                <use id="zoomplus" xlink:href="#zoomPlus" x="17" y="9" onmousedown="handleZoom(evt,'in')"/>
                <use id="zoomminus" xlink:href="#zoomMin" x="42" y="9" onmousedown="handleZoom(evt,'out')"/>
                <use id="reset" xlink:href="#resetDef" x="30" y="36" onmousedown="handleReset()"/>
                <g id="arrowUp" xlink:href="#dirArrow" transform="translate(30 24)" onmousedown="handlePan(0,-1)">
                  <use xlink:href="#rim" fill="#404040">
                        <set attributeName="fill" to="#808080" begin="arrowUp.mouseover" end="arrowUp.mouseout"/>
                  </use>
                  <path fill="none" stroke="white" stroke-width="1.5" d="M0,-3.0v7 M-2.5,-0.5L0,-3.0L2.5,-0.5"/>
                </g>
                <g id="arrowRight" xlink:href="#dirArrow" transform="rotate(90) translate(36 -43)" onmousedown="handlePan(1,0)">
                  <use xlink:href="#rim" fill="#404040">
                        <set attributeName="fill" to="#808080" begin="arrowRight.mouseover" end="arrowRight.mouseout"/>
                  </use>
                  <path fill="none" stroke="white" stroke-width="1.5" d="M0,-3.0v7 M-2.5,-0.5L0,-3.0L2.5,-0.5"/>
                </g>
                <g id="arrowDown" xlink:href="#dirArrow" transform="rotate(180) translate(-30 -48)" onmousedown="handlePan(0,1)">
                  <use xlink:href="#rim" fill="#404040">
                        <set attributeName="fill" to="#808080" begin="arrowDown.mouseover" end="arrowDown.mouseout"/>
                  </use>
                  <path fill="none" stroke="white" stroke-width="1.5" d="M0,-3.0v7 M-2.5,-0.5L0,-3.0L2.5,-0.5"/>
                </g>
                <g id="arrowLeft" xlink:href="#dirArrow" transform="rotate(270) translate(-36 17)" onmousedown="handlePan(-1,0)">
                  <use xlink:href="#rim" fill="#404040">
                        <set attributeName="fill" to="#808080" begin="arrowLeft.mouseover" end="arrowLeft.mouseout"/>
                  </use>
                  <path fill="none" stroke="white" stroke-width="1.5" d="M0,-3.0v7 M-2.5,-0.5L0,-3.0L2.5,-0.5"/>
                </g>
        </g>
        <svg viewBox="0 0 15 15" width="100%" height="30px" preserveAspectRatio="xMaxYMin meet">
         <g id="arrow_out" transform="scale(0.3 0.3)">
          <a xlink:href="_i_plug_v_s_t3_8h__incl_org.svg" target="_base">
           <rect id="button" ry="5" rx="5" y="6" x="6" height="38" width="38"
                fill="#f2f5e9" fill-opacity="0.5" stroke="#606060" stroke-width="1.0"/>
           <path id="arrow"
             d="M 11.500037,31.436501 C 11.940474,20.09759 22.043105,11.32322 32.158766,21.979434 L 37.068811,17.246167 C 37.068811,17.246167 37.088388,32 37.088388,32 L 22.160133,31.978069 C 22.160133,31.978069 26.997745,27.140456 26.997745,27.140456 C 18.528582,18.264221 13.291696,25.230495 11.500037,31.436501 z"
             style="fill:#404040;"/>
          </a>
         </g>
        </svg>
</svg>
