<?xml version="1.0" encoding="UTF-8" standalone="no"?>
<!DOCTYPE svg PUBLIC "-//W3C//DTD SVG 1.1//EN"
 "http://www.w3.org/Graphics/SVG/1.1/DTD/svg11.dtd">
<!-- Generated by graphviz version 2.36.0 (20140111.2315)
 -->
<!-- Title: Graphical Class Hierarchy Pages: 1 -->
<svg width="536pt" height="541pt"
 viewBox="0.00 0.00 536.00 541.00" xmlns="http://www.w3.org/2000/svg" xmlns:xlink="http://www.w3.org/1999/xlink">
<g id="graph0" class="graph" transform="scale(1 1) rotate(0) translate(4 537)">
<title>Graphical Class Hierarchy</title>
<polygon fill="white" stroke="none" points="-4,4 -4,-537 532,-537 532,4 -4,4"/>
<!-- Node1 -->
<g id="node1" class="node"><title>Node1</title>
<g id="a_node1"><a xlink:href="class_i_control.html" target="_top" xlink:title="The lowest level base class of an IGraphics control. ">
<polygon fill="white" stroke="black" points="0.5,-228.5 0.5,-247.5 51.5,-247.5 51.5,-228.5 0.5,-228.5"/>
<text text-anchor="middle" x="26" y="-235.5" font-family="Helvetica,sans-Serif" font-size="10.00">IControl</text>
</a>
</g>
</g>
<!-- Node2 -->
<g id="node2" class="node"><title>Node2</title>
<g id="a_node2"><a xlink:href="class_i_bitmap_control.html" target="_top" xlink:title="A basic control to draw a bitmap, or one frame of a stacked bitmap depending on the current value...">
<polygon fill="white" stroke="black" points="106,-456.5 106,-475.5 188,-475.5 188,-456.5 106,-456.5"/>
<text text-anchor="middle" x="147" y="-463.5" font-family="Helvetica,sans-Serif" font-size="10.00">IBitmapControl</text>
</a>
</g>
</g>
<!-- Node1&#45;&gt;Node2 -->
<g id="edge1" class="edge"><title>Node1&#45;&gt;Node2</title>
<path fill="none" stroke="midnightblue" d="M26.982,-257.959C28.0458,-299.032 36.3368,-393.625 88,-447 92.9375,-452.101 99.2633,-455.834 105.913,-458.564"/>
<polygon fill="midnightblue" stroke="midnightblue" points="30.4805,-257.823 26.8435,-247.872 23.4812,-257.919 30.4805,-257.823"/>
</g>
<!-- Node8 -->
<g id="node8" class="node"><title>Node8</title>
<g id="a_node8"><a xlink:href="class_i_bitmap_text_control.html" target="_top" xlink:title="Display monospace bitmap font text. ">
<polygon fill="white" stroke="black" points="96.5,-418.5 96.5,-437.5 197.5,-437.5 197.5,-418.5 96.5,-418.5"/>
<text text-anchor="middle" x="147" y="-425.5" font-family="Helvetica,sans-Serif" font-size="10.00">IBitmapTextControl</text>
</a>
</g>
</g>
<!-- Node1&#45;&gt;Node8 -->
<g id="edge7" class="edge"><title>Node1&#45;&gt;Node8</title>
<path fill="none" stroke="midnightblue" d="M28.4961,-257.684C32.2274,-292.95 45.0152,-367.122 88,-409 92.0225,-412.919 96.8654,-416.029 102.017,-418.499"/>
<polygon fill="midnightblue" stroke="midnightblue" points="31.9783,-257.329 27.5761,-247.692 25.0077,-257.97 31.9783,-257.329"/>
</g>
<!-- Node9 -->
<g id="node9" class="node"><title>Node9</title>
<g id="a_node9"><a xlink:href="class_i_fader_control.html" target="_top" xlink:title="A fader with a bitmap for the handle. ">
<polygon fill="white" stroke="black" points="109,-380.5 109,-399.5 185,-399.5 185,-380.5 109,-380.5"/>
<text text-anchor="middle" x="147" y="-387.5" font-family="Helvetica,sans-Serif" font-size="10.00">IFaderControl</text>
</a>
</g>
</g>
<!-- Node1&#45;&gt;Node9 -->
<g id="edge8" class="edge"><title>Node1&#45;&gt;Node9</title>
<path fill="none" stroke="midnightblue" d="M30.8089,-257.685C37.4111,-286.589 53.701,-340.387 88,-371 93.9289,-376.292 101.362,-380.114 108.909,-382.873"/>
<polygon fill="midnightblue" stroke="midnightblue" points="34.1696,-256.661 28.6724,-247.604 27.3217,-258.112 34.1696,-256.661"/>
</g>
<!-- Node10 -->
<g id="node10" class="node"><title>Node10</title>
<g id="a_node10"><a xlink:href="class_i_file_selector_control.html" target="_top" xlink:title="A control to allow selection of a file from the file system. ">
<polygon fill="white" stroke="black" points="95.5,-342.5 95.5,-361.5 198.5,-361.5 198.5,-342.5 95.5,-342.5"/>
<text text-anchor="middle" x="147" y="-349.5" font-family="Helvetica,sans-Serif" font-size="10.00">IFileSelectorControl</text>
</a>
</g>
</g>
<!-- Node1&#45;&gt;Node10 -->
<g id="edge9" class="edge"><title>Node1&#45;&gt;Node10</title>
<path fill="none" stroke="midnightblue" d="M34.5056,-256.98C43.9126,-278.411 62.0174,-312.906 88,-333 93.0291,-336.889 98.8869,-339.999 104.909,-342.481"/>
<polygon fill="midnightblue" stroke="midnightblue" points="37.6807,-255.501 30.5899,-247.628 31.2239,-258.204 37.6807,-255.501"/>
</g>
<!-- Node11 -->
<g id="node11" class="node"><title>Node11</title>
<g id="a_node11"><a xlink:href="class_i_invisible_switch_control.html" target="_top" xlink:title="On/Off switch that has a target area only. ">
<polygon fill="white" stroke="black" points="88.5,-304.5 88.5,-323.5 205.5,-323.5 205.5,-304.5 88.5,-304.5"/>
<text text-anchor="middle" x="147" y="-311.5" font-family="Helvetica,sans-Serif" font-size="10.00">IInvisibleSwitchControl</text>
</a>
</g>
</g>
<!-- Node1&#45;&gt;Node11 -->
<g id="edge10" class="edge"><title>Node1&#45;&gt;Node11</title>
<path fill="none" stroke="midnightblue" d="M41.7991,-255.416C53.2794,-267.962 70.1925,-284.469 88,-295 94.3844,-298.775 101.614,-301.907 108.749,-304.464"/>
<polygon fill="midnightblue" stroke="midnightblue" points="44.3389,-253.005 35.0846,-247.847 39.1022,-257.65 44.3389,-253.005"/>
</g>
<!-- Node12 -->
<g id="node12" class="node"><title>Node12</title>
<g id="a_node12"><a xlink:href="class_i_keyboard_control.html" target="_top" xlink:title="A (musical) keyboard control. ">
<polygon fill="white" stroke="black" points="101,-266.5 101,-285.5 193,-285.5 193,-266.5 101,-266.5"/>
<text text-anchor="middle" x="147" y="-273.5" font-family="Helvetica,sans-Serif" font-size="10.00">IKeyboardControl</text>
</a>
</g>
</g>
<!-- Node1&#45;&gt;Node12 -->
<g id="edge11" class="edge"><title>Node1&#45;&gt;Node12</title>
<path fill="none" stroke="midnightblue" d="M61.3505,-248.969C78.5883,-254.474 99.2776,-261.08 115.887,-266.384"/>
<polygon fill="midnightblue" stroke="midnightblue" points="62.2477,-245.582 51.6569,-245.874 60.1183,-252.25 62.2477,-245.582"/>
</g>
<!-- Node13 -->
<g id="node13" class="node"><title>Node13</title>
<g id="a_node13"><a xlink:href="class_i_knob_control.html" target="_top" xlink:title="Parent for knobs, to handle mouse action and ballistics. ">
<polygon fill="white" stroke="black" points="110,-228.5 110,-247.5 184,-247.5 184,-228.5 110,-228.5"/>
<text text-anchor="middle" x="147" y="-235.5" font-family="Helvetica,sans-Serif" font-size="10.00">IKnobControl</text>
</a>
</g>
</g>
<!-- Node1&#45;&gt;Node13 -->
<g id="edge12" class="edge"><title>Node1&#45;&gt;Node13</title>
<path fill="none" stroke="midnightblue" d="M62.0509,-238C77.028,-238 94.5071,-238 109.627,-238"/>
<polygon fill="midnightblue" stroke="midnightblue" points="61.6569,-234.5 51.6569,-238 61.6568,-241.5 61.6569,-234.5"/>
</g>
<!-- Node18 -->
<g id="node18" class="node"><title>Node18</title>
<g id="a_node18"><a xlink:href="class_i_panel_control.html" target="_top" xlink:title="A basic control to fill a rectangle with a color. ">
<polygon fill="white" stroke="black" points="109,-190.5 109,-209.5 185,-209.5 185,-190.5 109,-190.5"/>
<text text-anchor="middle" x="147" y="-197.5" font-family="Helvetica,sans-Serif" font-size="10.00">IPanelControl</text>
</a>
</g>
</g>
<!-- Node1&#45;&gt;Node18 -->
<g id="edge17" class="edge"><title>Node1&#45;&gt;Node18</title>
<path fill="none" stroke="midnightblue" d="M61.3505,-227.031C78.5883,-221.526 99.2776,-214.92 115.887,-209.616"/>
<polygon fill="midnightblue" stroke="midnightblue" points="60.1183,-223.75 51.6569,-230.126 62.2477,-230.418 60.1183,-223.75"/>
</g>
<!-- Node19 -->
<g id="node19" class="node"><title>Node19</title>
<g id="a_node19"><a xlink:href="class_i_radio_buttons_control.html" target="_top" xlink:title="A set of buttons that maps to a single selection. ">
<polygon fill="white" stroke="black" points="92,-152.5 92,-171.5 202,-171.5 202,-152.5 92,-152.5"/>
<text text-anchor="middle" x="147" y="-159.5" font-family="Helvetica,sans-Serif" font-size="10.00">IRadioButtonsControl</text>
</a>
</g>
</g>
<!-- Node1&#45;&gt;Node19 -->
<g id="edge18" class="edge"><title>Node1&#45;&gt;Node19</title>
<path fill="none" stroke="midnightblue" d="M41.7991,-220.584C53.2794,-208.038 70.1925,-191.531 88,-181 94.3844,-177.225 101.614,-174.093 108.749,-171.536"/>
<polygon fill="midnightblue" stroke="midnightblue" points="39.1022,-218.35 35.0846,-228.153 44.3389,-222.995 39.1022,-218.35"/>
</g>
<!-- Node20 -->
<g id="node20" class="node"><title>Node20</title>
<g id="a_node20"><a xlink:href="class_i_text_control.html" target="_top" xlink:title="A basic control to output text to the screen. ">
<polygon fill="white" stroke="black" points="111.5,-114.5 111.5,-133.5 182.5,-133.5 182.5,-114.5 111.5,-114.5"/>
<text text-anchor="middle" x="147" y="-121.5" font-family="Helvetica,sans-Serif" font-size="10.00">ITextControl</text>
</a>
</g>
</g>
<!-- Node1&#45;&gt;Node20 -->
<g id="edge19" class="edge"><title>Node1&#45;&gt;Node20</title>
<path fill="none" stroke="midnightblue" d="M34.5056,-219.02C43.9126,-197.589 62.0174,-163.094 88,-143 94.7893,-137.749 103.089,-133.919 111.263,-131.137"/>
<polygon fill="midnightblue" stroke="midnightblue" points="31.2239,-217.796 30.5899,-228.372 37.6807,-220.499 31.2239,-217.796"/>
</g>
<!-- Node22 -->
<g id="node22" class="node"><title>Node22</title>
<g id="a_node22"><a xlink:href="class_i_u_r_l_control.html" target="_top" xlink:title="Clickable URL area. ">
<polygon fill="white" stroke="black" points="111.5,-76.5 111.5,-95.5 182.5,-95.5 182.5,-76.5 111.5,-76.5"/>
<text text-anchor="middle" x="147" y="-83.5" font-family="Helvetica,sans-Serif" font-size="10.00">IURLControl</text>
</a>
</g>
</g>
<!-- Node1&#45;&gt;Node22 -->
<g id="edge21" class="edge"><title>Node1&#45;&gt;Node22</title>
<path fill="none" stroke="midnightblue" d="M30.8089,-218.315C37.4111,-189.411 53.701,-135.613 88,-105 94.5613,-99.1438 102.965,-95.0878 111.326,-92.2802"/>
<polygon fill="midnightblue" stroke="midnightblue" points="27.3217,-217.888 28.6724,-228.396 34.1696,-219.339 27.3217,-217.888"/>
</g>
<!-- Node23 -->
<g id="node23" class="node"><title>Node23</title>
<g id="a_node23"><a xlink:href="class_i_v_switch_control.html" target="_top" xlink:title="A vector switch control. ">
<polygon fill="white" stroke="black" points="103,-38.5 103,-57.5 191,-57.5 191,-38.5 103,-38.5"/>
<text text-anchor="middle" x="147" y="-45.5" font-family="Helvetica,sans-Serif" font-size="10.00">IVSwitchControl</text>
</a>
</g>
</g>
<!-- Node1&#45;&gt;Node23 -->
<g id="edge22" class="edge"><title>Node1&#45;&gt;Node23</title>
<path fill="none" stroke="midnightblue" d="M28.4961,-218.316C32.2274,-183.05 45.0152,-108.878 88,-67 92.2502,-62.8593 97.4163,-59.621 102.894,-57.0884"/>
<polygon fill="midnightblue" stroke="midnightblue" points="25.0077,-218.03 27.5761,-228.308 31.9783,-218.671 25.0077,-218.03"/>
</g>
<!-- Node24 -->
<g id="node24" class="node"><title>Node24</title>
<g id="a_node24"><a xlink:href="class_i_x_y_pad.html" target="_top" xlink:title="IXYPad">
<polygon fill="white" stroke="black" points="122,-0.5 122,-19.5 172,-19.5 172,-0.5 122,-0.5"/>
<text text-anchor="middle" x="147" y="-7.5" font-family="Helvetica,sans-Serif" font-size="10.00">IXYPad</text>
</a>
</g>
</g>
<!-- Node1&#45;&gt;Node24 -->
<g id="edge23" class="edge"><title>Node1&#45;&gt;Node24</title>
<path fill="none" stroke="midnightblue" d="M26.982,-218.041C28.0458,-176.968 36.3368,-82.375 88,-29 96.8433,-19.8637 110.14,-15.1179 121.772,-12.654"/>
<polygon fill="midnightblue" stroke="midnightblue" points="23.4812,-218.081 26.8435,-228.128 30.4805,-218.177 23.4812,-218.081"/>
</g>
<!-- Node3 -->
<g id="node3" class="node"><title>Node3</title>
<g id="a_node3"><a xlink:href="class_i_switch_control.html" target="_top" xlink:title="A switch. ">
<polygon fill="white" stroke="black" points="268.5,-456.5 268.5,-475.5 349.5,-475.5 349.5,-456.5 268.5,-456.5"/>
<text text-anchor="middle" x="309" y="-463.5" font-family="Helvetica,sans-Serif" font-size="10.00">ISwitchControl</text>
</a>
</g>
</g>
<!-- Node2&#45;&gt;Node3 -->
<g id="edge2" class="edge"><title>Node2&#45;&gt;Node3</title>
<path fill="none" stroke="midnightblue" d="M198.47,-466C221.07,-466 247.329,-466 268.469,-466"/>
<polygon fill="midnightblue" stroke="midnightblue" points="198.375,-462.5 188.375,-466 198.375,-469.5 198.375,-462.5"/>
</g>
<!-- Node4 -->
<g id="node4" class="node"><title>Node4</title>
<g id="a_node4"><a xlink:href="class_i_bitmap_overlay_control.html" target="_top" xlink:title="Bitmap shows when value = 0, then toggles its target area to the whole bitmap and waits for another c...">
<polygon fill="white" stroke="black" points="412,-513.5 412,-532.5 528,-532.5 528,-513.5 412,-513.5"/>
<text text-anchor="middle" x="470" y="-520.5" font-family="Helvetica,sans-Serif" font-size="10.00">IBitmapOverlayControl</text>
</a>
</g>
</g>
<!-- Node3&#45;&gt;Node4 -->
<g id="edge3" class="edge"><title>Node3&#45;&gt;Node4</title>
<path fill="none" stroke="midnightblue" d="M344.539,-479.209C364.243,-486.658 389.437,-496.039 412,-504 420.952,-507.158 430.741,-510.472 439.643,-513.432"/>
<polygon fill="midnightblue" stroke="midnightblue" points="345.653,-475.888 335.062,-475.615 343.171,-482.433 345.653,-475.888"/>
</g>
<!-- Node5 -->
<g id="node5" class="node"><title>Node5</title>
<g id="a_node5"><a xlink:href="class_i_contact_control.html" target="_top" xlink:title="A switch that reverts to 0.0 when released. ">
<polygon fill="white" stroke="black" points="427,-475.5 427,-494.5 513,-494.5 513,-475.5 427,-475.5"/>
<text text-anchor="middle" x="470" y="-482.5" font-family="Helvetica,sans-Serif" font-size="10.00">IContactControl</text>
</a>
</g>
</g>
<!-- Node3&#45;&gt;Node5 -->
<g id="edge4" class="edge"><title>Node3&#45;&gt;Node5</title>
<path fill="none" stroke="midnightblue" d="M359.651,-471.933C381.175,-474.505 406.114,-477.485 426.736,-479.95"/>
<polygon fill="midnightblue" stroke="midnightblue" points="360.057,-468.457 349.712,-470.745 359.226,-475.407 360.057,-468.457"/>
</g>
<!-- Node6 -->
<g id="node6" class="node"><title>Node6</title>
<g id="a_node6"><a xlink:href="class_i_switch_frames_control.html" target="_top" xlink:title="A switch where each frame of the bitmap contains images for multiple button states. ">
<polygon fill="white" stroke="black" points="413,-437.5 413,-456.5 527,-456.5 527,-437.5 413,-437.5"/>
<text text-anchor="middle" x="470" y="-444.5" font-family="Helvetica,sans-Serif" font-size="10.00">ISwitchFramesControl</text>
</a>
</g>
</g>
<!-- Node3&#45;&gt;Node6 -->
<g id="edge5" class="edge"><title>Node3&#45;&gt;Node6</title>
<path fill="none" stroke="midnightblue" d="M359.861,-460.042C376.639,-458.037 395.473,-455.786 412.711,-453.726"/>
<polygon fill="midnightblue" stroke="midnightblue" points="359.226,-456.593 349.712,-461.255 360.057,-463.543 359.226,-456.593"/>
</g>
<!-- Node7 -->
<g id="node7" class="node"><title>Node7</title>
<g id="a_node7"><a xlink:href="class_i_switch_pop_up_control.html" target="_top" xlink:title="Like ISwitchControl except it puts up a popup menu instead of cycling through states on click...">
<polygon fill="white" stroke="black" points="414.5,-399.5 414.5,-418.5 525.5,-418.5 525.5,-399.5 414.5,-399.5"/>
<text text-anchor="middle" x="470" y="-406.5" font-family="Helvetica,sans-Serif" font-size="10.00">ISwitchPopUpControl</text>
</a>
</g>
</g>
<!-- Node3&#45;&gt;Node7 -->
<g id="edge6" class="edge"><title>Node3&#45;&gt;Node7</title>
<path fill="none" stroke="midnightblue" d="M344.539,-452.791C364.243,-445.342 389.437,-435.961 412,-428 420.952,-424.842 430.741,-421.528 439.643,-418.568"/>
<polygon fill="midnightblue" stroke="midnightblue" points="343.171,-449.567 335.062,-456.385 345.653,-456.112 343.171,-449.567"/>
</g>
<!-- Node14 -->
<g id="node14" class="node"><title>Node14</title>
<g id="a_node14"><a xlink:href="class_i_knob_line_control.html" target="_top" xlink:title="A knob that is just a line. ">
<polygon fill="white" stroke="black" points="263,-285.5 263,-304.5 355,-304.5 355,-285.5 263,-285.5"/>
<text text-anchor="middle" x="309" y="-292.5" font-family="Helvetica,sans-Serif" font-size="10.00">IKnobLineControl</text>
</a>
</g>
</g>
<!-- Node13&#45;&gt;Node14 -->
<g id="edge13" class="edge"><title>Node13&#45;&gt;Node14</title>
<path fill="none" stroke="midnightblue" d="M190.168,-250.882C195.548,-252.797 200.94,-254.854 206,-257 222.656,-264.063 225.219,-269.24 242,-276 250.848,-279.564 260.611,-282.757 269.854,-285.461"/>
<polygon fill="midnightblue" stroke="midnightblue" points="191.165,-247.524 180.57,-247.599 188.899,-254.147 191.165,-247.524"/>
</g>
<!-- Node15 -->
<g id="node15" class="node"><title>Node15</title>
<g id="a_node15"><a xlink:href="class_i_knob_multi_control.html" target="_top" xlink:title="A multibitmap knob. ">
<polygon fill="white" stroke="black" points="261.5,-247.5 261.5,-266.5 356.5,-266.5 356.5,-247.5 261.5,-247.5"/>
<text text-anchor="middle" x="309" y="-254.5" font-family="Helvetica,sans-Serif" font-size="10.00">IKnobMultiControl</text>
</a>
</g>
</g>
<!-- Node13&#45;&gt;Node15 -->
<g id="edge14" class="edge"><title>Node13&#45;&gt;Node15</title>
<path fill="none" stroke="midnightblue" d="M194.327,-243.501C215.433,-246.008 240.365,-248.968 261.493,-251.477"/>
<polygon fill="midnightblue" stroke="midnightblue" points="194.649,-240.015 184.306,-242.311 193.824,-246.966 194.649,-240.015"/>
</g>
<!-- Node16 -->
<g id="node16" class="node"><title>Node16</title>
<g id="a_node16"><a xlink:href="class_i_knob_rotater_control.html" target="_top" xlink:title="A rotating knob. ">
<polygon fill="white" stroke="black" points="256,-209.5 256,-228.5 362,-228.5 362,-209.5 256,-209.5"/>
<text text-anchor="middle" x="309" y="-216.5" font-family="Helvetica,sans-Serif" font-size="10.00">IKnobRotaterControl</text>
</a>
</g>
</g>
<!-- Node13&#45;&gt;Node16 -->
<g id="edge15" class="edge"><title>Node13&#45;&gt;Node16</title>
<path fill="none" stroke="midnightblue" d="M194.331,-232.498C213.555,-230.215 235.951,-227.556 255.757,-225.204"/>
<polygon fill="midnightblue" stroke="midnightblue" points="193.824,-229.034 184.306,-233.689 194.649,-235.985 193.824,-229.034"/>
</g>
<!-- Node17 -->
<g id="node17" class="node"><title>Node17</title>
<g id="a_node17"><a xlink:href="class_i_knob_rotating_mask_control.html" target="_top" xlink:title="A knob that consists of a static base, a rotating mask, and a rotating top. ">
<polygon fill="white" stroke="black" points="242,-171.5 242,-190.5 376,-190.5 376,-171.5 242,-171.5"/>
<text text-anchor="middle" x="309" y="-178.5" font-family="Helvetica,sans-Serif" font-size="10.00">IKnobRotatingMaskControl</text>
</a>
</g>
</g>
<!-- Node13&#45;&gt;Node17 -->
<g id="edge16" class="edge"><title>Node13&#45;&gt;Node17</title>
<path fill="none" stroke="midnightblue" d="M190.168,-225.118C195.548,-223.203 200.94,-221.146 206,-219 222.656,-211.937 225.219,-206.76 242,-200 250.848,-196.436 260.611,-193.243 269.854,-190.539"/>
<polygon fill="midnightblue" stroke="midnightblue" points="188.899,-221.853 180.57,-228.401 191.165,-228.476 188.899,-221.853"/>
</g>
<!-- Node21 -->
<g id="node21" class="node"><title>Node21</title>
<g id="a_node21"><a xlink:href="class_i_caption_control.html" target="_top" xlink:title="Displays the value of a parameter. ">
<polygon fill="white" stroke="black" points="266.5,-114.5 266.5,-133.5 351.5,-133.5 351.5,-114.5 266.5,-114.5"/>
<text text-anchor="middle" x="309" y="-121.5" font-family="Helvetica,sans-Serif" font-size="10.00">ICaptionControl</text>
</a>
</g>
</g>
<!-- Node20&#45;&gt;Node21 -->
<g id="edge20" class="edge"><title>Node20&#45;&gt;Node21</title>
<path fill="none" stroke="midnightblue" d="M192.907,-124C215.903,-124 243.723,-124 266.251,-124"/>
<polygon fill="midnightblue" stroke="midnightblue" points="192.718,-120.5 182.718,-124 192.718,-127.5 192.718,-120.5"/>
</g>
</g>
</svg>
